<?xml version="1.0" encoding="UTF-8" standalone="no"?>
<!-- Created with Inkscape (http://www.inkscape.org/) -->

<svg
   width="210mm"
   height="297mm"
   viewBox="0 0 210 297"
   version="1.1"
   id="svg1"
   sodipodi:docname="Continuous Burn Turbine Engine.svg"
   inkscape:version="1.4.3 (0d15f75, 2025-12-25)"
   xmlns:inkscape="http://www.inkscape.org/namespaces/inkscape"
   xmlns:sodipodi="http://sodipodi.sourceforge.net/DTD/sodipodi-0.dtd"
   xmlns="http://www.w3.org/2000/svg"
   xmlns:svg="http://www.w3.org/2000/svg">
  <sodipodi:namedview
     id="namedview1"
     pagecolor="#ffffff"
     bordercolor="#000000"
     borderopacity="0.25"
     inkscape:showpageshadow="2"
     inkscape:pageopacity="0.0"
     inkscape:pagecheckerboard="0"
     inkscape:deskcolor="#d1d1d1"
     inkscape:document-units="mm"
     inkscape:zoom="0.27787765"
     inkscape:cx="-264.5049"
     inkscape:cy="1165.9808"
     inkscape:window-width="1920"
     inkscape:window-height="991"
     inkscape:window-x="-9"
     inkscape:window-y="-9"
     inkscape:window-maximized="1"
     inkscape:current-layer="layer1" />
  <defs
     id="defs1">
    <inkscape:perspective
       sodipodi:type="inkscape:persp3d"
       inkscape:vp_x="15.257868 : 164.48443 : 1"
       inkscape:vp_y="0 : 1000 : 0"
       inkscape:vp_z="225.25787 : 164.48443 : 1"
       inkscape:persp3d-origin="120.25787 : 114.98443 : 1"
       id="perspective15" />
  </defs>
  <g
     inkscape:label="Layer 1"
     inkscape:groupmode="layer"
     id="layer1">
    <circle
       style="fill:#484537;fill-opacity:1;stroke:none;stroke-width:3.83079"
       id="path26"
       cx="103.86417"
       cy="105.76181"
       r="41.373608" />
    <circle
       style="fill:#918a6f;fill-opacity:1;stroke:none;stroke-width:3.83079"
       id="path27-4"
       cx="103.74069"
       cy="106.06783"
       r="32.597385" />
    <path
       id="path27"
       style="fill:#0000ff;fill-opacity:1;stroke:none;stroke-width:5.3458"
       d="m 90.864414,78.146723 a 63.479116,32.597385 0 0 0 -11.39375,4.944869 v 26.431718 h 11.39375 z" />
    <path
       id="path27-7"
       style="fill:#0000ff;fill-opacity:1;stroke:none;stroke-width:3.83079"
       d="m 74.428961,122.78678 a 32.597385,32.597385 0 0 0 4.944865,5.85087 h 26.431714 v -5.85087 z" />
    <ellipse
       style="fill:#484537;fill-opacity:1;stroke:none;stroke-width:3.83079"
       id="path31-4"
       cx="84.454475"
       cy="237.94006"
       rx="11.283711"
       ry="46.597542" />
    <path
       id="path27-60"
       style="fill:#0000ff;fill-opacity:1;stroke:none;stroke-width:5.3458"
       d="m 75.784523,122.41405 a 32.597385,63.479116 0 0 0 4.944865,11.39383 h 26.431722 v -11.39383 z" />
    <path
       id="path27-5"
       style="fill:#0000ff;fill-opacity:1;stroke:none;stroke-width:5.3458"
       d="M 134.30808,94.006179 A 32.597385,63.479116 0 0 0 129.36321,82.61241 h -26.43175 v 11.393769 z" />
    <path
       id="path27-9"
       style="fill:#0000ff;fill-opacity:1;stroke:none;stroke-width:3.83079"
       d="m 122.80312,132.48847 a 32.597385,32.597385 0 0 0 5.85086,-4.94489 v -26.43181 h -5.85086 z" />
    <path
       style="fill:#ff0000;fill-opacity:1;stroke:none;stroke-width:5.3458"
       d="M 78.657314,59.373191 V 83.19439 l 10.579829,-4.179171 0.813824,-22.56743 14.649053,-5.850815 -0.81384,-35.522791 -45.574746,0.417915 1.627677,35.940708 z"
       id="path28"
       sodipodi:nodetypes="ccccccccc" />
    <path
       id="path27-6"
       style="fill:#0000ff;fill-opacity:1;stroke:none;stroke-width:3.83079"
       d="m 132.24342,89.229223 a 32.597385,32.597385 0 0 0 -4.94487,-5.850863 h -26.43177 v 5.850863 z" />
    <ellipse
       style="fill:#800000;fill-opacity:1;stroke:none;stroke-width:3.83079"
       id="path29"
       cx="104.41856"
       cy="105.89832"
       rx="3.9701943"
       ry="4.3881097" />
    <path
       style="fill:#800000;fill-opacity:1;stroke:none;stroke-width:3.83079"
       d="m 53.29645,77.343569 c 0,0 -15.102841,57.225711 38.866095,82.329581 2.541918,1.18237 -8.776202,9.6121 -8.776202,9.6121 l 33.851157,-12.53753 -14.20916,-3.76125 c 0,0 -61.015718,-7.46423 -42.627331,-75.224988 0.437811,-1.613326 -7.104559,-0.417913 -7.104559,-0.417913 z"
       id="path30"
       sodipodi:nodetypes="cscccsc" />
    <path
       id="path27-61"
       style="fill:#0000ff;fill-opacity:1;stroke:none;stroke-width:5.3458"
       d="m 119.23429,133.77291 a 63.479116,32.597385 0 0 0 11.39377,-4.94489 v -26.43185 h -11.39377 z" />
    <path
       id="path27-61-1"
       style="fill:#000080;fill-opacity:1;stroke:none;stroke-width:5.3458"
       d="m 129.57171,82.927569 a 32.597385,63.479116 0 0 0 4.94487,11.393792 h 26.43173 V 82.927569 Z" />
    <ellipse
       style="fill:#6c6753;fill-opacity:1;stroke:none;stroke-width:3.83079"
       id="path31"
       cx="79.559387"
       cy="237.61302"
       rx="11.283711"
       ry="46.597542" />
    <ellipse
       style="fill:#484537;fill-opacity:1;stroke:none;stroke-width:2.48998"
       id="path31-4-6"
       cx="115.00938"
       cy="240.3719"
       rx="7.3343415"
       ry="30.288109" />
    <ellipse
       style="fill:#6c6753;fill-opacity:1;stroke:none;stroke-width:2.48998"
       id="path31-1"
       cx="111.82759"
       cy="240.15929"
       rx="7.3343415"
       ry="30.288109" />
    <ellipse
       style="fill:#484537;fill-opacity:1;stroke:none;stroke-width:1.49896"
       id="path31-4-6-3"
       cx="134.73305"
       cy="241.56197"
       rx="4.4152431"
       ry="18.233316" />
    <ellipse
       style="fill:#6c6753;fill-opacity:1;stroke:none;stroke-width:1.49896"
       id="path31-1-7"
       cx="132.81764"
       cy="241.43396"
       rx="4.4152431"
       ry="18.233316" />
    <rect
       style="fill:#000080;fill-opacity:1;stroke:none;stroke-width:3.83079"
       id="rect31"
       width="54.746887"
       height="3.7612369"
       x="79.97731"
       y="239.00316" />
    <path
       id="path31-1-4"
       style="fill:#6c6753;fill-opacity:1;stroke:none;stroke-width:2.48998"
       d="m 111.99797,209.27767 a 7.3343411,30.288109 0 0 0 -0.0523,0.001 v 60.57498 a 7.3343411,30.288109 0 0 0 0.0523,0 7.3343411,30.288109 0 0 0 7.33469,-30.28748 7.3343411,30.288109 0 0 0 -7.33469,-30.2887 z" />
    <path
       id="path31-1-4-1"
       style="fill:#6c6753;fill-opacity:1;stroke:none;stroke-width:2.48998"
       d="m 84.907986,205.98062 a 7.3343411,30.288109 0 0 0 -0.05223,0.001 v 60.57498 a 7.3343411,30.288109 0 0 0 0.05223,0 7.3343411,30.288109 0 0 0 7.334678,-30.28749 7.3343411,30.288109 0 0 0 -7.334678,-30.28869 z" />
    <text
       xml:space="preserve"
       style="font-weight:bold;font-size:14.6099px;font-family:sans-serif;-inkscape-font-specification:'sans-serif Bold';writing-mode:lr-tb;direction:ltr;fill:#000080;fill-opacity:1;stroke:none;stroke-width:3.83079"
       x="236.72809"
       y="74.836067"
       id="text32"><tspan
         sodipodi:role="line"
         id="tspan32"
         style="stroke-width:3.83079"
         x="236.72809"
         y="74.836067" /></text>
  </g>
</svg>
