<?xml version="1.0" encoding="UTF-8" standalone="no"?>
<!-- Created with Inkscape (http://www.inkscape.org/) -->

<svg
   width="210mm"
   height="297mm"
   viewBox="0 0 210 297"
   version="1.1"
   id="svg1"
   inkscape:version="1.4.3 (0d15f75, 2025-12-25)"
   sodipodi:docname="IMG11.svg"
   xmlns:inkscape="http://www.inkscape.org/namespaces/inkscape"
   xmlns:sodipodi="http://sodipodi.sourceforge.net/DTD/sodipodi-0.dtd"
   xmlns:xlink="http://www.w3.org/1999/xlink"
   xmlns="http://www.w3.org/2000/svg"
   xmlns:svg="http://www.w3.org/2000/svg">
  <sodipodi:namedview
     id="namedview1"
     pagecolor="#ffffff"
     bordercolor="#000000"
     borderopacity="0.25"
     inkscape:showpageshadow="2"
     inkscape:pageopacity="0.0"
     inkscape:pagecheckerboard="0"
     inkscape:deskcolor="#d1d1d1"
     inkscape:document-units="mm"
     inkscape:zoom="0.61594576"
     inkscape:cx="800.39516"
     inkscape:cy="471.63244"
     inkscape:window-width="1920"
     inkscape:window-height="991"
     inkscape:window-x="-9"
     inkscape:window-y="-9"
     inkscape:window-maximized="1"
     inkscape:current-layer="layer1" />
  <defs
     id="defs1">
    <linearGradient
       id="linearGradient12"
       inkscape:collect="always">
      <stop
         style="stop-color:#ff3d00;stop-opacity:1;"
         offset="0"
         id="stop12" />
      <stop
         style="stop-color:#cbba00;stop-opacity:0.75423729;"
         offset="1"
         id="stop13" />
    </linearGradient>
    <linearGradient
       inkscape:collect="always"
       xlink:href="#linearGradient12"
       id="linearGradient13-7-2"
       x1="12.429228"
       y1="9.8185291"
       x2="48.445656"
       y2="9.8185291"
       gradientUnits="userSpaceOnUse" />
  </defs>
  <g
     inkscape:label="Layer 1"
     inkscape:groupmode="layer"
     id="layer1">
    <path
       id="path1-8-4"
       style="fill:#ff0000;fill-opacity:1;stroke-width:1.45419"
       d="m 71.434962,67.452452 0.06491,4.59e-4 a 50,50 0 0 1 0.0099,-0.0091 l -0.06399,-1.78e-4 a 50,50 0 0 0 -0.0099,0.0091 z m 0.0746,-0.009 17.798181,2.3e-5 a 7.5614737,5 0 0 1 0.460779,0.009 l 0.166336,-7.76e-4 a 7.5614737,5 0 0 1 7.561388,5.000614 7.5614737,5 0 0 1 -7.561739,4.999365 l -27.000585,1e-4 A 50,50 0 0 0 55.235375,101.06428 L 67.467691,88.831922 a 5,7.5614737 45 0 1 0.33195,-0.319217 l 0.118095,-0.117719 a 5,7.5614737 45 0 1 8.882348,-1.810829 5,7.5614737 45 0 1 -1.811352,8.881888 L 56.151249,114.3041 a 50,50 0 0 0 11.573966,23.13968 l -2.9e-5,-17.79832 a 7.5614737,5 90 0 1 0.009,-0.46044 l 1.9e-5,-0.1666 a 7.5614737,5 90 0 1 5.00024,-7.5611 7.5614737,5 90 0 1 4.999854,7.56147 l 2.1e-5,27.07364 a 50,50 0 0 0 10.974667,5.36413 50,50 0 0 0 0.684566,0.25984 50,50 0 0 0 3.239113,0.85756 50,50 0 0 0 9.086979,1.48507 L 89.134239,141.4736 a 7.5614737,5 45 0 1 -0.319206,-0.33193 l -0.117715,-0.11752 a 7.5614737,5 45 0 1 -1.810917,-8.88234 7.5614737,5 45 0 1 8.881994,1.81133 l 19.143875,19.14421 a 50,50 0 0 0 22.66953,-11.27261 l -17.49348,-1.1e-4 a 7.5614737,5 0 0 1 -0.46047,-0.009 l -0.16662,-7.2e-4 a 7.5614737,5 0 0 1 -7.561,-5.0002 7.5614737,5 0 0 1 7.56108,-4.99955 l 26.7671,-5.1e-4 a 50,50 0 0 0 0.4655,-0.69646 50,50 0 0 0 2.32764,-4.0256 50,50 0 0 0 0.13981,-0.28326 50,50 0 0 0 4.86752,-15.77284 50,50 0 0 0 0.32597,-3.4436 l -12.3413,12.34226 a 5,7.5614737 45 0 1 -0.33192,0.31924 l -0.11755,0.11783 a 5,7.5614737 45 0 1 -8.88239,1.81087 5,7.5614737 45 0 1 1.81173,-8.88227 l 18.89971,-18.899453 a 50,50 0 0 0 -2.64892,-8.675842 50,50 0 0 0 -0.41904,-0.929986 50,50 0 0 0 -2.19458,-4.463069 50,50 0 0 0 -1.22011,-2.016698 50,50 0 0 0 -1.97683,-2.968604 50,50 0 0 0 -2.27143,-2.896201 50,50 0 0 0 -0.66646,-0.77394 l 1e-5,17.722234 a 7.5614737,5 90 0 1 -0.009,0.460432 l -6e-4,0.166388 a 7.5614737,5 90 0 1 -4.99992,7.561345 7.5614737,5 90 0 1 -4.99982,-7.561317 l -3e-5,-27.058391 a 50,50 0 0 0 -5.57284,-3.140696 50,50 0 0 0 -0.30226,-0.130021 50,50 0 0 0 -5.55711,-2.246551 50,50 0 0 0 -0.65556,-0.195131 50,50 0 0 0 -5.51286,-1.437088 50,50 0 0 0 -0.67678,-0.119119 50,50 0 0 0 -5.73322,-0.7249 50,50 0 0 0 -0.22251,-0.01334 l 12.27726,12.277245 a 7.5614737,5 45 0 1 0.31923,0.331934 l 0.11767,0.117763 a 7.5614737,5 45 0 1 1.81094,8.88222 7.5614737,5 45 0 1 -8.88189,-1.811354 L 94.543189,55.90487 a 50,50 0 0 0 -0.210832,0.04193 50,50 0 0 0 -5.957607,1.646549 50,50 0 0 0 -0.203208,0.06872 50,50 0 0 0 -5.906811,2.496841 50,50 0 0 0 -9.12e-4,3.76e-4 50,50 0 0 0 -7.35e-4,6.35e-4 50,50 0 0 0 -10.753182,7.281886 z m 30.209651,86.615441 0.0979,0.098 a 50,50 0 0 0 0.0135,3.6e-4 l -0.0984,-0.0977 a 50,50 0 0 1 -0.0135,-3.5e-4 z m -33.993806,-16.61501 -2e-6,0.20092 a 50,50 0 0 0 0.0091,0.01 l 2.01e-4,-0.20194 a 50,50 0 0 1 -0.0091,-0.01 z" />
    <path
       sodipodi:type="star"
       style="fill:url(#linearGradient13-7-2);fill-opacity:1;stroke:#fff209;stroke-width:1.665;stroke-opacity:1"
       id="path12-38-9"
       inkscape:flatsided="false"
       sodipodi:sides="8"
       sodipodi:cx="30.437441"
       sodipodi:cy="9.8185291"
       sodipodi:r1="16.25997"
       sodipodi:r2="8.1299849"
       sodipodi:arg1="0.50416596"
       sodipodi:arg2="0.89686504"
       inkscape:rounded="0"
       inkscape:randomized="0"
       d="m 44.674308,17.673352 -9.163248,-1.502261 -0.560833,9.268622 -5.417135,-7.541654 -6.950474,6.157337 1.502261,-9.163247 -9.268622,-0.560833 7.541654,-5.4171354 -6.157337,-6.9504744 9.163247,1.5022614 0.560834,-9.268622 5.417134,7.5416534 6.950475,-6.1573365 -1.502262,9.1632471 9.268622,0.5608332 -7.541653,5.4171352 z"
       transform="matrix(0.49566682,0,0,0.49566682,85.4566,195.01046)" />
    <path
       id="path1-8-4-5"
       style="fill:#0000ff;fill-opacity:1;stroke-width:1.45419"
       d="m 87.094987,58.051623 a 50,50 0 0 0 -4.830324,2.107301 50,50 0 0 0 -0.001,3.42e-4 50,50 0 0 0 -7.09e-4,7.08e-4 50,50 0 0 0 -4.987434,2.873201 6.9159117,6.3395858 45 0 0 8.075866,-0.63033 6.9159117,6.3395858 45 0 0 1.743725,-4.351266 z" />
    <rect
       style="fill:#ff3838;fill-opacity:1;stroke-width:1.99254"
       id="rect4"
       width="20"
       height="10"
       x="90"
       y="210" />
    <rect
       style="fill:#ffe300;fill-opacity:1;stroke-width:1.93028"
       id="rect5"
       width="20"
       height="10"
       x="90"
       y="225" />
    <rect
       style="fill:#000caa;fill-opacity:1;stroke-width:1.93028"
       id="rect5-8"
       width="20"
       height="10"
       x="90"
       y="240" />
    <rect
       style="fill:#00aa05;fill-opacity:1;stroke-width:1.93028"
       id="rect5-8-5"
       width="20"
       height="10"
       x="90"
       y="255" />
    <text
       xml:space="preserve"
       style="font-size:6.35px;writing-mode:lr-tb;direction:ltr;fill:#00aa05;fill-opacity:1;stroke-width:1.665"
       x="150.22897"
       y="214.39328"
       id="text7"><tspan
         sodipodi:role="line"
         id="tspan7"
         style="stroke-width:1.665"
         x="150.22897"
         y="214.39328" /></text>
    <text
       xml:space="preserve"
       style="font-style:normal;font-variant:normal;font-weight:bold;font-stretch:normal;font-size:6.35px;font-family:sans-serif;-inkscape-font-specification:'sans-serif Bold';writing-mode:lr-tb;direction:ltr;fill:#000000;fill-opacity:1;stroke-width:1.665"
       x="114.84375"
       y="217.08278"
       id="text8"><tspan
         sodipodi:role="line"
         id="tspan8"
         style="stroke-width:1.665"
         x="114.84375"
         y="217.08278">PISTON/TURBINE</tspan></text>
    <text
       xml:space="preserve"
       style="font-style:normal;font-variant:normal;font-weight:bold;font-stretch:normal;font-size:6.35px;font-family:sans-serif;-inkscape-font-specification:'sans-serif Bold';writing-mode:lr-tb;direction:ltr;fill:#000000;fill-opacity:1;stroke-width:1.665"
       x="115.08313"
       y="202.2475"
       id="text8-3"><tspan
         sodipodi:role="line"
         id="tspan8-2"
         style="stroke-width:1.665"
         x="115.08313"
         y="202.2475">COMBUSTION EVENT</tspan></text>
    <text
       xml:space="preserve"
       style="font-style:normal;font-variant:normal;font-weight:bold;font-stretch:normal;font-size:6.35px;font-family:sans-serif;-inkscape-font-specification:'sans-serif Bold';writing-mode:lr-tb;direction:ltr;fill:#000000;fill-opacity:1;stroke-width:1.665"
       x="113.70312"
       y="232.45148"
       id="text9"><tspan
         sodipodi:role="line"
         id="tspan9"
         style="stroke-width:1.665"
         x="113.70312"
         y="232.45148">DRIVE SHAFT</tspan></text>
    <text
       xml:space="preserve"
       style="font-style:normal;font-variant:normal;font-weight:bold;font-stretch:normal;font-size:6.35px;font-family:sans-serif;-inkscape-font-specification:'sans-serif Bold';writing-mode:lr-tb;direction:ltr;fill:#000000;fill-opacity:1;stroke-width:1.665"
       x="116"
       y="248.20438"
       id="text10"><tspan
         sodipodi:role="line"
         id="tspan10"
         style="stroke-width:1.665"
         x="116"
         y="248.20438">OUTER CASING VENT</tspan></text>
    <text
       xml:space="preserve"
       style="font-style:normal;font-variant:normal;font-weight:bold;font-stretch:normal;font-size:6.35px;font-family:sans-serif;-inkscape-font-specification:'sans-serif Bold';writing-mode:lr-tb;direction:ltr;fill:#000000;fill-opacity:1;stroke-width:1.665"
       x="114.07812"
       y="262.42044"
       id="text11"><tspan
         sodipodi:role="line"
         id="tspan11"
         style="stroke-width:1.665"
         x="114.07812"
         y="262.42044">FIXED OUTER CASING</tspan></text>
    <path
       id="path11-50"
       style="fill:#0000ff;fill-opacity:1;stroke-width:1.665"
       d="m 92.048458,149.98524 a 6.9159117,6.3395858 45 0 0 -8.901325,-0.83026 50,50 0 0 0 5.561866,2.30168 50,50 0 0 0 0.684623,0.25986 50,50 0 0 0 3.238977,0.85722 50,50 0 0 0 1.208775,0.29813 6.9159117,6.3395858 45 0 0 -1.793041,-2.88635 z" />
    <path
       id="path11-50-3"
       style="fill:#0000ff;fill-opacity:1;stroke-width:1.665"
       d="m 128.05088,145.78918 a 6.9159117,6.3395858 0 0 0 -6.88128,5.70719 50,50 0 0 0 5.56038,-2.30528 50,50 0 0 0 0.66773,-0.30075 50,50 0 0 0 2.89644,-1.68417 50,50 0 0 0 1.06555,-0.64382 6.9159117,6.3395858 0 0 0 -3.30882,-0.77317 z" />
    <path
       id="path11-9"
       style="fill:#0000ff;fill-opacity:1;stroke-width:1.665"
       d="m 63.054083,124.30878 a 6.9159117,6.3395858 45 0 0 -4.604472,-2.13585 50,50 0 0 0 5.680261,10.70828 6.9159117,6.3395858 45 0 0 -1.075771,-8.57246 z" />
    <path
       id="path11-9-7"
       style="fill:#0000ff;fill-opacity:1;stroke-width:1.665"
       d="m 59.746427,83.292509 a 50,50 0 0 0 -3.466263,10.326415 6.9159117,6.3395858 45 0 0 3.253218,-1.656379 6.9159117,6.3395858 45 0 0 0.213045,-8.670036 z" />
    <path
       id="path11-9-5"
       style="fill:#0000ff;fill-opacity:1;stroke-width:1.665"
       d="m 126.69641,59.964162 a 50,50 0 0 0 -0.28284,-0.137402 50,50 0 0 0 -0.30184,-0.130038 50,50 0 0 0 -5.55712,-2.246526 50,50 0 0 0 -0.65555,-0.195128 50,50 0 0 0 -4.30487,-1.179172 6.9159117,6.3395858 45 0 0 1.91803,3.300728 6.9159117,6.3395858 45 0 0 9.18414,0.587572 z" />
    <path
       id="path11-50-9"
       style="fill:#0000ff;fill-opacity:1;stroke-width:1.665"
       d="m 150.76861,116.98499 a 6.3395858,6.9159117 45 0 0 -0.83017,8.90139 50,50 0 0 0 2.30172,-5.56188 50,50 0 0 0 0.25986,-0.68466 50,50 0 0 0 0.85722,-3.23899 50,50 0 0 0 0.29822,-1.20872 6.3395858,6.9159117 45 0 0 -2.88641,1.79302 z" />
    <path
       id="path11-50-8"
       style="fill:#0000ff;fill-opacity:1;stroke-width:1.665"
       d="m 146.65595,82.189993 a 6.3395858,6.9159117 0 0 0 5.70714,6.881234 50,50 0 0 0 -2.30532,-5.560379 50,50 0 0 0 -0.3007,-0.66767 50,50 0 0 0 -1.68416,-2.89643 50,50 0 0 0 -0.64386,-1.065592 6.3395858,6.9159117 0 0 0 -0.77307,3.308819 z" />
    <rect
       style="fill:#ffff00;fill-opacity:1;stroke-width:2.58724"
       id="rect11"
       width="20"
       height="20"
       x="138.20827"
       y="-9.7233791"
       transform="rotate(45)" />
    <rect
       style="fill:#ffffff;fill-opacity:1;stroke:#000000;stroke-width:1.63286;stroke-opacity:1"
       id="rect12"
       width="18.367134"
       height="8.3671379"
       x="90.816429"
       y="270.81644" />
    <text
       xml:space="preserve"
       style="font-style:normal;font-variant:normal;font-weight:bold;font-stretch:normal;font-size:6.35px;font-family:sans-serif;-inkscape-font-specification:'sans-serif Bold';writing-mode:lr-tb;direction:ltr;fill:#000000;fill-opacity:1;stroke:none;stroke-width:1.665;stroke-opacity:1"
       x="113.13634"
       y="276.62109"
       id="text12"><tspan
         sodipodi:role="line"
         id="tspan12"
         style="fill:#000000;fill-opacity:1;stroke-width:1.665"
         x="113.13634"
         y="276.62109">COMBUSTION CHAMBERS</tspan></text>
    <text
       xml:space="preserve"
       style="font-style:normal;font-variant:normal;font-weight:bold;font-stretch:normal;font-size:6.35px;font-family:sans-serif;-inkscape-font-specification:'sans-serif Bold';writing-mode:lr-tb;direction:ltr;fill:#ff5d00;fill-opacity:1;stroke:#fff209;stroke-width:1.665;stroke-opacity:1"
       x="116.5443"
       y="198.52037"
       id="text13"><tspan
         sodipodi:role="line"
         id="tspan13"
         style="stroke-width:1.665"
         x="116.5443"
         y="198.52037" /></text>
  </g>
  <g
     inkscape:groupmode="layer"
     id="layer2"
     inkscape:label="FIXED CASING">
    <path
       id="path2-1-3"
       style="fill:#2b0000;fill-opacity:1;stroke-width:2.00392"
       d="M 105.02753,24.30093 A 80,80 0 0 0 35.745454,64.301072 80,80 0 0 0 65.027904,173.58329 80,80 0 0 0 174.3096,144.30136 80,80 0 0 0 145.02767,35.019139 80,80 0 0 0 105.02753,24.30093 Z m 0.23254,11.969295 a 7.5614737,5 60 0 1 6.16603,4.506185 l 9.26094,16.040365 a 50,50 0 0 1 9.34051,4.183207 50,50 0 0 1 2.30374,1.414384 V 52.48629 a 5,7.5614737 0 0 1 4.99969,-7.560779 5,7.5614737 0 0 1 5.00021,7.560779 v 18.52135 a 50,50 0 0 1 7.28535,10.669631 l 4.96404,-8.597406 a 5,7.5614737 30 0 1 8.11009,-4.047815 5,7.5614737 30 0 1 0.54984,9.048031 l -9.26041,16.03933 a 50,50 0 0 1 0,5.1e-4 50,50 0 0 1 0.97461,12.882929 l 8.59741,-4.96352 a 5,7.5614737 60 0 1 9.04751,0.54932 5,7.5614737 60 0 1 -4.04781,8.11061 l -16.03882,9.2599 a 50,50 0 0 1 -4.18372,9.34207 50,50 0 0 1 -1.41387,2.30322 h 9.92653 a 7.5614737,5 0 0 1 1.95698,0.17053 7.5614737,5 0 0 1 1.82366,0.49919 7.5614737,5 0 0 1 2.21796,1.28623 7.5614737,5 0 0 1 0.54932,0.54415 7.5614737,5 0 0 1 0.75551,1.20561 7.5614737,5 0 0 1 0.25786,1.29398 7.5614737,5 0 0 1 -0.0646,0.65267 7.5614737,5 0 0 1 -0.51108,1.26039 7.5614737,5 0 0 1 0,5.2e-4 7.5614737,5 0 0 1 -2.38229,2.0531 7.5614737,5 0 0 1 -1.70945,0.65268 7.5614737,5 0 0 1 -2.89388,0.38085 h -18.5198 a 50,50 0 0 1 -10.67015,7.28587 l 8.59637,4.96352 a 7.5614737,5 30 0 1 4.04833,8.1101 7.5614737,5 30 0 1 -9.04802,0.54984 l -16.03882,-9.2599 a 50,50 0 0 1 -12.88397,0.97462 l 4.96353,8.59689 a 7.5614737,5 60 0 1 -0.54933,9.04803 7.5614737,5 60 0 1 -8.110606,-4.04834 l -9.26042,-16.03881 a 50,50 0 0 1 -9.34155,-4.18372 50,50 0 0 1 -2.30322,-1.41439 v 9.92705 a 5,7.5614737 0 0 1 -4.99969,7.56129 5,7.5614737 0 0 1 -5.00021,-7.56129 v -18.52033 a 50,50 0 0 1 -7.28586,-10.67015 l -4.96352,8.59689 a 5,7.5614737 30 0 1 -8.11062,4.04833 5,7.5614737 30 0 1 -0.54932,-9.04802 l 9.2599,-16.03882 a 50,50 0 0 1 0,-5.2e-4 50,50 0 0 1 -0.97462,-12.88345 l -8.59689,4.96352 a 5,7.5614737 60 0 1 -9.04802,-0.54932 5,7.5614737 60 0 1 4.04781,-8.110599 l 16.03985,-9.26094 a 50,50 0 0 1 4.18321,-9.34051 50,50 0 0 1 1.4149,-2.30374 h -9.92808 a 7.5614737,5 0 0 1 -7.56078,-4.999691 7.5614737,5 0 0 1 7.56078,-5.000212 h 18.52135 a 50,50 0 0 1 10.67015,-7.285343 l -8.59741,-4.964038 a 7.5614737,5 30 0 1 -4.04833,-8.110616 7.5614737,5 30 0 1 4.54494,-1.955953 7.5614737,5 30 0 1 4.50309,1.406632 l 16.03984,9.260417 A 50,50 0 0 1 107.7302,54.374546 l -4.96404,-8.597924 a 7.5614737,5 60 0 1 0.54932,-9.048027 7.5614737,5 60 0 1 1.94458,-0.45837 z" />
  </g>
</svg>
