<?xml version="1.0" encoding="UTF-8" standalone="no"?>
<!-- Created with Inkscape (http://www.inkscape.org/) -->

<svg
   width="210mm"
   height="297mm"
   viewBox="0 0 210 297"
   version="1.1"
   id="svg1"
   inkscape:version="1.4.3 (0d15f75, 2025-12-25)"
   sodipodi:docname="IMG1.svg"
   xmlns:inkscape="http://www.inkscape.org/namespaces/inkscape"
   xmlns:sodipodi="http://sodipodi.sourceforge.net/DTD/sodipodi-0.dtd"
   xmlns:xlink="http://www.w3.org/1999/xlink"
   xmlns="http://www.w3.org/2000/svg"
   xmlns:svg="http://www.w3.org/2000/svg">
  <sodipodi:namedview
     id="namedview1"
     pagecolor="#ffffff"
     bordercolor="#000000"
     borderopacity="0.25"
     inkscape:showpageshadow="2"
     inkscape:pageopacity="0.0"
     inkscape:pagecheckerboard="0"
     inkscape:deskcolor="#d1d1d1"
     inkscape:document-units="mm"
     inkscape:zoom="0.61594576"
     inkscape:cx="800.39516"
     inkscape:cy="471.63244"
     inkscape:window-width="1920"
     inkscape:window-height="991"
     inkscape:window-x="-9"
     inkscape:window-y="-9"
     inkscape:window-maximized="1"
     inkscape:current-layer="layer1" />
  <defs
     id="defs1">
    <linearGradient
       id="linearGradient12"
       inkscape:collect="always">
      <stop
         style="stop-color:#ff3d00;stop-opacity:1;"
         offset="0"
         id="stop12" />
      <stop
         style="stop-color:#cbba00;stop-opacity:0.75423729;"
         offset="1"
         id="stop13" />
    </linearGradient>
    <linearGradient
       inkscape:collect="always"
       xlink:href="#linearGradient12"
       id="linearGradient13"
       x1="12.429228"
       y1="9.8185291"
       x2="48.445654"
       y2="9.8185291"
       gradientUnits="userSpaceOnUse" />
    <linearGradient
       inkscape:collect="always"
       xlink:href="#linearGradient12"
       id="linearGradient13-5"
       x1="12.429228"
       y1="9.8185291"
       x2="48.445656"
       y2="9.8185291"
       gradientUnits="userSpaceOnUse" />
    <linearGradient
       inkscape:collect="always"
       xlink:href="#linearGradient12"
       id="linearGradient13-4"
       x1="12.429228"
       y1="9.8185291"
       x2="48.445656"
       y2="9.8185291"
       gradientUnits="userSpaceOnUse" />
    <linearGradient
       inkscape:collect="always"
       xlink:href="#linearGradient12"
       id="linearGradient13-7"
       x1="12.429228"
       y1="9.8185291"
       x2="48.445656"
       y2="9.8185291"
       gradientUnits="userSpaceOnUse" />
    <linearGradient
       inkscape:collect="always"
       xlink:href="#linearGradient12"
       id="linearGradient13-7-2"
       x1="12.429228"
       y1="9.8185291"
       x2="48.445656"
       y2="9.8185291"
       gradientUnits="userSpaceOnUse" />
  </defs>
  <g
     inkscape:label="Layer 1"
     inkscape:groupmode="layer"
     id="layer1">
    <path
       id="path1-8-4"
       style="fill:#ff0000;fill-opacity:1;stroke-width:1.45419"
       d="m 55.000144,101.90727 0.0462,-0.0456 a 50,50 0 0 1 4.9e-4,-0.0134 l -0.0454,0.0451 a 50,50 0 0 0 -5e-4,0.0134 z m 0.0464,-0.0591 12.58523,-12.585199 a 5,7.5614737 45 0 1 0.33218,-0.31946 l 0.11707,-0.11816 a 5,7.5614737 45 0 1 8.882676,-1.81074 5,7.5614737 45 0 1 -1.81187,8.88204 L 56.059614,114.98902 a 50,50 0 0 0 11.25286,22.14024 l -3e-5,-17.29913 a 5,7.5614737 0 0 1 0.009,-0.46045 l 2.6e-4,-0.16674 a 5,7.5614737 0 0 1 5.00032,-7.56122 5,7.5614737 0 0 1 4.999626,7.56127 l 4e-4,26.64063 a 50,50 0 0 0 24.54625,8.17817 L 89.28297,141.43651 a 7.5614737,5 45 0 1 -0.31922,-0.33196 l -0.11779,-0.1178 a 7.5614737,5 45 0 1 -1.8108,-8.88221 7.5614737,5 45 0 1 8.88219,1.81133 l 19.14398,19.14394 a 50,50 0 0 0 11.55326,-3.96723 50,50 0 0 0 0.66764,-0.3007 50,50 0 0 0 2.89679,-1.68401 50,50 0 0 0 7.47556,-5.37535 l -17.79848,-4e-5 a 7.5614737,5 0 0 1 -0.46043,-0.009 l -0.16629,1.7e-4 a 7.5614737,5 0 0 1 -7.56129,-5.00025 7.5614737,5 0 0 1 7.56134,-4.99971 l 27.07377,2.2e-4 a 50,50 0 0 0 8.05883,-24.0007 l -12.36984,12.36968 a 5,7.5614737 45 0 1 -0.33196,0.31923 l -0.11837,0.11721 a 5,7.5614737 45 0 1 -8.8821,1.81075 5,7.5614737 45 0 1 1.81128,-8.8817 l 18.9268,-18.927569 a 50,50 0 0 0 -0.16332,-0.82164 50,50 0 0 0 -1.20064,-4.49241 50,50 0 0 0 -0.10127,-0.29921 50,50 0 0 0 -7.71123,-14.594938 50,50 0 0 0 -2.20447,-2.6655 l 6.8e-4,17.453908 a 5,7.5614737 0 0 1 -0.009,0.46045 l 2.4e-4,0.16642 a 5,7.5614737 0 0 1 -5.00031,7.56128 5,7.5614737 0 0 1 -4.99962,-7.5618 l 1.6e-4,-26.728041 a 50,50 0 0 0 -8.00781,-4.261682 50,50 0 0 0 -0.95389,-0.361303 50,50 0 0 0 -4.70768,-1.604061 50,50 0 0 0 -2.28877,-0.563271 50,50 0 0 0 -3.49696,-0.701286 50,50 0 0 0 -3.65406,-0.441776 50,50 0 0 0 -1.01852,-0.076 l 12.53152,12.531502 a 7.5614737,5 45 0 1 0.31921,0.331931 l 0.11725,0.118059 a 7.5614737,5 45 0 1 1.8112,8.882158 7.5614737,5 45 0 1 -8.88206,-1.81125 L 94.6452,55.919379 a 50,50 0 0 0 -6.16141,1.719791 50,50 0 0 0 -0.30568,0.121742 50,50 0 0 0 -5.51801,2.340916 50,50 0 0 0 -0.60155,0.325579 50,50 0 0 0 -4.91435,2.882 50,50 0 0 0 -0.56279,0.394332 50,50 0 0 0 -4.566576,3.541414 50,50 0 0 0 -0.16679,0.147891 l 17.362676,-2.6e-5 a 7.5614737,5 0 0 1 0.46043,0.009 l 0.16648,5.3e-5 a 7.5614737,5 0 0 1 7.56119,5.000162 7.5614737,5 0 0 1 -7.56125,4.999618 l -26.662816,6e-5 a 50,50 0 0 0 -0.11943,0.17873 50,50 0 0 0 -3.04838,5.37695 50,50 0 0 0 -0.0951,0.19228 50,50 0 0 0 -2.41121,5.94228 50,50 0 0 0 -3.8e-4,9.1e-4 50,50 0 0 0 -7e-5,9.7e-4 50,50 0 0 0 -2.45458,12.752719 z m 82.607816,39.88493 0.13853,6e-5 a 50,50 0 0 0 0.01,-0.009 l -0.13873,4.1e-4 a 50,50 0 0 1 -0.01,0.009 z m -35.78583,12.28866 0.14207,0.14207 a 50,50 0 0 0 0.0134,5e-4 l -0.14261,-0.14261 a 50,50 0 0 1 -0.0134,-5e-4 z" />
    <path
       sodipodi:type="star"
       style="fill:url(#linearGradient13-4);fill-opacity:1;stroke:#fff209;stroke-width:1.665;stroke-opacity:1"
       id="path12-3"
       inkscape:flatsided="false"
       sodipodi:sides="8"
       sodipodi:cx="30.437441"
       sodipodi:cy="9.8185291"
       sodipodi:r1="16.25997"
       sodipodi:r2="8.1299849"
       sodipodi:arg1="0.50416596"
       sodipodi:arg2="0.89686504"
       inkscape:rounded="0"
       inkscape:randomized="0"
       d="m 44.674308,17.673352 -9.163248,-1.502261 -0.560833,9.268622 -5.417135,-7.541654 -6.950474,6.157337 1.502261,-9.163247 -9.268622,-0.560833 7.541654,-5.4171354 -6.157337,-6.9504744 9.163247,1.5022614 0.560834,-9.268622 5.417134,7.5416534 6.950475,-6.1573365 -1.502262,9.1632471 9.268622,0.5608332 -7.541653,5.4171352 z"
       transform="matrix(0.49566682,0,0,0.49566682,103.27071,132.29373)" />
    <path
       sodipodi:type="star"
       style="fill:url(#linearGradient13-7);fill-opacity:1;stroke:#fff209;stroke-width:1.665;stroke-opacity:1"
       id="path12-38"
       inkscape:flatsided="false"
       sodipodi:sides="8"
       sodipodi:cx="30.437441"
       sodipodi:cy="9.8185291"
       sodipodi:r1="16.25997"
       sodipodi:r2="8.1299849"
       sodipodi:arg1="0.50416596"
       sodipodi:arg2="0.89686504"
       inkscape:rounded="0"
       inkscape:randomized="0"
       d="m 44.674308,17.673352 -9.163248,-1.502261 -0.560833,9.268622 -5.417135,-7.541654 -6.950474,6.157337 1.502261,-9.163247 -9.268622,-0.560833 7.541654,-5.4171354 -6.157337,-6.9504744 9.163247,1.5022614 0.560834,-9.268622 5.417134,7.5416534 6.950475,-6.1573365 -1.502262,9.1632471 9.268622,0.5608332 -7.541653,5.4171352 z"
       transform="matrix(0.49566682,0,0,0.49566682,121.9727,85.803474)" />
    <path
       sodipodi:type="star"
       style="fill:url(#linearGradient13-7-2);fill-opacity:1;stroke:#fff209;stroke-width:1.665;stroke-opacity:1"
       id="path12-38-9"
       inkscape:flatsided="false"
       sodipodi:sides="8"
       sodipodi:cx="30.437441"
       sodipodi:cy="9.8185291"
       sodipodi:r1="16.25997"
       sodipodi:r2="8.1299849"
       sodipodi:arg1="0.50416596"
       sodipodi:arg2="0.89686504"
       inkscape:rounded="0"
       inkscape:randomized="0"
       d="m 44.674308,17.673352 -9.163248,-1.502261 -0.560833,9.268622 -5.417135,-7.541654 -6.950474,6.157337 1.502261,-9.163247 -9.268622,-0.560833 7.541654,-5.4171354 -6.157337,-6.9504744 9.163247,1.5022614 0.560834,-9.268622 5.417134,7.5416534 6.950475,-6.1573365 -1.502262,9.1632471 9.268622,0.5608332 -7.541653,5.4171352 z"
       transform="matrix(0.49566682,0,0,0.49566682,85.4566,195.01046)" />
    <path
       id="path1-8-4-5"
       style="fill:#0000ff;fill-opacity:1;stroke-width:1.45419"
       d="m 59.426064,84.186571 a 50,50 0 0 0 -1.92547,4.90564 50,50 0 0 0 -5.2e-4,10e-4 50,50 0 0 0 0,0.001 50,50 0 0 0 -1.49499,5.55831 6.9159117,6.3395858 0 0 0 5.26479,-6.15621 6.9159117,6.3395858 0 0 0 -1.84381,-4.30981 z" />
    <rect
       style="fill:#ff3838;fill-opacity:1;stroke-width:1.99254"
       id="rect4"
       width="20"
       height="10"
       x="90"
       y="210" />
    <rect
       style="fill:#ffe300;fill-opacity:1;stroke-width:1.93028"
       id="rect5"
       width="20"
       height="10"
       x="90"
       y="225" />
    <rect
       style="fill:#000caa;fill-opacity:1;stroke-width:1.93028"
       id="rect5-8"
       width="20"
       height="10"
       x="90"
       y="240" />
    <rect
       style="fill:#00aa05;fill-opacity:1;stroke-width:1.93028"
       id="rect5-8-5"
       width="20"
       height="10"
       x="90"
       y="255" />
    <text
       xml:space="preserve"
       style="font-size:6.35px;writing-mode:lr-tb;direction:ltr;fill:#00aa05;fill-opacity:1;stroke-width:1.665"
       x="150.22897"
       y="214.39328"
       id="text7"><tspan
         sodipodi:role="line"
         id="tspan7"
         style="stroke-width:1.665"
         x="150.22897"
         y="214.39328" /></text>
    <text
       xml:space="preserve"
       style="font-style:normal;font-variant:normal;font-weight:bold;font-stretch:normal;font-size:6.35px;font-family:sans-serif;-inkscape-font-specification:'sans-serif Bold';writing-mode:lr-tb;direction:ltr;fill:#000000;fill-opacity:1;stroke-width:1.665"
       x="114.84375"
       y="217.08278"
       id="text8"><tspan
         sodipodi:role="line"
         id="tspan8"
         style="stroke-width:1.665"
         x="114.84375"
         y="217.08278">PISTON/TURBINE</tspan></text>
    <text
       xml:space="preserve"
       style="font-style:normal;font-variant:normal;font-weight:bold;font-stretch:normal;font-size:6.35px;font-family:sans-serif;-inkscape-font-specification:'sans-serif Bold';writing-mode:lr-tb;direction:ltr;fill:#000000;fill-opacity:1;stroke-width:1.665"
       x="115.08313"
       y="202.2475"
       id="text8-3"><tspan
         sodipodi:role="line"
         id="tspan8-2"
         style="stroke-width:1.665"
         x="115.08313"
         y="202.2475">COMBUSTION EVENT</tspan></text>
    <text
       xml:space="preserve"
       style="font-style:normal;font-variant:normal;font-weight:bold;font-stretch:normal;font-size:6.35px;font-family:sans-serif;-inkscape-font-specification:'sans-serif Bold';writing-mode:lr-tb;direction:ltr;fill:#000000;fill-opacity:1;stroke-width:1.665"
       x="113.70312"
       y="232.45148"
       id="text9"><tspan
         sodipodi:role="line"
         id="tspan9"
         style="stroke-width:1.665"
         x="113.70312"
         y="232.45148">DRIVE SHAFT</tspan></text>
    <text
       xml:space="preserve"
       style="font-style:normal;font-variant:normal;font-weight:bold;font-stretch:normal;font-size:6.35px;font-family:sans-serif;-inkscape-font-specification:'sans-serif Bold';writing-mode:lr-tb;direction:ltr;fill:#000000;fill-opacity:1;stroke-width:1.665"
       x="116"
       y="248.20438"
       id="text10"><tspan
         sodipodi:role="line"
         id="tspan10"
         style="stroke-width:1.665"
         x="116"
         y="248.20438">OUTER CASING VENT</tspan></text>
    <text
       xml:space="preserve"
       style="font-style:normal;font-variant:normal;font-weight:bold;font-stretch:normal;font-size:6.35px;font-family:sans-serif;-inkscape-font-specification:'sans-serif Bold';writing-mode:lr-tb;direction:ltr;fill:#000000;fill-opacity:1;stroke-width:1.665"
       x="114.07812"
       y="262.42044"
       id="text11"><tspan
         sodipodi:role="line"
         id="tspan11"
         style="stroke-width:1.665"
         x="114.07812"
         y="262.42044">FIXED OUTER CASING</tspan></text>
    <path
       id="path11-50"
       style="fill:#0000ff;fill-opacity:1;stroke-width:1.665"
       d="m 127.93557,145.69082 a 6.9159117,6.3395858 0 0 0 -6.88123,5.70715 50,50 0 0 0 5.56038,-2.30529 50,50 0 0 0 0.66766,-0.30075 50,50 0 0 0 2.89646,-1.68414 50,50 0 0 0 1.06557,-0.64389 6.9159117,6.3395858 0 0 0 -3.30884,-0.77308 z" />
    <path
       id="path11-50-3"
       style="fill:#0000ff;fill-opacity:1;stroke-width:1.665"
       d="m 150.42607,117.26622 a 6.3395858,6.9159117 45 0 0 -0.83019,8.90137 50,50 0 0 0 2.3017,-5.56186 50,50 0 0 0 0.25948,-0.6848 50,50 0 0 0 0.85722,-3.23899 50,50 0 0 0 0.2982,-1.20871 6.3395858,6.9159117 45 0 0 -2.88641,1.79299 z" />
    <path
       id="path11-9"
       style="fill:#0000ff;fill-opacity:1;stroke-width:1.665"
       d="m 89.27746,148.03693 a 6.9159117,6.3395858 0 0 0 -4.76611,1.74563 50,50 0 0 0 11.58844,3.55534 6.9159117,6.3395858 0 0 0 -6.82233,-5.30097 z" />
    <path
       id="path11-9-7"
       style="fill:#0000ff;fill-opacity:1;stroke-width:1.665"
       d="m 57.935714,121.37293 a 50,50 0 0 0 4.85086,9.75289 6.9159117,6.3395858 0 0 0 1.12913,-3.47162 6.9159117,6.3395858 0 0 0 -5.97999,-6.28127 z" />
    <path
       id="path11-9-5"
       style="fill:#0000ff;fill-opacity:1;stroke-width:1.665"
       d="m 88.78085,57.536515 a 50,50 0 0 0 -0.29714,0.102836 50,50 0 0 0 -0.3054,0.12144 50,50 0 0 0 -5.51801,2.340942 50,50 0 0 0 -0.60152,0.325562 50,50 0 0 0 -3.8778,2.210201 6.9159117,6.3395858 0 0 0 3.69022,0.977718 6.9159117,6.3395858 0 0 0 6.90965,-6.078699 z" />
    <path
       id="path11-50-9"
       style="fill:#0000ff;fill-opacity:1;stroke-width:1.665"
       d="m 146.1223,80.834711 a 6.3395858,6.9159117 0 0 0 5.70718,6.88126 50,50 0 0 0 -2.30528,-5.56039 50,50 0 0 0 -0.30074,-0.66771 50,50 0 0 0 -1.68418,-2.89645 50,50 0 0 0 -0.64383,-1.06555 6.3395858,6.9159117 0 0 0 -0.77315,3.30884 z" />
    <path
       id="path11-50-8"
       style="fill:#0000ff;fill-opacity:1;stroke-width:1.665"
       d="m 118.61043,59.139016 a 6.9159117,6.3395858 45 0 0 8.90132,0.830212 50,50 0 0 0 -5.56187,-2.301686 50,50 0 0 0 -0.68475,-0.259479 50,50 0 0 0 -3.23897,-0.857206 50,50 0 0 0 -1.20876,-0.29821 6.9159117,6.3395858 45 0 0 1.79304,2.886331 z" />
    <rect
       style="fill:#ffff00;fill-opacity:1;stroke-width:2.58724"
       id="rect11"
       width="20"
       height="20"
       x="95.00016"
       y="94.999954" />
    <rect
       style="fill:#ffffff;fill-opacity:1;stroke:#000000;stroke-width:1.63286;stroke-opacity:1"
       id="rect12"
       width="18.367134"
       height="8.3671379"
       x="90.816429"
       y="270.81644" />
    <text
       xml:space="preserve"
       style="font-style:normal;font-variant:normal;font-weight:bold;font-stretch:normal;font-size:6.35px;font-family:sans-serif;-inkscape-font-specification:'sans-serif Bold';writing-mode:lr-tb;direction:ltr;fill:#000000;fill-opacity:1;stroke:none;stroke-width:1.665;stroke-opacity:1"
       x="113.13634"
       y="276.62109"
       id="text12"><tspan
         sodipodi:role="line"
         id="tspan12"
         style="fill:#000000;fill-opacity:1;stroke-width:1.665"
         x="113.13634"
         y="276.62109">COMBUSTION CHAMBERS</tspan></text>
    <path
       sodipodi:type="star"
       style="fill:url(#linearGradient13);fill-opacity:1;stroke:#fff209;stroke-width:1.665;stroke-opacity:1"
       id="path12"
       inkscape:flatsided="false"
       sodipodi:sides="8"
       sodipodi:cx="30.437441"
       sodipodi:cy="9.8185291"
       sodipodi:r1="16.25997"
       sodipodi:r2="8.1299849"
       sodipodi:arg1="0.50416596"
       sodipodi:arg2="0.89686504"
       inkscape:rounded="0"
       inkscape:randomized="0"
       d="m 44.674308,17.673352 -9.163248,-1.502261 -0.560833,9.268622 -5.417135,-7.541654 -6.950474,6.157337 1.502261,-9.163247 -9.268622,-0.560833 7.541654,-5.4171354 -6.157337,-6.9504744 9.163247,1.5022614 0.560834,-9.268622 5.417134,7.5416534 6.950475,-6.1573365 -1.502262,9.1632471 9.268622,0.5608332 -7.541653,5.4171352 z"
       transform="matrix(0.49566682,0,0,0.49566682,75.993085,66.861197)" />
    <path
       sodipodi:type="star"
       style="fill:url(#linearGradient13-5);fill-opacity:1;stroke:#fff209;stroke-width:1.665;stroke-opacity:1"
       id="path12-7"
       inkscape:flatsided="false"
       sodipodi:sides="8"
       sodipodi:cx="30.437441"
       sodipodi:cy="9.8185291"
       sodipodi:r1="16.25997"
       sodipodi:r2="8.1299849"
       sodipodi:arg1="0.50416596"
       sodipodi:arg2="0.89686504"
       inkscape:rounded="0"
       inkscape:randomized="0"
       d="m 44.674308,17.673352 -9.163248,-1.502261 -0.560833,9.268622 -5.417135,-7.541654 -6.950474,6.157337 1.502261,-9.163247 -9.268622,-0.560833 7.541654,-5.4171354 -6.157337,-6.9504744 9.163247,1.5022614 0.560834,-9.268622 5.417134,7.5416534 6.950475,-6.1573365 -1.502262,9.1632471 9.268622,0.5608332 -7.541653,5.4171352 z"
       transform="matrix(0.49566682,0,0,0.49566682,57.382284,113.68176)" />
    <text
       xml:space="preserve"
       style="font-style:normal;font-variant:normal;font-weight:bold;font-stretch:normal;font-size:6.35px;font-family:sans-serif;-inkscape-font-specification:'sans-serif Bold';writing-mode:lr-tb;direction:ltr;fill:#ff5d00;fill-opacity:1;stroke:#fff209;stroke-width:1.665;stroke-opacity:1"
       x="116.5443"
       y="198.52037"
       id="text13"><tspan
         sodipodi:role="line"
         id="tspan13"
         style="stroke-width:1.665"
         x="116.5443"
         y="198.52037" /></text>
  </g>
  <g
     inkscape:groupmode="layer"
     id="layer2"
     inkscape:label="FIXED CASING">
    <path
       id="path2-1-3"
       style="fill:#2b0000;fill-opacity:1;stroke-width:2.00392"
       d="M 105.02753,24.30093 A 80,80 0 0 0 35.745454,64.301072 80,80 0 0 0 65.027904,173.58329 80,80 0 0 0 174.3096,144.30136 80,80 0 0 0 145.02767,35.019139 80,80 0 0 0 105.02753,24.30093 Z m 0.23254,11.969295 a 7.5614737,5 60 0 1 6.16603,4.506185 l 9.26094,16.040365 a 50,50 0 0 1 9.34051,4.183207 50,50 0 0 1 2.30374,1.414384 V 52.48629 a 5,7.5614737 0 0 1 4.99969,-7.560779 5,7.5614737 0 0 1 5.00021,7.560779 v 18.52135 a 50,50 0 0 1 7.28535,10.669631 l 4.96404,-8.597406 a 5,7.5614737 30 0 1 8.11009,-4.047815 5,7.5614737 30 0 1 0.54984,9.048031 l -9.26041,16.03933 a 50,50 0 0 1 0,5.1e-4 50,50 0 0 1 0.97461,12.882929 l 8.59741,-4.96352 a 5,7.5614737 60 0 1 9.04751,0.54932 5,7.5614737 60 0 1 -4.04781,8.11061 l -16.03882,9.2599 a 50,50 0 0 1 -4.18372,9.34207 50,50 0 0 1 -1.41387,2.30322 h 9.92653 a 7.5614737,5 0 0 1 1.95698,0.17053 7.5614737,5 0 0 1 1.82366,0.49919 7.5614737,5 0 0 1 2.21796,1.28623 7.5614737,5 0 0 1 0.54932,0.54415 7.5614737,5 0 0 1 0.75551,1.20561 7.5614737,5 0 0 1 0.25786,1.29398 7.5614737,5 0 0 1 -0.0646,0.65267 7.5614737,5 0 0 1 -0.51108,1.26039 7.5614737,5 0 0 1 0,5.2e-4 7.5614737,5 0 0 1 -2.38229,2.0531 7.5614737,5 0 0 1 -1.70945,0.65268 7.5614737,5 0 0 1 -2.89388,0.38085 h -18.5198 a 50,50 0 0 1 -10.67015,7.28587 l 8.59637,4.96352 a 7.5614737,5 30 0 1 4.04833,8.1101 7.5614737,5 30 0 1 -9.04802,0.54984 l -16.03882,-9.2599 a 50,50 0 0 1 -12.88397,0.97462 l 4.96353,8.59689 a 7.5614737,5 60 0 1 -0.54933,9.04803 7.5614737,5 60 0 1 -8.110606,-4.04834 l -9.26042,-16.03881 a 50,50 0 0 1 -9.34155,-4.18372 50,50 0 0 1 -2.30322,-1.41439 v 9.92705 a 5,7.5614737 0 0 1 -4.99969,7.56129 5,7.5614737 0 0 1 -5.00021,-7.56129 v -18.52033 a 50,50 0 0 1 -7.28586,-10.67015 l -4.96352,8.59689 a 5,7.5614737 30 0 1 -8.11062,4.04833 5,7.5614737 30 0 1 -0.54932,-9.04802 l 9.2599,-16.03882 a 50,50 0 0 1 0,-5.2e-4 50,50 0 0 1 -0.97462,-12.88345 l -8.59689,4.96352 a 5,7.5614737 60 0 1 -9.04802,-0.54932 5,7.5614737 60 0 1 4.04781,-8.110599 l 16.03985,-9.26094 a 50,50 0 0 1 4.18321,-9.34051 50,50 0 0 1 1.4149,-2.30374 h -9.92808 a 7.5614737,5 0 0 1 -7.56078,-4.999691 7.5614737,5 0 0 1 7.56078,-5.000212 h 18.52135 a 50,50 0 0 1 10.67015,-7.285343 l -8.59741,-4.964038 a 7.5614737,5 30 0 1 -4.04833,-8.110616 7.5614737,5 30 0 1 4.54494,-1.955953 7.5614737,5 30 0 1 4.50309,1.406632 l 16.03984,9.260417 A 50,50 0 0 1 107.7302,54.374546 l -4.96404,-8.597924 a 7.5614737,5 60 0 1 0.54932,-9.048027 7.5614737,5 60 0 1 1.94458,-0.45837 z" />
  </g>
</svg>
