<?xml version="1.0" encoding="UTF-8" standalone="no"?>
<!-- Created with Inkscape (http://www.inkscape.org/) -->

<svg
   width="210mm"
   height="297mm"
   viewBox="0 0 210 297"
   version="1.1"
   id="svg1"
   inkscape:version="1.4.3 (0d15f75, 2025-12-25)"
   sodipodi:docname="IMG10.svg"
   xmlns:inkscape="http://www.inkscape.org/namespaces/inkscape"
   xmlns:sodipodi="http://sodipodi.sourceforge.net/DTD/sodipodi-0.dtd"
   xmlns:xlink="http://www.w3.org/1999/xlink"
   xmlns="http://www.w3.org/2000/svg"
   xmlns:svg="http://www.w3.org/2000/svg">
  <sodipodi:namedview
     id="namedview1"
     pagecolor="#ffffff"
     bordercolor="#000000"
     borderopacity="0.25"
     inkscape:showpageshadow="2"
     inkscape:pageopacity="0.0"
     inkscape:pagecheckerboard="0"
     inkscape:deskcolor="#d1d1d1"
     inkscape:document-units="mm"
     inkscape:zoom="0.61594576"
     inkscape:cx="800.39516"
     inkscape:cy="471.63244"
     inkscape:window-width="1920"
     inkscape:window-height="991"
     inkscape:window-x="-9"
     inkscape:window-y="-9"
     inkscape:window-maximized="1"
     inkscape:current-layer="layer1" />
  <defs
     id="defs1">
    <linearGradient
       id="linearGradient12"
       inkscape:collect="always">
      <stop
         style="stop-color:#ff3d00;stop-opacity:1;"
         offset="0"
         id="stop12" />
      <stop
         style="stop-color:#cbba00;stop-opacity:0.75423729;"
         offset="1"
         id="stop13" />
    </linearGradient>
    <linearGradient
       inkscape:collect="always"
       xlink:href="#linearGradient12"
       id="linearGradient13-7-2"
       x1="12.429228"
       y1="9.8185291"
       x2="48.445656"
       y2="9.8185291"
       gradientUnits="userSpaceOnUse" />
  </defs>
  <g
     inkscape:label="Layer 1"
     inkscape:groupmode="layer"
     id="layer1">
    <path
       id="path1-8-4"
       style="fill:#ff0000;fill-opacity:1;stroke-width:1.45419"
       d="m 68.32853,70.499701 0.0647,-0.0052 a 50,50 0 0 1 0.0091,-0.0099 l -0.06376,0.0054 a 50,50 0 0 0 -0.0091,0.0099 z m 0.07353,-0.01545 17.730455,-1.551191 a 5,7.5614737 85 0 1 0.45981,-0.0312 l 0.165635,-0.01527 a 5,7.5614737 85 0 1 7.968447,4.322567 5,7.5614737 85 0 1 -7.097241,5.639389 L 60.731335,81.201902 A 50,50 0 0 0 55.120051,105.39551 L 66.239699,92.143586 a 5,7.5614737 40 0 1 0.302865,-0.346934 l 0.107386,-0.127563 a 5,7.5614737 40 0 1 8.690724,-2.578086 5,7.5614737 40 0 1 -1.030352,9.005959 L 57.186366,118.50513 a 50,50 0 0 0 13.54668,22.04289 l -1.551255,-17.73059 a 7.5614737,5 85 0 1 -0.03116,-0.45948 l -0.0145,-0.16596 a 7.5614737,5 85 0 1 4.322219,-7.96813 7.5614737,5 85 0 1 5.639853,7.09693 l 2.359644,26.97061 a 50,50 0 0 0 11.40042,4.38722 50,50 0 0 0 0.704607,0.19918 50,50 0 0 0 3.301529,0.57199 50,50 0 0 0 9.18183,0.68744 L 92.411823,142.69658 a 7.5614737,5 40 0 1 -0.34692,-0.30284 l -0.12751,-0.10682 a 7.5614737,5 40 0 1 -2.578173,-8.69071 7.5614737,5 40 0 1 9.006064,1.03033 l 20.739556,17.40286 a 50,50 0 0 0 21.60079,-13.2055 l -17.42692,1.52455 a 5,7.5614737 85 0 1 -0.4595,0.0312 l -0.16605,0.0138 a 5,7.5614737 85 0 1 -7.96802,-4.32219 5,7.5614737 85 0 1 7.09657,-5.63951 l 26.66519,-2.33342 a 50,50 0 0 0 0.40303,-0.73438 50,50 0 0 0 1.96793,-4.21315 50,50 0 0 0 0.11459,-0.29436 50,50 0 0 0 3.4743,-16.13706 50,50 0 0 0 0.0246,-3.4589 l -11.21863,13.37091 a 5,7.5614737 40 0 1 -0.30284,0.34695 l -0.10683,0.12763 a 5,7.5614737 40 0 1 -8.69076,2.57813 5,7.5614737 40 0 1 1.03069,-9.00637 l 17.1806,-20.474758 a 50,50 0 0 0 -3.39499,-8.411959 50,50 0 0 0 -0.4985,-0.889926 50,50 0 0 0 -2.57521,-4.254815 50,50 0 0 0 -1.39124,-1.902684 50,50 0 0 0 -2.22803,-2.785016 50,50 0 0 0 -2.51521,-2.687212 50,50 0 0 0 -0.73138,-0.712909 l 1.54461,17.654795 a 7.5614737,5 85 0 1 0.0312,0.459461 l 0.0139,0.165807 a 7.5614737,5 85 0 1 -4.32188,7.968344 7.5614737,5 85 0 1 -5.6398,-7.096782 l -2.35833,-26.955422 a 50,50 0 0 0 -5.82536,-2.64304 50,50 0 0 0 -0.31244,-0.103183 50,50 0 0 0 -5.73177,-1.753667 50,50 0 0 0 -0.67007,-0.137253 50,50 0 0 0 -5.61713,-0.951143 50,50 0 0 0 -0.68459,-0.05968 50,50 0 0 0 -5.77458,-0.222458 50,50 0 0 0 -0.22283,0.0061 l 13.30058,11.160492 a 7.5614737,5 40 0 1 0.34694,0.302848 l 0.12749,0.107059 a 7.5614737,5 40 0 1 2.57818,8.690587 7.5614737,5 40 0 1 -9.00596,-1.030353 L 90.342385,56.982046 a 50,50 0 0 0 -0.206375,0.06015 50,50 0 0 0 -5.791431,2.159523 50,50 0 0 0 -0.196445,0.08617 50,50 0 0 0 -5.66672,3.002153 50,50 0 0 0 -8.75e-4,4.54e-4 50,50 0 0 0 -6.77e-4,6.96e-4 50,50 0 0 0 -10.077605,8.191378 z m 37.643723,83.652899 0.10608,0.0891 a 50,50 0 0 0 0.0135,-8.2e-4 l -0.10655,-0.0888 a 50,50 0 0 1 -0.0135,8.3e-4 z m -35.312539,-13.58903 0.01751,0.20016 a 50,50 0 0 0 0.0099,0.009 l -0.0174,-0.20119 a 50,50 0 0 1 -0.0099,-0.009 z" />
    <path
       sodipodi:type="star"
       style="fill:url(#linearGradient13-7-2);fill-opacity:1;stroke:#fff209;stroke-width:1.665;stroke-opacity:1"
       id="path12-38-9"
       inkscape:flatsided="false"
       sodipodi:sides="8"
       sodipodi:cx="30.437441"
       sodipodi:cy="9.8185291"
       sodipodi:r1="16.25997"
       sodipodi:r2="8.1299849"
       sodipodi:arg1="0.50416596"
       sodipodi:arg2="0.89686504"
       inkscape:rounded="0"
       inkscape:randomized="0"
       d="m 44.674308,17.673352 -9.163248,-1.502261 -0.560833,9.268622 -5.417135,-7.541654 -6.950474,6.157337 1.502261,-9.163247 -9.268622,-0.560833 7.541654,-5.4171354 -6.157337,-6.9504744 9.163247,1.5022614 0.560834,-9.268622 5.417134,7.5416534 6.950475,-6.1573365 -1.502262,9.1632471 9.268622,0.5608332 -7.541653,5.4171352 z"
       transform="matrix(0.49566682,0,0,0.49566682,85.4566,195.01046)" />
    <path
       id="path1-8-4-5"
       style="fill:#0000ff;fill-opacity:1;stroke-width:1.45419"
       d="m 83.109627,59.769784 a 50,50 0 0 0 -4.62828,2.520272 50,50 0 0 0 -0.001,4.31e-4 50,50 0 0 0 -6.44e-4,7.67e-4 50,50 0 0 0 -4.71804,3.296951 6.9159117,6.3395858 40 0 0 7.990198,-1.331789 6.9159117,6.3395858 40 0 0 1.357852,-4.486684 z" />
    <rect
       style="fill:#ff3838;fill-opacity:1;stroke-width:1.99254"
       id="rect4"
       width="20"
       height="10"
       x="90"
       y="210" />
    <rect
       style="fill:#ffe300;fill-opacity:1;stroke-width:1.93028"
       id="rect5"
       width="20"
       height="10"
       x="90"
       y="225" />
    <rect
       style="fill:#000caa;fill-opacity:1;stroke-width:1.93028"
       id="rect5-8"
       width="20"
       height="10"
       x="90"
       y="240" />
    <rect
       style="fill:#00aa05;fill-opacity:1;stroke-width:1.93028"
       id="rect5-8-5"
       width="20"
       height="10"
       x="90"
       y="255" />
    <text
       xml:space="preserve"
       style="font-size:6.35px;writing-mode:lr-tb;direction:ltr;fill:#00aa05;fill-opacity:1;stroke-width:1.665"
       x="150.22897"
       y="214.39328"
       id="text7"><tspan
         sodipodi:role="line"
         id="tspan7"
         style="stroke-width:1.665"
         x="150.22897"
         y="214.39328" /></text>
    <text
       xml:space="preserve"
       style="font-style:normal;font-variant:normal;font-weight:bold;font-stretch:normal;font-size:6.35px;font-family:sans-serif;-inkscape-font-specification:'sans-serif Bold';writing-mode:lr-tb;direction:ltr;fill:#000000;fill-opacity:1;stroke-width:1.665"
       x="114.84375"
       y="217.08278"
       id="text8"><tspan
         sodipodi:role="line"
         id="tspan8"
         style="stroke-width:1.665"
         x="114.84375"
         y="217.08278">PISTON/TURBINE</tspan></text>
    <text
       xml:space="preserve"
       style="font-style:normal;font-variant:normal;font-weight:bold;font-stretch:normal;font-size:6.35px;font-family:sans-serif;-inkscape-font-specification:'sans-serif Bold';writing-mode:lr-tb;direction:ltr;fill:#000000;fill-opacity:1;stroke-width:1.665"
       x="115.08313"
       y="202.2475"
       id="text8-3"><tspan
         sodipodi:role="line"
         id="tspan8-2"
         style="stroke-width:1.665"
         x="115.08313"
         y="202.2475">COMBUSTION EVENT</tspan></text>
    <text
       xml:space="preserve"
       style="font-style:normal;font-variant:normal;font-weight:bold;font-stretch:normal;font-size:6.35px;font-family:sans-serif;-inkscape-font-specification:'sans-serif Bold';writing-mode:lr-tb;direction:ltr;fill:#000000;fill-opacity:1;stroke-width:1.665"
       x="113.70312"
       y="232.45148"
       id="text9"><tspan
         sodipodi:role="line"
         id="tspan9"
         style="stroke-width:1.665"
         x="113.70312"
         y="232.45148">DRIVE SHAFT</tspan></text>
    <text
       xml:space="preserve"
       style="font-style:normal;font-variant:normal;font-weight:bold;font-stretch:normal;font-size:6.35px;font-family:sans-serif;-inkscape-font-specification:'sans-serif Bold';writing-mode:lr-tb;direction:ltr;fill:#000000;fill-opacity:1;stroke-width:1.665"
       x="116"
       y="248.20438"
       id="text10"><tspan
         sodipodi:role="line"
         id="tspan10"
         style="stroke-width:1.665"
         x="116"
         y="248.20438">OUTER CASING VENT</tspan></text>
    <text
       xml:space="preserve"
       style="font-style:normal;font-variant:normal;font-weight:bold;font-stretch:normal;font-size:6.35px;font-family:sans-serif;-inkscape-font-specification:'sans-serif Bold';writing-mode:lr-tb;direction:ltr;fill:#000000;fill-opacity:1;stroke-width:1.665"
       x="114.07812"
       y="262.42044"
       id="text11"><tspan
         sodipodi:role="line"
         id="tspan11"
         style="stroke-width:1.665"
         x="114.07812"
         y="262.42044">FIXED OUTER CASING</tspan></text>
    <path
       id="path11-50"
       style="fill:#0000ff;fill-opacity:1;stroke-width:1.665"
       d="m 96.056791,150.92184 a 6.9159117,6.3395858 40 0 0 -8.939815,-0.0513 50,50 0 0 0 5.741307,1.80818 50,50 0 0 0 0.704666,0.1992 50,50 0 0 0 3.301363,0.57166 50,50 0 0 0 1.230159,0.19164 6.9159117,6.3395858 40 0 0 -2.03778,-2.71909 z" />
    <path
       id="path11-50-3"
       style="fill:#0000ff;fill-opacity:1;stroke-width:1.665"
       d="m 131.5565,143.60393 a 6.3395858,6.9159117 85 0 0 -6.35768,6.28522 50,50 0 0 0 5.33831,-2.78113 50,50 0 0 0 0.63897,-0.3578 50,50 0 0 0 2.73864,-1.9302 50,50 0 0 0 1.00538,-0.73424 6.3395858,6.9159117 85 0 0 -3.36362,-0.48185 z" />
    <path
       id="path11-9"
       style="fill:#0000ff;fill-opacity:1;stroke-width:1.665"
       d="m 64.934898,127.87012 a 6.9159117,6.3395858 40 0 0 -4.773102,-1.72642 50,50 0 0 0 6.591933,10.17246 6.9159117,6.3395858 40 0 0 -1.818816,-8.44608 z" />
    <path
       id="path11-9-7"
       style="fill:#0000ff;fill-opacity:1;stroke-width:1.665"
       d="m 58.065025,87.298205 a 50,50 0 0 0 -2.553067,10.589224 6.9159117,6.3395858 40 0 0 3.096476,-1.933612 6.9159117,6.3395858 40 0 0 -0.543409,-8.655612 z" />
    <path
       id="path11-9-5"
       style="fill:#0000ff;fill-opacity:1;stroke-width:1.665"
       d="m 122.72704,58.223554 a 50,50 0 0 0 -0.29374,-0.112228 50,50 0 0 0 -0.31202,-0.103237 50,50 0 0 0 -5.73177,-1.753642 50,50 0 0 0 -0.67006,-0.137251 50,50 0 0 0 -4.39126,-0.79949 6.9159117,6.3395858 40 0 0 2.1984,3.121001 6.9159117,6.3395858 40 0 0 9.20041,-0.215115 z" />
    <path
       id="path11-50-9"
       style="fill:#0000ff;fill-opacity:1;stroke-width:1.665"
       d="m 151.67733,112.92937 a 6.3395858,6.9159117 40 0 0 -0.0512,8.93987 50,50 0 0 0 1.80821,-5.74132 50,50 0 0 0 0.1992,-0.70471 50,50 0 0 0 0.57166,-3.30137 50,50 0 0 0 0.19174,-1.23011 6.3395858,6.9159117 40 0 0 -2.71915,2.03776 z" />
    <path
       id="path11-50-8"
       style="fill:#0000ff;fill-opacity:1;stroke-width:1.665"
       d="m 144.54774,78.62522 a 6.9159117,6.3395858 85 0 0 6.28516,6.357639 50,50 0 0 0 -2.78116,-5.338299 50,50 0 0 0 -0.35775,-0.638921 50,50 0 0 0 -1.93019,-2.738624 50,50 0 0 0 -0.73429,-1.005421 6.9159117,6.3395858 85 0 0 -0.48174,3.363605 z" />
    <rect
       style="fill:#ffff00;fill-opacity:1;stroke-width:2.58724"
       id="rect11"
       width="20"
       height="20"
       x="137.65906"
       y="3.1778526"
       transform="rotate(40)" />
    <rect
       style="fill:#ffffff;fill-opacity:1;stroke:#000000;stroke-width:1.63286;stroke-opacity:1"
       id="rect12"
       width="18.367134"
       height="8.3671379"
       x="90.816429"
       y="270.81644" />
    <text
       xml:space="preserve"
       style="font-style:normal;font-variant:normal;font-weight:bold;font-stretch:normal;font-size:6.35px;font-family:sans-serif;-inkscape-font-specification:'sans-serif Bold';writing-mode:lr-tb;direction:ltr;fill:#000000;fill-opacity:1;stroke:none;stroke-width:1.665;stroke-opacity:1"
       x="113.13634"
       y="276.62109"
       id="text12"><tspan
         sodipodi:role="line"
         id="tspan12"
         style="fill:#000000;fill-opacity:1;stroke-width:1.665"
         x="113.13634"
         y="276.62109">COMBUSTION CHAMBERS</tspan></text>
    <text
       xml:space="preserve"
       style="font-style:normal;font-variant:normal;font-weight:bold;font-stretch:normal;font-size:6.35px;font-family:sans-serif;-inkscape-font-specification:'sans-serif Bold';writing-mode:lr-tb;direction:ltr;fill:#ff5d00;fill-opacity:1;stroke:#fff209;stroke-width:1.665;stroke-opacity:1"
       x="116.5443"
       y="198.52037"
       id="text13"><tspan
         sodipodi:role="line"
         id="tspan13"
         style="stroke-width:1.665"
         x="116.5443"
         y="198.52037" /></text>
  </g>
  <g
     inkscape:groupmode="layer"
     id="layer2"
     inkscape:label="FIXED CASING">
    <path
       id="path2-1-3"
       style="fill:#2b0000;fill-opacity:1;stroke-width:2.00392"
       d="M 105.02753,24.30093 A 80,80 0 0 0 35.745454,64.301072 80,80 0 0 0 65.027904,173.58329 80,80 0 0 0 174.3096,144.30136 80,80 0 0 0 145.02767,35.019139 80,80 0 0 0 105.02753,24.30093 Z m 0.23254,11.969295 a 7.5614737,5 60 0 1 6.16603,4.506185 l 9.26094,16.040365 a 50,50 0 0 1 9.34051,4.183207 50,50 0 0 1 2.30374,1.414384 V 52.48629 a 5,7.5614737 0 0 1 4.99969,-7.560779 5,7.5614737 0 0 1 5.00021,7.560779 v 18.52135 a 50,50 0 0 1 7.28535,10.669631 l 4.96404,-8.597406 a 5,7.5614737 30 0 1 8.11009,-4.047815 5,7.5614737 30 0 1 0.54984,9.048031 l -9.26041,16.03933 a 50,50 0 0 1 0,5.1e-4 50,50 0 0 1 0.97461,12.882929 l 8.59741,-4.96352 a 5,7.5614737 60 0 1 9.04751,0.54932 5,7.5614737 60 0 1 -4.04781,8.11061 l -16.03882,9.2599 a 50,50 0 0 1 -4.18372,9.34207 50,50 0 0 1 -1.41387,2.30322 h 9.92653 a 7.5614737,5 0 0 1 1.95698,0.17053 7.5614737,5 0 0 1 1.82366,0.49919 7.5614737,5 0 0 1 2.21796,1.28623 7.5614737,5 0 0 1 0.54932,0.54415 7.5614737,5 0 0 1 0.75551,1.20561 7.5614737,5 0 0 1 0.25786,1.29398 7.5614737,5 0 0 1 -0.0646,0.65267 7.5614737,5 0 0 1 -0.51108,1.26039 7.5614737,5 0 0 1 0,5.2e-4 7.5614737,5 0 0 1 -2.38229,2.0531 7.5614737,5 0 0 1 -1.70945,0.65268 7.5614737,5 0 0 1 -2.89388,0.38085 h -18.5198 a 50,50 0 0 1 -10.67015,7.28587 l 8.59637,4.96352 a 7.5614737,5 30 0 1 4.04833,8.1101 7.5614737,5 30 0 1 -9.04802,0.54984 l -16.03882,-9.2599 a 50,50 0 0 1 -12.88397,0.97462 l 4.96353,8.59689 a 7.5614737,5 60 0 1 -0.54933,9.04803 7.5614737,5 60 0 1 -8.110606,-4.04834 l -9.26042,-16.03881 a 50,50 0 0 1 -9.34155,-4.18372 50,50 0 0 1 -2.30322,-1.41439 v 9.92705 a 5,7.5614737 0 0 1 -4.99969,7.56129 5,7.5614737 0 0 1 -5.00021,-7.56129 v -18.52033 a 50,50 0 0 1 -7.28586,-10.67015 l -4.96352,8.59689 a 5,7.5614737 30 0 1 -8.11062,4.04833 5,7.5614737 30 0 1 -0.54932,-9.04802 l 9.2599,-16.03882 a 50,50 0 0 1 0,-5.2e-4 50,50 0 0 1 -0.97462,-12.88345 l -8.59689,4.96352 a 5,7.5614737 60 0 1 -9.04802,-0.54932 5,7.5614737 60 0 1 4.04781,-8.110599 l 16.03985,-9.26094 a 50,50 0 0 1 4.18321,-9.34051 50,50 0 0 1 1.4149,-2.30374 h -9.92808 a 7.5614737,5 0 0 1 -7.56078,-4.999691 7.5614737,5 0 0 1 7.56078,-5.000212 h 18.52135 a 50,50 0 0 1 10.67015,-7.285343 l -8.59741,-4.964038 a 7.5614737,5 30 0 1 -4.04833,-8.110616 7.5614737,5 30 0 1 4.54494,-1.955953 7.5614737,5 30 0 1 4.50309,1.406632 l 16.03984,9.260417 A 50,50 0 0 1 107.7302,54.374546 l -4.96404,-8.597924 a 7.5614737,5 60 0 1 0.54932,-9.048027 7.5614737,5 60 0 1 1.94458,-0.45837 z" />
  </g>
</svg>
