<?xml version="1.0" encoding="UTF-8" standalone="no"?>
<!-- Created with Inkscape (http://www.inkscape.org/) -->

<svg
   width="210mm"
   height="297mm"
   viewBox="0 0 210 297"
   version="1.1"
   id="svg1"
   inkscape:version="1.4.3 (0d15f75, 2025-12-25)"
   sodipodi:docname="IMG2.svg"
   xmlns:inkscape="http://www.inkscape.org/namespaces/inkscape"
   xmlns:sodipodi="http://sodipodi.sourceforge.net/DTD/sodipodi-0.dtd"
   xmlns:xlink="http://www.w3.org/1999/xlink"
   xmlns="http://www.w3.org/2000/svg"
   xmlns:svg="http://www.w3.org/2000/svg">
  <sodipodi:namedview
     id="namedview1"
     pagecolor="#ffffff"
     bordercolor="#000000"
     borderopacity="0.25"
     inkscape:showpageshadow="2"
     inkscape:pageopacity="0.0"
     inkscape:pagecheckerboard="0"
     inkscape:deskcolor="#d1d1d1"
     inkscape:document-units="mm"
     inkscape:zoom="0.61594576"
     inkscape:cx="800.39516"
     inkscape:cy="471.63244"
     inkscape:window-width="1920"
     inkscape:window-height="991"
     inkscape:window-x="-9"
     inkscape:window-y="-9"
     inkscape:window-maximized="1"
     inkscape:current-layer="layer1" />
  <defs
     id="defs1">
    <linearGradient
       id="linearGradient12"
       inkscape:collect="always">
      <stop
         style="stop-color:#ff3d00;stop-opacity:1;"
         offset="0"
         id="stop12" />
      <stop
         style="stop-color:#cbba00;stop-opacity:0.75423729;"
         offset="1"
         id="stop13" />
    </linearGradient>
    <linearGradient
       inkscape:collect="always"
       xlink:href="#linearGradient12"
       id="linearGradient13-7-2"
       x1="12.429228"
       y1="9.8185291"
       x2="48.445656"
       y2="9.8185291"
       gradientUnits="userSpaceOnUse" />
  </defs>
  <g
     inkscape:label="Layer 1"
     inkscape:groupmode="layer"
     id="layer1">
    <path
       id="path1-8-4"
       style="fill:#ff0000;fill-opacity:1;stroke-width:1.45419"
       d="m 55.422325,97.587469 0.05,-0.0414 a 50,50 0 0 1 0.0017,-0.01331 l -0.04916,0.04097 a 50,50 0 0 0 -0.0017,0.01331 z m 0.05138,-0.05483 13.634211,-11.440433 a 5,7.5614737 50 0 1 0.358759,-0.289293 l 0.126923,-0.107507 a 5,7.5614737 50 0 1 9.006691,-1.029674 5,7.5614737 50 0 1 -2.579096,8.690327 L 55.337614,110.71178 a 50,50 0 0 0 9.28039,23.03674 l 1.507689,-17.23331 a 5,7.5614737 5 0 1 0.0491,-0.45791 l 0.01479,-0.16608 a 5,7.5614737 5 0 1 5.640296,-7.09664 5,7.5614737 5 0 1 4.321593,7.96824 l -2.321485,26.53929 a 50,50 0 0 0 23.740069,10.2864 L 86.129495,139.95423 a 7.5614737,5 50 0 1 -0.289074,-0.35851 l -0.107074,-0.12762 a 7.5614737,5 50 0 1 -1.029774,-9.00623 7.5614737,5 50 0 1 8.690523,2.57857 l 17.402624,20.7396 a 50,50 0 0 0 11.85507,-2.9452 50,50 0 0 0 0.6913,-0.24137 50,50 0 0 0 3.03254,-1.42513 50,50 0 0 0 7.91561,-4.70336 l -17.73075,-1.55128 a 7.5614737,5 5 0 1 -0.45789,-0.0491 l -0.16568,-0.0143 a 7.5614737,5 5 0 1 -7.09671,-5.64023 7.5614737,5 5 0 1 7.96832,-4.32167 l 26.97072,2.35985 a 50,50 0 0 0 10.11997,-23.20699 l -13.40086,11.2445 a 5,7.5614737 50 0 1 -0.35852,0.28909 l -0.12814,0.10644 a 5,7.5614737 50 0 1 -9.00611,1.02974 5,7.5614737 50 0 1 2.57847,-8.69004 l 20.50443,-17.205966 a 50,50 0 0 0 -0.0911,-0.832748 50,50 0 0 0 -0.80453,-4.579957 50,50 0 0 0 -0.0748,-0.306898 50,50 0 0 0 -6.40985,-15.211478 50,50 0 0 0 -1.96377,-2.847489 l -1.52053,17.38755 a 5,7.5614737 5 0 1 -0.0491,0.457913 l -0.0143,0.165808 a 5,7.5614737 5 0 1 -5.64029,7.096705 5,7.5614737 5 0 1 -4.32154,-7.968774 l 2.32966,-26.626319 a 50,50 0 0 0 -7.60591,-4.943392 50,50 0 0 0 -0.91877,-0.443065 50,50 0 0 0 -4.54996,-2.008258 50,50 0 0 0 -2.23097,-0.760607 50,50 0 0 0 -3.42253,-1.003398 50,50 0 0 0 -3.60166,-0.758567 50,50 0 0 0 -1.00802,-0.164481 l 11.39165,13.57601 a 7.5614737,5 50 0 1 0.28906,0.358489 l 0.10652,0.127829 a 7.5614737,5 50 0 1 1.03017,9.006215 7.5614737,5 50 0 1 -8.6904,-2.57848 L 98.924629,55.22987 a 50,50 0 0 0 -6.287854,1.176245 50,50 0 0 0 -0.315127,0.09464 50,50 0 0 0 -5.701037,1.851082 50,50 0 0 0 -0.627637,0.271911 50,50 0 0 0 -5.146832,2.442719 50,50 0 0 0 -0.595017,0.343781 50,50 0 0 0 -4.857853,3.129935 50,50 0 0 0 -0.179045,0.132791 l 17.296608,1.513232 a 7.5614737,5 5 0 1 0.457894,0.04909 l 0.165841,0.01456 a 7.5614737,5 5 0 1 7.09662,5.640136 7.5614737,5 5 0 1 -7.968218,4.321586 L 65.701611,73.887825 a 50,50 0 0 0 -0.134553,0.167641 50,50 0 0 0 -3.505412,5.090805 50,50 0 0 0 -0.111496,0.18326 50,50 0 0 0 -2.919939,5.709517 50,50 0 0 0 -4.57e-4,8.73e-4 50,50 0 0 0 -1.55e-4,9.6e-4 50,50 0 0 0 -3.556712,12.490261 z m 78.81727,46.932902 0.13799,0.0121 a 50,50 0 0 0 0.0108,-0.008 l -0.13824,-0.0117 a 50,50 0 0 1 -0.0107,0.008 z m -36.720684,9.12296 0.129147,0.15391 a 50,50 0 0 0 0.01331,0.002 L 97.5831,153.58958 a 50,50 0 0 1 -0.01331,-0.002 z" />
    <path
       sodipodi:type="star"
       style="fill:url(#linearGradient13-7-2);fill-opacity:1;stroke:#fff209;stroke-width:1.665;stroke-opacity:1"
       id="path12-38-9"
       inkscape:flatsided="false"
       sodipodi:sides="8"
       sodipodi:cx="30.437441"
       sodipodi:cy="9.8185291"
       sodipodi:r1="16.25997"
       sodipodi:r2="8.1299849"
       sodipodi:arg1="0.50416596"
       sodipodi:arg2="0.89686504"
       inkscape:rounded="0"
       inkscape:randomized="0"
       d="m 44.674308,17.673352 -9.163248,-1.502261 -0.560833,9.268622 -5.417135,-7.541654 -6.950474,6.157337 1.502261,-9.163247 -9.268622,-0.560833 7.541654,-5.4171354 -6.157337,-6.9504744 9.163247,1.5022614 0.560834,-9.268622 5.417134,7.5416534 6.950475,-6.1573365 -1.502262,9.1632471 9.268622,0.5608332 -7.541653,5.4171352 z"
       transform="matrix(0.49566682,0,0,0.49566682,85.4566,195.01046)" />
    <path
       id="path1-8-4-5"
       style="fill:#0000ff;fill-opacity:1;stroke-width:1.45419"
       d="m 61.375864,80.319947 a 50,50 0 0 0 -2.345698,4.719157 50,50 0 0 0 -6.05e-4,9.51e-4 50,50 0 0 0 -8.7e-5,9.96e-4 50,50 0 0 0 -1.97374,5.406862 6.9159117,6.3395858 5 0 0 5.781305,-5.673927 6.9159117,6.3395858 5 0 0 -1.461169,-4.454109 z" />
    <rect
       style="fill:#ff3838;fill-opacity:1;stroke-width:1.99254"
       id="rect4"
       width="20"
       height="10"
       x="90"
       y="210" />
    <rect
       style="fill:#ffe300;fill-opacity:1;stroke-width:1.93028"
       id="rect5"
       width="20"
       height="10"
       x="90"
       y="225" />
    <rect
       style="fill:#000caa;fill-opacity:1;stroke-width:1.93028"
       id="rect5-8"
       width="20"
       height="10"
       x="90"
       y="240" />
    <rect
       style="fill:#00aa05;fill-opacity:1;stroke-width:1.93028"
       id="rect5-8-5"
       width="20"
       height="10"
       x="90"
       y="255" />
    <text
       xml:space="preserve"
       style="font-size:6.35px;writing-mode:lr-tb;direction:ltr;fill:#00aa05;fill-opacity:1;stroke-width:1.665"
       x="150.22897"
       y="214.39328"
       id="text7"><tspan
         sodipodi:role="line"
         id="tspan7"
         style="stroke-width:1.665"
         x="150.22897"
         y="214.39328" /></text>
    <text
       xml:space="preserve"
       style="font-style:normal;font-variant:normal;font-weight:bold;font-stretch:normal;font-size:6.35px;font-family:sans-serif;-inkscape-font-specification:'sans-serif Bold';writing-mode:lr-tb;direction:ltr;fill:#000000;fill-opacity:1;stroke-width:1.665"
       x="114.84375"
       y="217.08278"
       id="text8"><tspan
         sodipodi:role="line"
         id="tspan8"
         style="stroke-width:1.665"
         x="114.84375"
         y="217.08278">PISTON/TURBINE</tspan></text>
    <text
       xml:space="preserve"
       style="font-style:normal;font-variant:normal;font-weight:bold;font-stretch:normal;font-size:6.35px;font-family:sans-serif;-inkscape-font-specification:'sans-serif Bold';writing-mode:lr-tb;direction:ltr;fill:#000000;fill-opacity:1;stroke-width:1.665"
       x="115.08313"
       y="202.2475"
       id="text8-3"><tspan
         sodipodi:role="line"
         id="tspan8-2"
         style="stroke-width:1.665"
         x="115.08313"
         y="202.2475">COMBUSTION EVENT</tspan></text>
    <text
       xml:space="preserve"
       style="font-style:normal;font-variant:normal;font-weight:bold;font-stretch:normal;font-size:6.35px;font-family:sans-serif;-inkscape-font-specification:'sans-serif Bold';writing-mode:lr-tb;direction:ltr;fill:#000000;fill-opacity:1;stroke-width:1.665"
       x="113.70312"
       y="232.45148"
       id="text9"><tspan
         sodipodi:role="line"
         id="tspan9"
         style="stroke-width:1.665"
         x="113.70312"
         y="232.45148">DRIVE SHAFT</tspan></text>
    <text
       xml:space="preserve"
       style="font-style:normal;font-variant:normal;font-weight:bold;font-stretch:normal;font-size:6.35px;font-family:sans-serif;-inkscape-font-specification:'sans-serif Bold';writing-mode:lr-tb;direction:ltr;fill:#000000;fill-opacity:1;stroke-width:1.665"
       x="116"
       y="248.20438"
       id="text10"><tspan
         sodipodi:role="line"
         id="tspan10"
         style="stroke-width:1.665"
         x="116"
         y="248.20438">OUTER CASING VENT</tspan></text>
    <text
       xml:space="preserve"
       style="font-style:normal;font-variant:normal;font-weight:bold;font-stretch:normal;font-size:6.35px;font-family:sans-serif;-inkscape-font-specification:'sans-serif Bold';writing-mode:lr-tb;direction:ltr;fill:#000000;fill-opacity:1;stroke-width:1.665"
       x="114.07812"
       y="262.42044"
       id="text11"><tspan
         sodipodi:role="line"
         id="tspan11"
         style="stroke-width:1.665"
         x="114.07812"
         y="262.42044">FIXED OUTER CASING</tspan></text>
    <path
       id="path11-50"
       style="fill:#0000ff;fill-opacity:1;stroke-width:1.665"
       d="m 124.26422,147.56115 a 6.9159117,6.3395858 5 0 0 -7.35245,5.08569 50,50 0 0 0 5.74014,-1.81189 50,50 0 0 0 0.69133,-0.24142 50,50 0 0 0 3.03222,-1.42529 50,50 0 0 0 1.11763,-0.54857 6.9159117,6.3395858 5 0 0 -3.22887,-1.05852 z" />
    <path
       id="path11-50-3"
       style="fill:#0000ff;fill-opacity:1;stroke-width:1.665"
       d="m 149.14651,121.20489 a 6.3395858,6.9159117 50 0 0 -1.60284,8.79514 50,50 0 0 0 2.77769,-5.34009 50,50 0 0 0 0.31818,-0.65958 50,50 0 0 0 1.13625,-3.15195 50,50 0 0 0 0.40241,-1.17812 6.3395858,6.9159117 50 0 0 -3.03169,1.5346 z" />
    <path
       id="path11-9"
       style="fill:#0000ff;fill-opacity:1;stroke-width:1.665"
       d="m 85.548741,146.52906 a 6.9159117,6.3395858 5 0 0 -4.900115,1.32359 50,50 0 0 0 11.234474,4.55181 6.9159117,6.3395858 5 0 0 -6.334359,-5.8754 z" />
    <path
       id="path11-9-7"
       style="fill:#0000ff;fill-opacity:1;stroke-width:1.665"
       d="m 56.650181,117.23491 a 50,50 0 0 0 3.98238,10.13856 6.9159117,6.3395858 5 0 0 1.427405,-3.36 6.9159117,6.3395858 5 0 0 -5.409785,-6.77856 z" />
    <path
       id="path11-9-5"
       style="fill:#0000ff;fill-opacity:1;stroke-width:1.665"
       d="m 92.941652,56.329741 a 50,50 0 0 0 -0.304972,0.07655 50,50 0 0 0 -0.314822,0.09436 50,50 0 0 0 -5.701039,1.851107 50,50 0 0 0 -0.627606,0.271898 50,50 0 0 0 -4.055675,1.863818 6.9159117,6.3395858 5 0 0 3.590963,1.295621 6.9159117,6.3395858 5 0 0 7.413151,-5.453352 z" />
    <path
       id="path11-50-9"
       style="fill:#0000ff;fill-opacity:1;stroke-width:1.665"
       d="m 148.03433,84.536917 a 6.3395858,6.9159117 5 0 0 5.08572,7.352488 50,50 0 0 0 -1.81189,-5.740149 50,50 0 0 0 -0.2414,-0.691381 50,50 0 0 0 -1.42533,-3.032214 50,50 0 0 0 -0.54851,-1.117609 6.3395858,6.9159117 5 0 0 -1.05859,3.228865 z" />
    <path
       id="path11-50-8"
       style="fill:#0000ff;fill-opacity:1;stroke-width:1.665"
       d="m 122.51805,60.525963 a 6.9159117,6.3395858 50 0 0 8.79509,1.602854 50,50 0 0 0 -5.3401,-2.777676 50,50 0 0 0 -0.65953,-0.318172 50,50 0 0 0 -3.15193,-1.136239 50,50 0 0 0 -1.17817,-0.402425 6.9159117,6.3395858 50 0 0 1.53466,3.031621 z" />
    <rect
       style="fill:#ffff00;fill-opacity:1;stroke-width:2.58724"
       id="rect11"
       width="20"
       height="20"
       x="103.71675"
       y="85.478432"
       transform="rotate(5)" />
    <rect
       style="fill:#ffffff;fill-opacity:1;stroke:#000000;stroke-width:1.63286;stroke-opacity:1"
       id="rect12"
       width="18.367134"
       height="8.3671379"
       x="90.816429"
       y="270.81644" />
    <text
       xml:space="preserve"
       style="font-style:normal;font-variant:normal;font-weight:bold;font-stretch:normal;font-size:6.35px;font-family:sans-serif;-inkscape-font-specification:'sans-serif Bold';writing-mode:lr-tb;direction:ltr;fill:#000000;fill-opacity:1;stroke:none;stroke-width:1.665;stroke-opacity:1"
       x="113.13634"
       y="276.62109"
       id="text12"><tspan
         sodipodi:role="line"
         id="tspan12"
         style="fill:#000000;fill-opacity:1;stroke-width:1.665"
         x="113.13634"
         y="276.62109">COMBUSTION CHAMBERS</tspan></text>
    <text
       xml:space="preserve"
       style="font-style:normal;font-variant:normal;font-weight:bold;font-stretch:normal;font-size:6.35px;font-family:sans-serif;-inkscape-font-specification:'sans-serif Bold';writing-mode:lr-tb;direction:ltr;fill:#ff5d00;fill-opacity:1;stroke:#fff209;stroke-width:1.665;stroke-opacity:1"
       x="116.5443"
       y="198.52037"
       id="text13"><tspan
         sodipodi:role="line"
         id="tspan13"
         style="stroke-width:1.665"
         x="116.5443"
         y="198.52037" /></text>
  </g>
  <g
     inkscape:groupmode="layer"
     id="layer2"
     inkscape:label="FIXED CASING">
    <path
       id="path2-1-3"
       style="fill:#2b0000;fill-opacity:1;stroke-width:2.00392"
       d="M 105.02753,24.30093 A 80,80 0 0 0 35.745454,64.301072 80,80 0 0 0 65.027904,173.58329 80,80 0 0 0 174.3096,144.30136 80,80 0 0 0 145.02767,35.019139 80,80 0 0 0 105.02753,24.30093 Z m 0.23254,11.969295 a 7.5614737,5 60 0 1 6.16603,4.506185 l 9.26094,16.040365 a 50,50 0 0 1 9.34051,4.183207 50,50 0 0 1 2.30374,1.414384 V 52.48629 a 5,7.5614737 0 0 1 4.99969,-7.560779 5,7.5614737 0 0 1 5.00021,7.560779 v 18.52135 a 50,50 0 0 1 7.28535,10.669631 l 4.96404,-8.597406 a 5,7.5614737 30 0 1 8.11009,-4.047815 5,7.5614737 30 0 1 0.54984,9.048031 l -9.26041,16.03933 a 50,50 0 0 1 0,5.1e-4 50,50 0 0 1 0.97461,12.882929 l 8.59741,-4.96352 a 5,7.5614737 60 0 1 9.04751,0.54932 5,7.5614737 60 0 1 -4.04781,8.11061 l -16.03882,9.2599 a 50,50 0 0 1 -4.18372,9.34207 50,50 0 0 1 -1.41387,2.30322 h 9.92653 a 7.5614737,5 0 0 1 1.95698,0.17053 7.5614737,5 0 0 1 1.82366,0.49919 7.5614737,5 0 0 1 2.21796,1.28623 7.5614737,5 0 0 1 0.54932,0.54415 7.5614737,5 0 0 1 0.75551,1.20561 7.5614737,5 0 0 1 0.25786,1.29398 7.5614737,5 0 0 1 -0.0646,0.65267 7.5614737,5 0 0 1 -0.51108,1.26039 7.5614737,5 0 0 1 0,5.2e-4 7.5614737,5 0 0 1 -2.38229,2.0531 7.5614737,5 0 0 1 -1.70945,0.65268 7.5614737,5 0 0 1 -2.89388,0.38085 h -18.5198 a 50,50 0 0 1 -10.67015,7.28587 l 8.59637,4.96352 a 7.5614737,5 30 0 1 4.04833,8.1101 7.5614737,5 30 0 1 -9.04802,0.54984 l -16.03882,-9.2599 a 50,50 0 0 1 -12.88397,0.97462 l 4.96353,8.59689 a 7.5614737,5 60 0 1 -0.54933,9.04803 7.5614737,5 60 0 1 -8.110606,-4.04834 l -9.26042,-16.03881 a 50,50 0 0 1 -9.34155,-4.18372 50,50 0 0 1 -2.30322,-1.41439 v 9.92705 a 5,7.5614737 0 0 1 -4.99969,7.56129 5,7.5614737 0 0 1 -5.00021,-7.56129 v -18.52033 a 50,50 0 0 1 -7.28586,-10.67015 l -4.96352,8.59689 a 5,7.5614737 30 0 1 -8.11062,4.04833 5,7.5614737 30 0 1 -0.54932,-9.04802 l 9.2599,-16.03882 a 50,50 0 0 1 0,-5.2e-4 50,50 0 0 1 -0.97462,-12.88345 l -8.59689,4.96352 a 5,7.5614737 60 0 1 -9.04802,-0.54932 5,7.5614737 60 0 1 4.04781,-8.110599 l 16.03985,-9.26094 a 50,50 0 0 1 4.18321,-9.34051 50,50 0 0 1 1.4149,-2.30374 h -9.92808 a 7.5614737,5 0 0 1 -7.56078,-4.999691 7.5614737,5 0 0 1 7.56078,-5.000212 h 18.52135 a 50,50 0 0 1 10.67015,-7.285343 l -8.59741,-4.964038 a 7.5614737,5 30 0 1 -4.04833,-8.110616 7.5614737,5 30 0 1 4.54494,-1.955953 7.5614737,5 30 0 1 4.50309,1.406632 l 16.03984,9.260417 A 50,50 0 0 1 107.7302,54.374546 l -4.96404,-8.597924 a 7.5614737,5 60 0 1 0.54932,-9.048027 7.5614737,5 60 0 1 1.94458,-0.45837 z" />
  </g>
</svg>
