<?xml version="1.0" encoding="UTF-8" standalone="no"?>
<!-- Created with Inkscape (http://www.inkscape.org/) -->

<svg
   width="210mm"
   height="297mm"
   viewBox="0 0 210 297"
   version="1.1"
   id="svg1"
   inkscape:version="1.4.3 (0d15f75, 2025-12-25)"
   sodipodi:docname="IMG4.svg"
   xmlns:inkscape="http://www.inkscape.org/namespaces/inkscape"
   xmlns:sodipodi="http://sodipodi.sourceforge.net/DTD/sodipodi-0.dtd"
   xmlns:xlink="http://www.w3.org/1999/xlink"
   xmlns="http://www.w3.org/2000/svg"
   xmlns:svg="http://www.w3.org/2000/svg">
  <sodipodi:namedview
     id="namedview1"
     pagecolor="#ffffff"
     bordercolor="#000000"
     borderopacity="0.25"
     inkscape:showpageshadow="2"
     inkscape:pageopacity="0.0"
     inkscape:pagecheckerboard="0"
     inkscape:deskcolor="#d1d1d1"
     inkscape:document-units="mm"
     inkscape:zoom="0.61594576"
     inkscape:cx="800.39516"
     inkscape:cy="471.63244"
     inkscape:window-width="1920"
     inkscape:window-height="991"
     inkscape:window-x="-9"
     inkscape:window-y="-9"
     inkscape:window-maximized="1"
     inkscape:current-layer="layer1" />
  <defs
     id="defs1">
    <linearGradient
       id="linearGradient12"
       inkscape:collect="always">
      <stop
         style="stop-color:#ff3d00;stop-opacity:1;"
         offset="0"
         id="stop12" />
      <stop
         style="stop-color:#cbba00;stop-opacity:0.75423729;"
         offset="1"
         id="stop13" />
    </linearGradient>
    <linearGradient
       inkscape:collect="always"
       xlink:href="#linearGradient12"
       id="linearGradient13-7-2"
       x1="12.429228"
       y1="9.8185291"
       x2="48.445656"
       y2="9.8185291"
       gradientUnits="userSpaceOnUse" />
  </defs>
  <g
     inkscape:label="Layer 1"
     inkscape:groupmode="layer"
     id="layer1">
    <path
       id="path1-8-4"
       style="fill:#ff0000;fill-opacity:1;stroke-width:1.45419"
       d="m 56.21279,93.317822 0.05342,-0.03688 a 50,50 0 0 1 0.0029,-0.01311 l -0.05254,0.03653 a 50,50 0 0 0 -0.0029,0.01311 z m 0.05596,-0.05014 14.579428,-10.208599 a 5,7.5614737 55 0 1 0.382607,-0.256924 l 0.13581,-0.09604 a 5,7.5614737 55 0 1 9.06216,-0.240771 5,7.5614737 55 0 1 -3.326694,8.432475 L 54.984542,106.38481 a 50,50 0 0 0 7.237291,23.75792 l 3.003934,-17.03633 a 5,7.5614737 10 0 1 0.08882,-0.45189 l 0.02921,-0.16416 a 5,7.5614737 10 0 1 6.237346,-6.57805 5,7.5614737 10 0 1 3.61067,8.31457 l -4.625702,26.23597 a 50,50 0 0 0 22.753212,12.31634 L 83.110603,138.19967 a 7.5614737,5 55 0 1 -0.256728,-0.38234 l -0.09554,-0.13647 a 7.5614737,5 55 0 1 -0.240911,-9.0617 7.5614737,5 55 0 1 8.432716,3.32618 l 15.528823,22.17742 a 50,50 0 0 0 12.06665,-1.90076 50,50 0 0 0 0.70971,-0.1802 50,50 0 0 0 3.14521,-1.1554 50,50 0 0 0 8.29541,-3.99557 l -17.52808,-3.09071 a 7.5614737,5 10 0 1 -0.45186,-0.0888 l -0.16381,-0.0287 a 7.5614737,5 10 0 1 -6.57812,-6.23729 7.5614737,5 10 0 1 8.31465,-3.61074 l 26.66242,4.70153 a 50,50 0 0 0 12.10408,-22.23667 l -14.32989,10.03375 a 5,7.5614737 55 0 1 -0.38235,0.25674 l -0.13693,0.0949 a 5,7.5614737 55 0 1 -9.06159,0.24089 5,7.5614737 55 0 1 3.32605,-8.43225 l 21.926,-15.35341 a 50,50 0 0 0 -0.0182,-0.83752 50,50 0 0 0 -0.4023,-4.632648 50,50 0 0 0 -0.0478,-0.31225 50,50 0 0 0 -5.05969,-15.712249 50,50 0 0 0 -1.70812,-3.007807 l -3.03017,17.188862 a 5,7.5614737 10 0 1 -0.0888,0.451891 l -0.0287,0.163931 a 5,7.5614737 10 0 1 -6.23735,6.57812 5,7.5614737 10 0 1 -3.61057,-8.315101 l 4.64143,-26.321955 a 50,50 0 0 0 -7.14612,-5.587479 50,50 0 0 0 -0.87666,-0.521456 50,50 0 0 0 -4.35761,-2.397171 50,50 0 0 0 -2.15619,-0.952154 50,50 0 0 0 -3.32205,-1.297873 50,50 0 0 0 -3.52185,-1.069586 50,50 0 0 0 -0.98984,-0.25171 l 10.16507,14.517197 a 7.5614737,5 55 0 1 0.25672,0.382318 l 0.095,0.136627 a 7.5614737,5 55 0 1 0.24131,9.061729 7.5614737,5 55 0 1 -8.43261,-3.326087 L 103.24126,54.912882 a 50,50 0 0 0 -6.366441,0.623747 50,50 0 0 0 -0.322176,0.06681 50,50 0 0 0 -5.840676,1.34716 50,50 0 0 0 -0.648947,0.216175 50,50 0 0 0 -5.340144,1.984847 50,50 0 0 0 -0.622715,0.290614 50,50 0 0 0 -5.112159,2.694635 50,50 0 0 0 -0.189937,0.116681 l 17.098902,3.014972 a 7.5614737,5 10 0 1 0.451873,0.08881 l 0.163941,0.02896 a 7.5614737,5 10 0 1 6.578049,6.237185 7.5614737,5 10 0 1 -8.314551,3.610665 L 68.51852,70.604261 a 50,50 0 0 0 -0.148652,0.155276 50,50 0 0 0 -3.935766,4.765916 50,50 0 0 0 -0.127043,0.172846 50,50 0 0 0 -3.406445,5.433301 50,50 0 0 0 -5.32e-4,8.3e-4 50,50 0 0 0 -2.38e-4,9.42e-4 50,50 0 0 0 -4.631775,12.132744 z m 74.426877,53.623681 0.13641,0.0241 a 50,50 0 0 0 0.0114,-0.007 l -0.13669,-0.0237 a 50,50 0 0 1 -0.0114,0.007 z m -37.376072,5.88783 0.115242,0.16458 a 50,50 0 0 0 0.01309,0.003 l -0.11566,-0.16554 a 50,50 0 0 1 -0.01308,-0.003 z" />
    <path
       sodipodi:type="star"
       style="fill:url(#linearGradient13-7-2);fill-opacity:1;stroke:#fff209;stroke-width:1.665;stroke-opacity:1"
       id="path12-38-9"
       inkscape:flatsided="false"
       sodipodi:sides="8"
       sodipodi:cx="30.437441"
       sodipodi:cy="9.8185291"
       sodipodi:r1="16.25997"
       sodipodi:r2="8.1299849"
       sodipodi:arg1="0.50416596"
       sodipodi:arg2="0.89686504"
       inkscape:rounded="0"
       inkscape:randomized="0"
       d="m 44.674308,17.673352 -9.163248,-1.502261 -0.560833,9.268622 -5.417135,-7.541654 -6.950474,6.157337 1.502261,-9.163247 -9.268622,-0.560833 7.541654,-5.4171354 -6.157337,-6.9504744 9.163247,1.5022614 0.560834,-9.268622 5.417134,7.5416534 6.950475,-6.1573365 -1.502262,9.1632471 9.268622,0.5608332 -7.541653,5.4171352 z"
       transform="matrix(0.49566682,0,0,0.49566682,85.4566,195.01046)" />
    <path
       id="path1-8-4-5"
       style="fill:#0000ff;fill-opacity:1;stroke-width:1.45419"
       d="m 63.648637,76.634893 a 50,50 0 0 0 -2.748073,4.496759 50,50 0 0 0 -6.86e-4,8.94e-4 50,50 0 0 0 -1.73e-4,9.85e-4 50,50 0 0 0 -2.437469,5.214264 6.9159117,6.3395858 10 0 0 6.253821,-5.148462 6.9159117,6.3395858 10 0 0 -1.067408,-4.564509 z" />
    <rect
       style="fill:#ff3838;fill-opacity:1;stroke-width:1.99254"
       id="rect4"
       width="20"
       height="10"
       x="90"
       y="210" />
    <rect
       style="fill:#ffe300;fill-opacity:1;stroke-width:1.93028"
       id="rect5"
       width="20"
       height="10"
       x="90"
       y="225" />
    <rect
       style="fill:#000caa;fill-opacity:1;stroke-width:1.93028"
       id="rect5-8"
       width="20"
       height="10"
       x="90"
       y="240" />
    <rect
       style="fill:#00aa05;fill-opacity:1;stroke-width:1.93028"
       id="rect5-8-5"
       width="20"
       height="10"
       x="90"
       y="255" />
    <text
       xml:space="preserve"
       style="font-size:6.35px;writing-mode:lr-tb;direction:ltr;fill:#00aa05;fill-opacity:1;stroke-width:1.665"
       x="150.22897"
       y="214.39328"
       id="text7"><tspan
         sodipodi:role="line"
         id="tspan7"
         style="stroke-width:1.665"
         x="150.22897"
         y="214.39328" /></text>
    <text
       xml:space="preserve"
       style="font-style:normal;font-variant:normal;font-weight:bold;font-stretch:normal;font-size:6.35px;font-family:sans-serif;-inkscape-font-specification:'sans-serif Bold';writing-mode:lr-tb;direction:ltr;fill:#000000;fill-opacity:1;stroke-width:1.665"
       x="114.84375"
       y="217.08278"
       id="text8"><tspan
         sodipodi:role="line"
         id="tspan8"
         style="stroke-width:1.665"
         x="114.84375"
         y="217.08278">PISTON/TURBINE</tspan></text>
    <text
       xml:space="preserve"
       style="font-style:normal;font-variant:normal;font-weight:bold;font-stretch:normal;font-size:6.35px;font-family:sans-serif;-inkscape-font-specification:'sans-serif Bold';writing-mode:lr-tb;direction:ltr;fill:#000000;fill-opacity:1;stroke-width:1.665"
       x="115.08313"
       y="202.2475"
       id="text8-3"><tspan
         sodipodi:role="line"
         id="tspan8-2"
         style="stroke-width:1.665"
         x="115.08313"
         y="202.2475">COMBUSTION EVENT</tspan></text>
    <text
       xml:space="preserve"
       style="font-style:normal;font-variant:normal;font-weight:bold;font-stretch:normal;font-size:6.35px;font-family:sans-serif;-inkscape-font-specification:'sans-serif Bold';writing-mode:lr-tb;direction:ltr;fill:#000000;fill-opacity:1;stroke-width:1.665"
       x="113.70312"
       y="232.45148"
       id="text9"><tspan
         sodipodi:role="line"
         id="tspan9"
         style="stroke-width:1.665"
         x="113.70312"
         y="232.45148">DRIVE SHAFT</tspan></text>
    <text
       xml:space="preserve"
       style="font-style:normal;font-variant:normal;font-weight:bold;font-stretch:normal;font-size:6.35px;font-family:sans-serif;-inkscape-font-specification:'sans-serif Bold';writing-mode:lr-tb;direction:ltr;fill:#000000;fill-opacity:1;stroke-width:1.665"
       x="116"
       y="248.20438"
       id="text10"><tspan
         sodipodi:role="line"
         id="tspan10"
         style="stroke-width:1.665"
         x="116"
         y="248.20438">OUTER CASING VENT</tspan></text>
    <text
       xml:space="preserve"
       style="font-style:normal;font-variant:normal;font-weight:bold;font-stretch:normal;font-size:6.35px;font-family:sans-serif;-inkscape-font-specification:'sans-serif Bold';writing-mode:lr-tb;direction:ltr;fill:#000000;fill-opacity:1;stroke-width:1.665"
       x="114.07812"
       y="262.42044"
       id="text11"><tspan
         sodipodi:role="line"
         id="tspan11"
         style="stroke-width:1.665"
         x="114.07812"
         y="262.42044">FIXED OUTER CASING</tspan></text>
    <path
       id="path11-50"
       style="fill:#0000ff;fill-opacity:1;stroke-width:1.665"
       d="m 120.43723,149.1013 a 6.9159117,6.3395858 10 0 0 -7.76772,4.42553 50,50 0 0 0 5.87621,-1.30471 50,50 0 0 0 0.70974,-0.18024 50,50 0 0 0 3.14491,-1.15559 50,50 0 0 0 1.16118,-0.44908 6.9159117,6.3395858 10 0 0 -3.12432,-1.33591 z" />
    <path
       id="path11-50-3"
       style="fill:#0000ff;fill-opacity:1;stroke-width:1.665"
       d="m 147.52193,125.01397 a 6.3395858,6.9159117 55 0 0 -2.36329,8.62198 50,50 0 0 0 3.23254,-5.07768 50,50 0 0 0 0.37446,-0.62934 50,50 0 0 0 1.40664,-3.04092 50,50 0 0 0 0.50355,-1.13857 6.3395858,6.9159117 55 0 0 -3.1539,1.26453 z" />
    <path
       id="path11-9"
       style="fill:#0000ff;fill-opacity:1;stroke-width:1.665"
       d="m 81.959025,144.69887 a 6.9159117,6.3395858 10 0 0 -4.996827,0.89148 50,50 0 0 0 10.795007,5.51363 6.9159117,6.3395858 10 0 0 -5.79818,-6.40511 z" />
    <path
       id="path11-9-7"
       style="fill:#0000ff;fill-opacity:1;stroke-width:1.665"
       d="m 55.723586,112.99751 a 50,50 0 0 0 3.083592,10.44707 6.9159117,6.3395858 10 0 0 1.714817,-3.22281 6.9159117,6.3395858 10 0 0 -4.798409,-7.22426 z" />
    <path
       id="path11-9-5"
       style="fill:#0000ff;fill-opacity:1;stroke-width:1.665"
       d="m 97.185192,55.487117 a 50,50 0 0 0 -0.310483,0.04968 50,50 0 0 0 -0.321848,0.06656 50,50 0 0 0 -5.840679,1.347185 50,50 0 0 0 -0.648916,0.216164 50,50 0 0 0 -4.202684,1.50325 6.9159117,6.3395858 10 0 0 3.464377,1.603664 6.9159117,6.3395858 10 0 0 7.860233,-4.786502 z" />
    <path
       id="path11-50-9"
       style="fill:#0000ff;fill-opacity:1;stroke-width:1.665"
       d="m 149.60981,88.3886 a 6.3395858,6.9159117 10 0 0 4.42555,7.767759 50,50 0 0 0 -1.3047,-5.876223 50,50 0 0 0 -0.18023,-0.709789 50,50 0 0 0 -1.15563,-3.144901 50,50 0 0 0 -0.44902,-1.161162 6.3395858,6.9159117 10 0 0 -1.33597,3.124316 z" />
    <path
       id="path11-50-8"
       style="fill:#0000ff;fill-opacity:1;stroke-width:1.665"
       d="m 126.28332,62.245124 a 6.9159117,6.3395858 55 0 0 8.62192,2.363297 50,50 0 0 0 -5.07769,-3.232526 50,50 0 0 0 -0.62929,-0.374443 50,50 0 0 0 -3.0409,-1.406624 50,50 0 0 0 -1.13862,-0.503578 6.9159117,6.3395858 55 0 0 1.2646,3.153839 z" />
    <rect
       style="fill:#ffff00;fill-opacity:1;stroke-width:2.58724"
       id="rect11"
       width="20"
       height="20"
       x="111.56328"
       y="75.231552"
       transform="rotate(10)" />
    <rect
       style="fill:#ffffff;fill-opacity:1;stroke:#000000;stroke-width:1.63286;stroke-opacity:1"
       id="rect12"
       width="18.367134"
       height="8.3671379"
       x="90.816429"
       y="270.81644" />
    <text
       xml:space="preserve"
       style="font-style:normal;font-variant:normal;font-weight:bold;font-stretch:normal;font-size:6.35px;font-family:sans-serif;-inkscape-font-specification:'sans-serif Bold';writing-mode:lr-tb;direction:ltr;fill:#000000;fill-opacity:1;stroke:none;stroke-width:1.665;stroke-opacity:1"
       x="113.13634"
       y="276.62109"
       id="text12"><tspan
         sodipodi:role="line"
         id="tspan12"
         style="fill:#000000;fill-opacity:1;stroke-width:1.665"
         x="113.13634"
         y="276.62109">COMBUSTION CHAMBERS</tspan></text>
    <text
       xml:space="preserve"
       style="font-style:normal;font-variant:normal;font-weight:bold;font-stretch:normal;font-size:6.35px;font-family:sans-serif;-inkscape-font-specification:'sans-serif Bold';writing-mode:lr-tb;direction:ltr;fill:#ff5d00;fill-opacity:1;stroke:#fff209;stroke-width:1.665;stroke-opacity:1"
       x="116.5443"
       y="198.52037"
       id="text13"><tspan
         sodipodi:role="line"
         id="tspan13"
         style="stroke-width:1.665"
         x="116.5443"
         y="198.52037" /></text>
  </g>
  <g
     inkscape:groupmode="layer"
     id="layer2"
     inkscape:label="FIXED CASING">
    <path
       id="path2-1-3"
       style="fill:#2b0000;fill-opacity:1;stroke-width:2.00392"
       d="M 105.02753,24.30093 A 80,80 0 0 0 35.745454,64.301072 80,80 0 0 0 65.027904,173.58329 80,80 0 0 0 174.3096,144.30136 80,80 0 0 0 145.02767,35.019139 80,80 0 0 0 105.02753,24.30093 Z m 0.23254,11.969295 a 7.5614737,5 60 0 1 6.16603,4.506185 l 9.26094,16.040365 a 50,50 0 0 1 9.34051,4.183207 50,50 0 0 1 2.30374,1.414384 V 52.48629 a 5,7.5614737 0 0 1 4.99969,-7.560779 5,7.5614737 0 0 1 5.00021,7.560779 v 18.52135 a 50,50 0 0 1 7.28535,10.669631 l 4.96404,-8.597406 a 5,7.5614737 30 0 1 8.11009,-4.047815 5,7.5614737 30 0 1 0.54984,9.048031 l -9.26041,16.03933 a 50,50 0 0 1 0,5.1e-4 50,50 0 0 1 0.97461,12.882929 l 8.59741,-4.96352 a 5,7.5614737 60 0 1 9.04751,0.54932 5,7.5614737 60 0 1 -4.04781,8.11061 l -16.03882,9.2599 a 50,50 0 0 1 -4.18372,9.34207 50,50 0 0 1 -1.41387,2.30322 h 9.92653 a 7.5614737,5 0 0 1 1.95698,0.17053 7.5614737,5 0 0 1 1.82366,0.49919 7.5614737,5 0 0 1 2.21796,1.28623 7.5614737,5 0 0 1 0.54932,0.54415 7.5614737,5 0 0 1 0.75551,1.20561 7.5614737,5 0 0 1 0.25786,1.29398 7.5614737,5 0 0 1 -0.0646,0.65267 7.5614737,5 0 0 1 -0.51108,1.26039 7.5614737,5 0 0 1 0,5.2e-4 7.5614737,5 0 0 1 -2.38229,2.0531 7.5614737,5 0 0 1 -1.70945,0.65268 7.5614737,5 0 0 1 -2.89388,0.38085 h -18.5198 a 50,50 0 0 1 -10.67015,7.28587 l 8.59637,4.96352 a 7.5614737,5 30 0 1 4.04833,8.1101 7.5614737,5 30 0 1 -9.04802,0.54984 l -16.03882,-9.2599 a 50,50 0 0 1 -12.88397,0.97462 l 4.96353,8.59689 a 7.5614737,5 60 0 1 -0.54933,9.04803 7.5614737,5 60 0 1 -8.110606,-4.04834 l -9.26042,-16.03881 a 50,50 0 0 1 -9.34155,-4.18372 50,50 0 0 1 -2.30322,-1.41439 v 9.92705 a 5,7.5614737 0 0 1 -4.99969,7.56129 5,7.5614737 0 0 1 -5.00021,-7.56129 v -18.52033 a 50,50 0 0 1 -7.28586,-10.67015 l -4.96352,8.59689 a 5,7.5614737 30 0 1 -8.11062,4.04833 5,7.5614737 30 0 1 -0.54932,-9.04802 l 9.2599,-16.03882 a 50,50 0 0 1 0,-5.2e-4 50,50 0 0 1 -0.97462,-12.88345 l -8.59689,4.96352 a 5,7.5614737 60 0 1 -9.04802,-0.54932 5,7.5614737 60 0 1 4.04781,-8.110599 l 16.03985,-9.26094 a 50,50 0 0 1 4.18321,-9.34051 50,50 0 0 1 1.4149,-2.30374 h -9.92808 a 7.5614737,5 0 0 1 -7.56078,-4.999691 7.5614737,5 0 0 1 7.56078,-5.000212 h 18.52135 a 50,50 0 0 1 10.67015,-7.285343 l -8.59741,-4.964038 a 7.5614737,5 30 0 1 -4.04833,-8.110616 7.5614737,5 30 0 1 4.54494,-1.955953 7.5614737,5 30 0 1 4.50309,1.406632 l 16.03984,9.260417 A 50,50 0 0 1 107.7302,54.374546 l -4.96404,-8.597924 a 7.5614737,5 60 0 1 0.54932,-9.048027 7.5614737,5 60 0 1 1.94458,-0.45837 z" />
  </g>
</svg>
