<?xml version="1.0" encoding="UTF-8" standalone="no"?>
<!-- Created with Inkscape (http://www.inkscape.org/) -->

<svg
   width="210mm"
   height="297mm"
   viewBox="0 0 210 297"
   version="1.1"
   id="svg1"
   inkscape:version="1.4.3 (0d15f75, 2025-12-25)"
   sodipodi:docname="IMG5.svg"
   xmlns:inkscape="http://www.inkscape.org/namespaces/inkscape"
   xmlns:sodipodi="http://sodipodi.sourceforge.net/DTD/sodipodi-0.dtd"
   xmlns:xlink="http://www.w3.org/1999/xlink"
   xmlns="http://www.w3.org/2000/svg"
   xmlns:svg="http://www.w3.org/2000/svg">
  <sodipodi:namedview
     id="namedview1"
     pagecolor="#ffffff"
     bordercolor="#000000"
     borderopacity="0.25"
     inkscape:showpageshadow="2"
     inkscape:pageopacity="0.0"
     inkscape:pagecheckerboard="0"
     inkscape:deskcolor="#d1d1d1"
     inkscape:document-units="mm"
     inkscape:zoom="0.61594576"
     inkscape:cx="800.39516"
     inkscape:cy="471.63244"
     inkscape:window-width="1920"
     inkscape:window-height="991"
     inkscape:window-x="-9"
     inkscape:window-y="-9"
     inkscape:window-maximized="1"
     inkscape:current-layer="layer1" />
  <defs
     id="defs1">
    <linearGradient
       id="linearGradient12"
       inkscape:collect="always">
      <stop
         style="stop-color:#ff3d00;stop-opacity:1;"
         offset="0"
         id="stop12" />
      <stop
         style="stop-color:#cbba00;stop-opacity:0.75423729;"
         offset="1"
         id="stop13" />
    </linearGradient>
    <linearGradient
       inkscape:collect="always"
       xlink:href="#linearGradient12"
       id="linearGradient13-7-2"
       x1="12.429228"
       y1="9.8185291"
       x2="48.445656"
       y2="9.8185291"
       gradientUnits="userSpaceOnUse" />
    <linearGradient
       inkscape:collect="always"
       xlink:href="#linearGradient12"
       id="linearGradient13-7-2-5"
       x1="12.429228"
       y1="9.8185291"
       x2="48.445656"
       y2="9.8185291"
       gradientUnits="userSpaceOnUse" />
    <linearGradient
       inkscape:collect="always"
       xlink:href="#linearGradient12"
       id="linearGradient13-7-2-7"
       x1="12.429228"
       y1="9.8185291"
       x2="48.445656"
       y2="9.8185291"
       gradientUnits="userSpaceOnUse" />
    <linearGradient
       inkscape:collect="always"
       xlink:href="#linearGradient12"
       id="linearGradient13-7-2-1"
       x1="12.429228"
       y1="9.8185291"
       x2="48.445656"
       y2="9.8185291"
       gradientUnits="userSpaceOnUse" />
    <linearGradient
       inkscape:collect="always"
       xlink:href="#linearGradient12"
       id="linearGradient13-7-2-4"
       x1="12.429228"
       y1="9.8185291"
       x2="48.445656"
       y2="9.8185291"
       gradientUnits="userSpaceOnUse" />
  </defs>
  <g
     inkscape:label="Layer 1"
     inkscape:groupmode="layer"
     id="layer1">
    <path
       id="path1-8-4"
       style="fill:#ff0000;fill-opacity:1;stroke-width:1.45419"
       d="m 57.373407,89.135328 0.05643,-0.03208 a 50,50 0 0 1 0.004,-0.01281 l -0.05552,0.03181 a 50,50 0 0 0 -0.004,0.01281 z m 0.06012,-0.04507 15.413687,-8.899071 a 5,7.5614737 60 0 1 0.403543,-0.2226 l 0.143664,-0.08384 a 5,7.5614737 60 0 1 9.04866,0.549965 5,7.5614737 60 0 1 -4.048974,8.110446 L 55.010969,102.04554 a 50,50 0 0 0 5.139112,24.29829 l 4.477317,-16.70969 a 5,7.5614737 15 0 1 0.127867,-0.44243 l 0.04341,-0.16099 a 5,7.5614737 15 0 1 6.786925,-6.0094 5,7.5614737 15 0 1 2.872268,8.59762 l -6.894715,25.73298 a 50,50 0 0 0 21.593189,14.25255 l -8.899184,-15.41378 a 7.5614737,5 60 0 1 -0.222428,-0.40326 l -0.08328,-0.14428 a 7.5614737,5 60 0 1 0.549785,-9.04822 7.5614737,5 60 0 1 8.110732,4.04849 l 13.536839,23.44645 a 50,50 0 0 0 12.1864,-0.84185 50,50 0 0 0 0.72271,-0.11766 50,50 0 0 0 3.23394,-0.87688 50,50 0 0 0 8.61208,-3.25737 l -17.192,-4.60662 a 7.5614737,5 15 0 1 -0.4424,-0.12785 l -0.16069,-0.0429 a 7.5614737,5 15 0 1 -6.00947,-6.78688 7.5614737,5 15 0 1 8.5977,-2.87233 l 26.1512,7.00742 a 50,50 0 0 0 13.99607,-21.09711 l -15.14986,8.74663 a 5,7.5614737 60 0 1 -0.40327,0.22244 l -0.14468,0.0826 a 5,7.5614737 60 0 1 -9.0481,-0.5498 5,7.5614737 60 0 1 4.04831,-8.11028 l 23.18071,-13.38401 a 50,50 0 0 0 0.0549,-0.83591 50,50 0 0 0 0.003,-4.65009 50,50 0 0 0 -0.0204,-0.31522 50,50 0 0 0 -3.67103,-16.093445 50,50 0 0 0 -1.43947,-3.145233 l -4.51674,16.859356 a 5,7.5614737 15 0 1 -0.12785,0.442432 l -0.0429,0.160806 a 5,7.5614737 15 0 1 -6.78694,6.009464 5,7.5614737 15 0 1 -2.87212,-8.598138 l 6.91788,-25.817265 a 50,50 0 0 0 -6.63195,-6.189042 50,50 0 0 0 -0.82787,-0.595878 50,50 0 0 0 -4.1321,-2.76784 50,50 0 0 0 -2.065,-1.136455 50,50 0 0 0 -3.19629,-1.58247 50,50 0 0 0 -3.41523,-1.372465 50,50 0 0 0 -0.96414,-0.337022 l 8.86113,15.347898 a 7.5614737,5 60 0 1 0.22243,0.403238 l 0.0827,0.144387 a 7.5614737,5 60 0 1 -0.54939,9.048278 7.5614737,5 60 0 1 -8.11064,-4.048381 l -13.5293,-23.433143 a 50,50 0 0 0 -6.39658,0.0665 50,50 0 0 0 -0.32677,0.03848 50,50 0 0 0 -5.935864,0.832985 50,50 0 0 0 -0.665318,0.158793 50,50 0 0 0 -5.492814,1.51187 50,50 0 0 0 -0.645674,0.235235 50,50 0 0 0 -5.327559,2.238827 50,50 0 0 0 -0.199384,0.09968 l 16.771064,4.493766 a 7.5614737,5 15 0 1 0.442413,0.127856 l 0.160793,0.04314 a 7.5614737,5 15 0 1 6.009413,6.786765 7.5614737,5 15 0 1 -8.597604,2.872265 L 71.611927,67.580714 a 50,50 0 0 0 -0.16162,0.141729 50,50 0 0 0 -4.336166,4.404756 50,50 0 0 0 -0.141624,0.161116 50,50 0 0 0 -3.867026,5.115734 50,50 0 0 0 -6.02e-4,7.81e-4 50,50 0 0 0 -3.19e-4,9.17e-4 50,50 0 0 0 -5.671588,11.68289 z m 69.470046,59.906354 0.13379,0.0359 a 50,50 0 0 0 0.012,-0.006 l -0.1341,-0.0355 a 50,50 0 0 1 -0.012,0.006 z m -37.747001,2.60789 0.10046,0.174 a 50,50 0 0 0 0.01278,0.004 l -0.100792,-0.17499 a 50,50 0 0 1 -0.01277,-0.004 z" />
    <path
       sodipodi:type="star"
       style="fill:url(#linearGradient13-7-2);fill-opacity:1;stroke:#fff209;stroke-width:1.665;stroke-opacity:1"
       id="path12-38-9"
       inkscape:flatsided="false"
       sodipodi:sides="8"
       sodipodi:cx="30.437441"
       sodipodi:cy="9.8185291"
       sodipodi:r1="16.25997"
       sodipodi:r2="8.1299849"
       sodipodi:arg1="0.50416596"
       sodipodi:arg2="0.89686504"
       inkscape:rounded="0"
       inkscape:randomized="0"
       d="m 44.674308,17.673352 -9.163248,-1.502261 -0.560833,9.268622 -5.417135,-7.541654 -6.950474,6.157337 1.502261,-9.163247 -9.268622,-0.560833 7.541654,-5.4171354 -6.157337,-6.9504744 9.163247,1.5022614 0.560834,-9.268622 5.417134,7.5416534 6.950475,-6.1573365 -1.502262,9.1632471 9.268622,0.5608332 -7.541653,5.4171352 z"
       transform="matrix(0.49566682,0,0,0.49566682,85.4566,195.01046)" />
    <path
       id="path1-8-4-5"
       style="fill:#0000ff;fill-opacity:1;stroke-width:1.45419"
       d="m 66.234971,73.16396 a 50,50 0 0 0 -3.129534,4.240137 50,50 0 0 0 -7.61e-4,8.3e-4 50,50 0 0 0 -2.59e-4,9.67e-4 50,50 0 0 0 -2.882646,4.981982 6.9159117,6.3395858 15 0 0 6.678741,-4.583814 6.9159117,6.3395858 15 0 0 -0.665523,-4.64017 z" />
    <rect
       style="fill:#ff3838;fill-opacity:1;stroke-width:1.99254"
       id="rect4"
       width="20"
       height="10"
       x="90"
       y="210" />
    <rect
       style="fill:#ffe300;fill-opacity:1;stroke-width:1.93028"
       id="rect5"
       width="20"
       height="10"
       x="90"
       y="225" />
    <rect
       style="fill:#000caa;fill-opacity:1;stroke-width:1.93028"
       id="rect5-8"
       width="20"
       height="10"
       x="90"
       y="240" />
    <rect
       style="fill:#00aa05;fill-opacity:1;stroke-width:1.93028"
       id="rect5-8-5"
       width="20"
       height="10"
       x="90"
       y="255" />
    <text
       xml:space="preserve"
       style="font-size:6.35px;writing-mode:lr-tb;direction:ltr;fill:#00aa05;fill-opacity:1;stroke-width:1.665"
       x="150.22897"
       y="214.39328"
       id="text7"><tspan
         sodipodi:role="line"
         id="tspan7"
         style="stroke-width:1.665"
         x="150.22897"
         y="214.39328" /></text>
    <text
       xml:space="preserve"
       style="font-style:normal;font-variant:normal;font-weight:bold;font-stretch:normal;font-size:6.35px;font-family:sans-serif;-inkscape-font-specification:'sans-serif Bold';writing-mode:lr-tb;direction:ltr;fill:#000000;fill-opacity:1;stroke-width:1.665"
       x="114.84375"
       y="217.08278"
       id="text8"><tspan
         sodipodi:role="line"
         id="tspan8"
         style="stroke-width:1.665"
         x="114.84375"
         y="217.08278">PISTON/TURBINE</tspan></text>
    <text
       xml:space="preserve"
       style="font-style:normal;font-variant:normal;font-weight:bold;font-stretch:normal;font-size:6.35px;font-family:sans-serif;-inkscape-font-specification:'sans-serif Bold';writing-mode:lr-tb;direction:ltr;fill:#000000;fill-opacity:1;stroke-width:1.665"
       x="115.08313"
       y="202.2475"
       id="text8-3"><tspan
         sodipodi:role="line"
         id="tspan8-2"
         style="stroke-width:1.665"
         x="115.08313"
         y="202.2475">COMBUSTION EVENT</tspan></text>
    <text
       xml:space="preserve"
       style="font-style:normal;font-variant:normal;font-weight:bold;font-stretch:normal;font-size:6.35px;font-family:sans-serif;-inkscape-font-specification:'sans-serif Bold';writing-mode:lr-tb;direction:ltr;fill:#000000;fill-opacity:1;stroke-width:1.665"
       x="113.70312"
       y="232.45148"
       id="text9"><tspan
         sodipodi:role="line"
         id="tspan9"
         style="stroke-width:1.665"
         x="113.70312"
         y="232.45148">DRIVE SHAFT</tspan></text>
    <text
       xml:space="preserve"
       style="font-style:normal;font-variant:normal;font-weight:bold;font-stretch:normal;font-size:6.35px;font-family:sans-serif;-inkscape-font-specification:'sans-serif Bold';writing-mode:lr-tb;direction:ltr;fill:#000000;fill-opacity:1;stroke-width:1.665"
       x="116"
       y="248.20438"
       id="text10"><tspan
         sodipodi:role="line"
         id="tspan10"
         style="stroke-width:1.665"
         x="116"
         y="248.20438">OUTER CASING VENT</tspan></text>
    <text
       xml:space="preserve"
       style="font-style:normal;font-variant:normal;font-weight:bold;font-stretch:normal;font-size:6.35px;font-family:sans-serif;-inkscape-font-specification:'sans-serif Bold';writing-mode:lr-tb;direction:ltr;fill:#000000;fill-opacity:1;stroke-width:1.665"
       x="114.07812"
       y="262.42044"
       id="text11"><tspan
         sodipodi:role="line"
         id="tspan11"
         style="stroke-width:1.665"
         x="114.07812"
         y="262.42044">FIXED OUTER CASING</tspan></text>
    <path
       id="path11-50"
       style="fill:#0000ff;fill-opacity:1;stroke-width:1.665"
       d="m 116.4916,150.30406 a 6.9159117,6.3395858 15 0 0 -8.12387,3.73169 50,50 0 0 0 5.96756,-0.7876 50,50 0 0 0 0.72275,-0.1177 50,50 0 0 0 3.23366,-0.87709 50,50 0 0 0 1.1959,-0.34617 6.9159117,6.3395858 15 0 0 -2.996,-1.60313 z" />
    <path
       id="path11-50-3"
       style="fill:#0000ff;fill-opacity:1;stroke-width:1.665"
       d="m 145.57259,128.66898 a 6.3395858,6.9159117 60 0 0 -3.10576,8.3832 50,50 0 0 0 3.66279,-4.77663 50,50 0 0 0 0.42789,-0.59431 50,50 0 0 0 1.66632,-2.90675 50,50 0 0 0 0.60087,-1.09035 6.3395858,6.9159117 60 0 0 -3.25211,0.98484 z" />
    <path
       id="path11-9"
       style="fill:#0000ff;fill-opacity:1;stroke-width:1.665"
       d="m 78.543516,142.56479 a 6.9159117,6.3395858 15 0 0 -5.05551,0.45258 50,50 0 0 0 10.273384,6.4335 6.9159117,6.3395858 15 0 0 -5.217874,-6.88608 z" />
    <path
       id="path11-9-7"
       style="fill:#0000ff;fill-opacity:1;stroke-width:1.665"
       d="m 55.170866,108.69749 a 50,50 0 0 0 2.161336,10.67607 6.9159117,6.3395858 15 0 0 1.989178,-3.06109 6.9159117,6.3395858 15 0 0 -4.150514,-7.61498 z" />
    <path
       id="path11-9-5"
       style="fill:#0000ff;fill-opacity:1;stroke-width:1.665"
       d="m 101.48706,55.019561 a 50,50 0 0 0 -0.31363,0.02243 50,50 0 0 0 -0.32643,0.03826 50,50 0 0 0 -5.935865,0.83301 50,50 0 0 0 -0.665286,0.158784 50,50 0 0 0 -4.317709,1.131242 6.9159117,6.3395858 15 0 0 3.311426,1.899502 6.9159117,6.3395858 15 0 0 8.247494,-4.083223 z" />
    <path
       id="path11-50-9"
       style="fill:#0000ff;fill-opacity:1;stroke-width:1.665"
       d="m 150.84463,92.36495 a 6.3395858,6.9159117 15 0 0 3.73171,8.12391 50,50 0 0 0 -0.78759,-5.967572 50,50 0 0 0 -0.11768,-0.722796 50,50 0 0 0 -0.87714,-3.233653 50,50 0 0 0 -0.34611,-1.195879 6.3395858,6.9159117 15 0 0 -1.60319,2.99599 z" />
    <path
       id="path11-50-8"
       style="fill:#0000ff;fill-opacity:1;stroke-width:1.665"
       d="m 129.88546,64.28792 a 6.9159117,6.3395858 60 0 0 8.38314,3.105754 50,50 0 0 0 -4.77664,-3.662775 50,50 0 0 0 -0.59426,-0.427864 50,50 0 0 0 -2.90673,-1.666304 50,50 0 0 0 -1.0904,-0.600899 6.9159117,6.3395858 60 0 0 0.98491,3.252055 z" />
    <rect
       style="fill:#ffff00;fill-opacity:1;stroke-width:2.58724"
       id="rect11"
       width="20"
       height="20"
       x="118.4884"
       y="64.341469"
       transform="rotate(15)" />
    <rect
       style="fill:#ffffff;fill-opacity:1;stroke:#000000;stroke-width:1.63286;stroke-opacity:1"
       id="rect12"
       width="18.367134"
       height="8.3671379"
       x="90.816429"
       y="270.81644" />
    <text
       xml:space="preserve"
       style="font-style:normal;font-variant:normal;font-weight:bold;font-stretch:normal;font-size:6.35px;font-family:sans-serif;-inkscape-font-specification:'sans-serif Bold';writing-mode:lr-tb;direction:ltr;fill:#000000;fill-opacity:1;stroke:none;stroke-width:1.665;stroke-opacity:1"
       x="113.13634"
       y="276.62109"
       id="text12"><tspan
         sodipodi:role="line"
         id="tspan12"
         style="fill:#000000;fill-opacity:1;stroke-width:1.665"
         x="113.13634"
         y="276.62109">COMBUSTION CHAMBERS</tspan></text>
    <text
       xml:space="preserve"
       style="font-style:normal;font-variant:normal;font-weight:bold;font-stretch:normal;font-size:6.35px;font-family:sans-serif;-inkscape-font-specification:'sans-serif Bold';writing-mode:lr-tb;direction:ltr;fill:#ff5d00;fill-opacity:1;stroke:#fff209;stroke-width:1.665;stroke-opacity:1"
       x="116.5443"
       y="198.52037"
       id="text13"><tspan
         sodipodi:role="line"
         id="tspan13"
         style="stroke-width:1.665"
         x="116.5443"
         y="198.52037" /></text>
    <path
       sodipodi:type="star"
       style="fill:url(#linearGradient13-7-2-5);fill-opacity:1;stroke:#fff209;stroke-width:1.665;stroke-opacity:1"
       id="path12-38-9-6"
       inkscape:flatsided="false"
       sodipodi:sides="8"
       sodipodi:cx="30.437441"
       sodipodi:cy="9.8185291"
       sodipodi:r1="16.25997"
       sodipodi:r2="8.1299849"
       sodipodi:arg1="0.50416596"
       sodipodi:arg2="0.89686504"
       inkscape:rounded="0"
       inkscape:randomized="0"
       d="m 44.674308,17.673352 -9.163248,-1.502261 -0.560833,9.268622 -5.417135,-7.541654 -6.950474,6.157337 1.502261,-9.163247 -9.268622,-0.560833 7.541654,-5.4171354 -6.157337,-6.9504744 9.163247,1.5022614 0.560834,-9.268622 5.417134,7.5416534 6.950475,-6.1573365 -1.502262,9.1632471 9.268622,0.5608332 -7.541653,5.4171352 z"
       transform="matrix(0.49566682,0,0,0.49566682,69.896207,127.80041)" />
    <path
       sodipodi:type="star"
       style="fill:url(#linearGradient13-7-2-7);fill-opacity:1;stroke:#fff209;stroke-width:1.665;stroke-opacity:1"
       id="path12-38-9-0"
       inkscape:flatsided="false"
       sodipodi:sides="8"
       sodipodi:cx="30.437441"
       sodipodi:cy="9.8185291"
       sodipodi:r1="16.25997"
       sodipodi:r2="8.1299849"
       sodipodi:arg1="0.50416596"
       sodipodi:arg2="0.89686504"
       inkscape:rounded="0"
       inkscape:randomized="0"
       d="m 44.674308,17.673352 -9.163248,-1.502261 -0.560833,9.268622 -5.417135,-7.541654 -6.950474,6.157337 1.502261,-9.163247 -9.268622,-0.560833 7.541654,-5.4171354 -6.157337,-6.9504744 9.163247,1.5022614 0.560834,-9.268622 5.417134,7.5416534 6.950475,-6.1573365 -1.502262,9.1632471 9.268622,0.5608332 -7.541653,5.4171352 z"
       transform="matrix(0.49566682,0,0,0.49566682,109.46843,70.36411)" />
    <path
       sodipodi:type="star"
       style="fill:url(#linearGradient13-7-2-1);fill-opacity:1;stroke:#fff209;stroke-width:1.665;stroke-opacity:1"
       id="path12-38-9-00"
       inkscape:flatsided="false"
       sodipodi:sides="8"
       sodipodi:cx="30.437441"
       sodipodi:cy="9.8185291"
       sodipodi:r1="16.25997"
       sodipodi:r2="8.1299849"
       sodipodi:arg1="0.50416596"
       sodipodi:arg2="0.89686504"
       inkscape:rounded="0"
       inkscape:randomized="0"
       d="m 44.674308,17.673352 -9.163248,-1.502261 -0.560833,9.268622 -5.417135,-7.541654 -6.950474,6.157337 1.502261,-9.163247 -9.268622,-0.560833 7.541654,-5.4171354 -6.157337,-6.9504744 9.163247,1.5022614 0.560834,-9.268622 5.417134,7.5416534 6.950475,-6.1573365 -1.502262,9.1632471 9.268622,0.5608332 -7.541653,5.4171352 z"
       transform="matrix(0.49566682,0,0,0.49566682,61.756131,78.9333)" />
    <path
       sodipodi:type="star"
       style="fill:url(#linearGradient13-7-2-4);fill-opacity:1;stroke:#fff209;stroke-width:1.665;stroke-opacity:1"
       id="path12-38-9-8"
       inkscape:flatsided="false"
       sodipodi:sides="8"
       sodipodi:cx="30.437441"
       sodipodi:cy="9.8185291"
       sodipodi:r1="16.25997"
       sodipodi:r2="8.1299849"
       sodipodi:arg1="0.50416596"
       sodipodi:arg2="0.89686504"
       inkscape:rounded="0"
       inkscape:randomized="0"
       d="m 44.674308,17.673352 -9.163248,-1.502261 -0.560833,9.268622 -5.417135,-7.541654 -6.950474,6.157337 1.502261,-9.163247 -9.268622,-0.560833 7.541654,-5.4171354 -6.157337,-6.9504744 9.163247,1.5022614 0.560834,-9.268622 5.417134,7.5416534 6.950475,-6.1573365 -1.502262,9.1632471 9.268622,0.5608332 -7.541653,5.4171352 z"
       transform="matrix(0.49566682,0,0,0.49566682,118.17214,119.76934)" />
  </g>
  <g
     inkscape:groupmode="layer"
     id="layer2"
     inkscape:label="FIXED CASING">
    <path
       id="path2-1-3"
       style="fill:#2b0000;fill-opacity:1;stroke-width:2.00392"
       d="M 105.02753,24.30093 A 80,80 0 0 0 35.745454,64.301072 80,80 0 0 0 65.027904,173.58329 80,80 0 0 0 174.3096,144.30136 80,80 0 0 0 145.02767,35.019139 80,80 0 0 0 105.02753,24.30093 Z m 0.23254,11.969295 a 7.5614737,5 60 0 1 6.16603,4.506185 l 9.26094,16.040365 a 50,50 0 0 1 9.34051,4.183207 50,50 0 0 1 2.30374,1.414384 V 52.48629 a 5,7.5614737 0 0 1 4.99969,-7.560779 5,7.5614737 0 0 1 5.00021,7.560779 v 18.52135 a 50,50 0 0 1 7.28535,10.669631 l 4.96404,-8.597406 a 5,7.5614737 30 0 1 8.11009,-4.047815 5,7.5614737 30 0 1 0.54984,9.048031 l -9.26041,16.03933 a 50,50 0 0 1 0,5.1e-4 50,50 0 0 1 0.97461,12.882929 l 8.59741,-4.96352 a 5,7.5614737 60 0 1 9.04751,0.54932 5,7.5614737 60 0 1 -4.04781,8.11061 l -16.03882,9.2599 a 50,50 0 0 1 -4.18372,9.34207 50,50 0 0 1 -1.41387,2.30322 h 9.92653 a 7.5614737,5 0 0 1 1.95698,0.17053 7.5614737,5 0 0 1 1.82366,0.49919 7.5614737,5 0 0 1 2.21796,1.28623 7.5614737,5 0 0 1 0.54932,0.54415 7.5614737,5 0 0 1 0.75551,1.20561 7.5614737,5 0 0 1 0.25786,1.29398 7.5614737,5 0 0 1 -0.0646,0.65267 7.5614737,5 0 0 1 -0.51108,1.26039 7.5614737,5 0 0 1 0,5.2e-4 7.5614737,5 0 0 1 -2.38229,2.0531 7.5614737,5 0 0 1 -1.70945,0.65268 7.5614737,5 0 0 1 -2.89388,0.38085 h -18.5198 a 50,50 0 0 1 -10.67015,7.28587 l 8.59637,4.96352 a 7.5614737,5 30 0 1 4.04833,8.1101 7.5614737,5 30 0 1 -9.04802,0.54984 l -16.03882,-9.2599 a 50,50 0 0 1 -12.88397,0.97462 l 4.96353,8.59689 a 7.5614737,5 60 0 1 -0.54933,9.04803 7.5614737,5 60 0 1 -8.110606,-4.04834 l -9.26042,-16.03881 a 50,50 0 0 1 -9.34155,-4.18372 50,50 0 0 1 -2.30322,-1.41439 v 9.92705 a 5,7.5614737 0 0 1 -4.99969,7.56129 5,7.5614737 0 0 1 -5.00021,-7.56129 v -18.52033 a 50,50 0 0 1 -7.28586,-10.67015 l -4.96352,8.59689 a 5,7.5614737 30 0 1 -8.11062,4.04833 5,7.5614737 30 0 1 -0.54932,-9.04802 l 9.2599,-16.03882 a 50,50 0 0 1 0,-5.2e-4 50,50 0 0 1 -0.97462,-12.88345 l -8.59689,4.96352 a 5,7.5614737 60 0 1 -9.04802,-0.54932 5,7.5614737 60 0 1 4.04781,-8.110599 l 16.03985,-9.26094 a 50,50 0 0 1 4.18321,-9.34051 50,50 0 0 1 1.4149,-2.30374 h -9.92808 a 7.5614737,5 0 0 1 -7.56078,-4.999691 7.5614737,5 0 0 1 7.56078,-5.000212 h 18.52135 a 50,50 0 0 1 10.67015,-7.285343 l -8.59741,-4.964038 a 7.5614737,5 30 0 1 -4.04833,-8.110616 7.5614737,5 30 0 1 4.54494,-1.955953 7.5614737,5 30 0 1 4.50309,1.406632 l 16.03984,9.260417 A 50,50 0 0 1 107.7302,54.374546 l -4.96404,-8.597924 a 7.5614737,5 60 0 1 0.54932,-9.048027 7.5614737,5 60 0 1 1.94458,-0.45837 z" />
  </g>
</svg>
