<?xml version="1.0" encoding="UTF-8" standalone="no"?>
<!-- Created with Inkscape (http://www.inkscape.org/) -->

<svg
   width="210mm"
   height="297mm"
   viewBox="0 0 210 297"
   version="1.1"
   id="svg1"
   inkscape:version="1.4.3 (0d15f75, 2025-12-25)"
   sodipodi:docname="IMG6.svg"
   xmlns:inkscape="http://www.inkscape.org/namespaces/inkscape"
   xmlns:sodipodi="http://sodipodi.sourceforge.net/DTD/sodipodi-0.dtd"
   xmlns:xlink="http://www.w3.org/1999/xlink"
   xmlns="http://www.w3.org/2000/svg"
   xmlns:svg="http://www.w3.org/2000/svg">
  <sodipodi:namedview
     id="namedview1"
     pagecolor="#ffffff"
     bordercolor="#000000"
     borderopacity="0.25"
     inkscape:showpageshadow="2"
     inkscape:pageopacity="0.0"
     inkscape:pagecheckerboard="0"
     inkscape:deskcolor="#d1d1d1"
     inkscape:document-units="mm"
     inkscape:zoom="0.61594576"
     inkscape:cx="800.39516"
     inkscape:cy="471.63244"
     inkscape:window-width="1920"
     inkscape:window-height="991"
     inkscape:window-x="-9"
     inkscape:window-y="-9"
     inkscape:window-maximized="1"
     inkscape:current-layer="layer1" />
  <defs
     id="defs1">
    <linearGradient
       id="linearGradient12"
       inkscape:collect="always">
      <stop
         style="stop-color:#ff3d00;stop-opacity:1;"
         offset="0"
         id="stop12" />
      <stop
         style="stop-color:#cbba00;stop-opacity:0.75423729;"
         offset="1"
         id="stop13" />
    </linearGradient>
    <linearGradient
       inkscape:collect="always"
       xlink:href="#linearGradient12"
       id="linearGradient13-7-2"
       x1="12.429228"
       y1="9.8185291"
       x2="48.445656"
       y2="9.8185291"
       gradientUnits="userSpaceOnUse" />
  </defs>
  <g
     inkscape:label="Layer 1"
     inkscape:groupmode="layer"
     id="layer1">
    <path
       id="path1-8-4"
       style="fill:#ff0000;fill-opacity:1;stroke-width:1.45419"
       d="m 58.895713,85.062944 0.05901,-0.02704 a 50,50 0 0 1 0.0051,-0.01241 l -0.05808,0.02685 a 50,50 0 0 0 -0.0051,0.01241 z m 0.06382,-0.03966 16.130639,-7.521816 a 5,7.5614737 65 0 1 0.421408,-0.186582 l 0.150424,-0.071 a 5,7.5614737 65 0 1 8.966295,1.336515 5,7.5614737 65 0 1 -4.740439,7.726692 L 55.417066,97.718129 a 50,50 0 0 0 3.00182,24.653731 l 5.916625,-16.25588 a 5,7.5614737 20 0 1 0.165941,-0.4296 l 0.05728,-0.1566 a 5,7.5614737 20 0 1 7.284852,-5.39501 5,7.5614737 20 0 1 2.112006,8.81524 l -9.111255,25.03414 A 50,50 0 0 0 85.11316,150.06444 L 77.591239,133.9337 a 7.5614737,5 65 0 1 -0.186435,-0.42111 l -0.07039,-0.15099 a 7.5614737,5 65 0 1 1.336297,-8.96588 7.5614737,5 65 0 1 7.727019,4.73999 l 11.441835,24.53704 a 50,50 0 0 0 12.213403,0.22347 50,50 0 0 0 0.73021,-0.0542 50,50 0 0 0 3.29806,-0.59168 50,50 0 0 0 8.86321,-2.49439 l -16.72509,-6.08747 a 7.5614737,5 20 0 1 -0.42957,-0.16592 l -0.15634,-0.0567 a 7.5614737,5 20 0 1 -5.39509,-7.28482 7.5614737,5 20 0 1 8.81532,-2.11206 l 25.44095,9.25999 a 50,50 0 0 0 15.78155,-19.797 l -15.85453,7.39295 a 5,7.5614737 65 0 1 -0.42112,0.18645 l -0.15133,0.0697 a 5,7.5614737 65 0 1 -8.96575,-1.33631 5,7.5614737 65 0 1 4.73976,-7.72658 l 24.25899,-11.31275 a 50,50 0 0 0 0.12755,-0.82794 50,50 0 0 0 0.40827,-4.63214 50,50 0 0 0 0.007,-0.3158 50,50 0 0 0 -2.25442,-16.352151 50,50 0 0 0 -1.15987,-3.258722 l -5.96894,16.401543 a 5,7.5614737 20 0 1 -0.16593,0.4296 l -0.0567,0.15646 a 5,7.5614737 20 0 1 -7.28487,5.39507 5,7.5614737 20 0 1 -2.11182,-8.815737 l 9.14168,-25.11609 a 50,50 0 0 0 -6.0673,-6.743503 50,50 0 0 0 -0.77279,-0.665764 50,50 0 0 0 -3.87514,-3.117444 50,50 0 0 0 -1.95809,-1.312107 50,50 0 0 0 -3.04621,-1.855024 50,50 0 0 0 -3.28261,-1.664899 50,50 0 0 0 -0.9311,-0.41977 l 7.48975,16.061793 a 7.5614737,5 65 0 1 0.18644,0.42109 l 0.0698,0.151045 a 7.5614737,5 65 0 1 -1.33591,8.965964 7.5614737,5 65 0 1 -7.72693,-4.739864 L 111.87867,55.407821 a 50,50 0 0 0 -6.37803,-0.491252 50,50 0 0 0 -0.32888,0.0099 50,50 0 0 0 -5.985879,0.31247 50,50 0 0 0 -0.676626,0.100203 50,50 0 0 0 -5.60368,1.027386 50,50 0 0 0 -0.663719,0.178066 50,50 0 0 0 -5.502413,1.76598 50,50 0 0 0 -0.207313,0.08192 l 16.31559,5.93836 a 7.5614737,5 20 0 1 0.42958,0.165928 l 0.15643,0.05699 a 7.5614737,5 20 0 1 5.39504,7.284694 7.5614737,5 20 0 1 -8.81523,2.112005 L 74.958659,64.831321 a 50,50 0 0 0 -0.173357,0.127103 50,50 0 0 0 -4.703565,4.010073 50,50 0 0 0 -0.155128,0.14816 50,50 0 0 0 -4.298176,4.759233 50,50 0 0 0 -6.68e-4,7.26e-4 50,50 0 0 0 -3.98e-4,8.86e-4 50,50 0 0 0 -6.668236,11.144121 z m 63.984508,65.733104 0.13015,0.0474 a 50,50 0 0 0 0.0125,-0.005 l -0.1305,-0.047 a 50,50 0 0 1 -0.0125,0.005 z m -37.830654,-0.6919 0.08491,0.18209 a 50,50 0 0 0 0.01238,0.005 l -0.08516,-0.18311 a 50,50 0 0 1 -0.01237,-0.005 z" />
    <path
       sodipodi:type="star"
       style="fill:url(#linearGradient13-7-2);fill-opacity:1;stroke:#fff209;stroke-width:1.665;stroke-opacity:1"
       id="path12-38-9"
       inkscape:flatsided="false"
       sodipodi:sides="8"
       sodipodi:cx="30.437441"
       sodipodi:cy="9.8185291"
       sodipodi:r1="16.25997"
       sodipodi:r2="8.1299849"
       sodipodi:arg1="0.50416596"
       sodipodi:arg2="0.89686504"
       inkscape:rounded="0"
       inkscape:randomized="0"
       d="m 44.674308,17.673352 -9.163248,-1.502261 -0.560833,9.268622 -5.417135,-7.541654 -6.950474,6.157337 1.502261,-9.163247 -9.268622,-0.560833 7.541654,-5.4171354 -6.157337,-6.9504744 9.163247,1.5022614 0.560834,-9.268622 5.417134,7.5416534 6.950475,-6.1573365 -1.502262,9.1632471 9.268622,0.5608332 -7.541653,5.4171352 z"
       transform="matrix(0.49566682,0,0,0.49566682,85.4566,195.01046)" />
    <path
       id="path1-8-4-5"
       style="fill:#0000ff;fill-opacity:1;stroke-width:1.45419"
       d="m 69.115552,69.924688 a 50,50 0 0 0 -3.487177,3.951245 50,50 0 0 0 -8.31e-4,7.61e-4 50,50 0 0 0 -3.42e-4,9.41e-4 50,50 0 0 0 -3.305885,4.711785 6.9159117,6.3395858 20 0 0 7.052832,-3.984281 6.9159117,6.3395858 20 0 0 -0.258573,-4.680517 z" />
    <rect
       style="fill:#ff3838;fill-opacity:1;stroke-width:1.99254"
       id="rect4"
       width="20"
       height="10"
       x="90"
       y="210" />
    <rect
       style="fill:#ffe300;fill-opacity:1;stroke-width:1.93028"
       id="rect5"
       width="20"
       height="10"
       x="90"
       y="225" />
    <rect
       style="fill:#000caa;fill-opacity:1;stroke-width:1.93028"
       id="rect5-8"
       width="20"
       height="10"
       x="90"
       y="240" />
    <rect
       style="fill:#00aa05;fill-opacity:1;stroke-width:1.93028"
       id="rect5-8-5"
       width="20"
       height="10"
       x="90"
       y="255" />
    <text
       xml:space="preserve"
       style="font-size:6.35px;writing-mode:lr-tb;direction:ltr;fill:#00aa05;fill-opacity:1;stroke-width:1.665"
       x="150.22897"
       y="214.39328"
       id="text7"><tspan
         sodipodi:role="line"
         id="tspan7"
         style="stroke-width:1.665"
         x="150.22897"
         y="214.39328" /></text>
    <text
       xml:space="preserve"
       style="font-style:normal;font-variant:normal;font-weight:bold;font-stretch:normal;font-size:6.35px;font-family:sans-serif;-inkscape-font-specification:'sans-serif Bold';writing-mode:lr-tb;direction:ltr;fill:#000000;fill-opacity:1;stroke-width:1.665"
       x="114.84375"
       y="217.08278"
       id="text8"><tspan
         sodipodi:role="line"
         id="tspan8"
         style="stroke-width:1.665"
         x="114.84375"
         y="217.08278">PISTON/TURBINE</tspan></text>
    <text
       xml:space="preserve"
       style="font-style:normal;font-variant:normal;font-weight:bold;font-stretch:normal;font-size:6.35px;font-family:sans-serif;-inkscape-font-specification:'sans-serif Bold';writing-mode:lr-tb;direction:ltr;fill:#000000;fill-opacity:1;stroke-width:1.665"
       x="115.08313"
       y="202.2475"
       id="text8-3"><tspan
         sodipodi:role="line"
         id="tspan8-2"
         style="stroke-width:1.665"
         x="115.08313"
         y="202.2475">COMBUSTION EVENT</tspan></text>
    <text
       xml:space="preserve"
       style="font-style:normal;font-variant:normal;font-weight:bold;font-stretch:normal;font-size:6.35px;font-family:sans-serif;-inkscape-font-specification:'sans-serif Bold';writing-mode:lr-tb;direction:ltr;fill:#000000;fill-opacity:1;stroke-width:1.665"
       x="113.70312"
       y="232.45148"
       id="text9"><tspan
         sodipodi:role="line"
         id="tspan9"
         style="stroke-width:1.665"
         x="113.70312"
         y="232.45148">DRIVE SHAFT</tspan></text>
    <text
       xml:space="preserve"
       style="font-style:normal;font-variant:normal;font-weight:bold;font-stretch:normal;font-size:6.35px;font-family:sans-serif;-inkscape-font-specification:'sans-serif Bold';writing-mode:lr-tb;direction:ltr;fill:#000000;fill-opacity:1;stroke-width:1.665"
       x="116"
       y="248.20438"
       id="text10"><tspan
         sodipodi:role="line"
         id="tspan10"
         style="stroke-width:1.665"
         x="116"
         y="248.20438">OUTER CASING VENT</tspan></text>
    <text
       xml:space="preserve"
       style="font-style:normal;font-variant:normal;font-weight:bold;font-stretch:normal;font-size:6.35px;font-family:sans-serif;-inkscape-font-specification:'sans-serif Bold';writing-mode:lr-tb;direction:ltr;fill:#000000;fill-opacity:1;stroke-width:1.665"
       x="114.07812"
       y="262.42044"
       id="text11"><tspan
         sodipodi:role="line"
         id="tspan11"
         style="stroke-width:1.665"
         x="114.07812"
         y="262.42044">FIXED OUTER CASING</tspan></text>
    <path
       id="path11-50"
       style="fill:#0000ff;fill-opacity:1;stroke-width:1.665"
       d="m 112.45774,151.1514 a 6.9159117,6.3395858 20 0 0 -8.4182,3.00945 50,50 0 0 0 6.0135,-0.2645 50,50 0 0 0 0.73026,-0.0543 50,50 0 0 0 3.29779,-0.59192 50,50 0 0 0 1.22152,-0.24062 6.9159117,6.3395858 20 0 0 -2.84487,-1.85815 z" />
    <path
       id="path11-50-3"
       style="fill:#0000ff;fill-opacity:1;stroke-width:1.665"
       d="m 143.31369,132.13322 a 6.3395858,6.9159117 65 0 0 -3.82459,8.08062 50,50 0 0 0 4.06516,-4.43922 50,50 0 0 0 0.47806,-0.55476 50,50 0 0 0 1.91332,-2.75046 50,50 0 0 0 0.69362,-1.03383 6.3395858,6.9159117 65 0 0 -3.32557,0.69765 z" />
    <path
       id="path11-9"
       style="fill:#0000ff;fill-opacity:1;stroke-width:1.665"
       d="m 75.328579,140.13419 a 6.9159117,6.3395858 20 0 0 -5.075717,0.0102 50,50 0 0 0 9.673574,7.3044 6.9159117,6.3395858 20 0 0 -4.597857,-7.31464 z" />
    <path
       id="path11-9-7"
       style="fill:#0000ff;fill-opacity:1;stroke-width:1.665"
       d="m 54.996598,104.3587 a 50,50 0 0 0 1.222631,10.82382 6.9159117,6.3395858 20 0 0 2.2484,-2.87607 6.9159117,6.3395858 20 0 0 -3.471031,-7.94775 z" />
    <path
       id="path11-9-5"
       style="fill:#0000ff;fill-opacity:1;stroke-width:1.665"
       d="m 105.81489,54.921756 a 50,50 0 0 0 -0.3144,-0.005 50,50 0 0 0 -0.32852,0.0097 50,50 0 0 0 -5.985878,0.312496 50,50 0 0 0 -0.676593,0.100196 50,50 0 0 0 -4.399873,0.750624 6.9159117,6.3395858 20 0 0 3.133273,2.180884 6.9159117,6.3395858 20 0 0 8.571981,-3.348869 z" />
    <path
       id="path11-50-9"
       style="fill:#0000ff;fill-opacity:1;stroke-width:1.665"
       d="m 151.72977,96.42683 a 6.3395858,6.9159117 20 0 0 3.00946,8.41824 50,50 0 0 0 -0.26448,-6.01351 50,50 0 0 0 -0.0542,-0.730302 50,50 0 0 0 -0.59197,-3.297796 50,50 0 0 0 -0.24056,-1.221494 6.3395858,6.9159117 20 0 0 -1.85821,2.844862 z" />
    <path
       id="path11-50-8"
       style="fill:#0000ff;fill-opacity:1;stroke-width:1.665"
       d="m 133.29743,66.62993 a 6.9159117,6.3395858 65 0 0 8.08056,3.824574 50,50 0 0 0 -4.43924,-4.065148 50,50 0 0 0 -0.5547,-0.478029 50,50 0 0 0 -2.75045,-1.913302 50,50 0 0 0 -1.03387,-0.693647 6.9159117,6.3395858 65 0 0 0.69772,3.325521 z" />
    <rect
       style="fill:#ffff00;fill-opacity:1;stroke-width:2.58724"
       id="rect11"
       width="20"
       height="20"
       x="124.43713"
       y="52.882183"
       transform="rotate(20)" />
    <rect
       style="fill:#ffffff;fill-opacity:1;stroke:#000000;stroke-width:1.63286;stroke-opacity:1"
       id="rect12"
       width="18.367134"
       height="8.3671379"
       x="90.816429"
       y="270.81644" />
    <text
       xml:space="preserve"
       style="font-style:normal;font-variant:normal;font-weight:bold;font-stretch:normal;font-size:6.35px;font-family:sans-serif;-inkscape-font-specification:'sans-serif Bold';writing-mode:lr-tb;direction:ltr;fill:#000000;fill-opacity:1;stroke:none;stroke-width:1.665;stroke-opacity:1"
       x="113.13634"
       y="276.62109"
       id="text12"><tspan
         sodipodi:role="line"
         id="tspan12"
         style="fill:#000000;fill-opacity:1;stroke-width:1.665"
         x="113.13634"
         y="276.62109">COMBUSTION CHAMBERS</tspan></text>
    <text
       xml:space="preserve"
       style="font-style:normal;font-variant:normal;font-weight:bold;font-stretch:normal;font-size:6.35px;font-family:sans-serif;-inkscape-font-specification:'sans-serif Bold';writing-mode:lr-tb;direction:ltr;fill:#ff5d00;fill-opacity:1;stroke:#fff209;stroke-width:1.665;stroke-opacity:1"
       x="116.5443"
       y="198.52037"
       id="text13"><tspan
         sodipodi:role="line"
         id="tspan13"
         style="stroke-width:1.665"
         x="116.5443"
         y="198.52037" /></text>
  </g>
  <g
     inkscape:groupmode="layer"
     id="layer2"
     inkscape:label="FIXED CASING">
    <path
       id="path2-1-3"
       style="fill:#2b0000;fill-opacity:1;stroke-width:2.00392"
       d="M 105.02753,24.30093 A 80,80 0 0 0 35.745454,64.301072 80,80 0 0 0 65.027904,173.58329 80,80 0 0 0 174.3096,144.30136 80,80 0 0 0 145.02767,35.019139 80,80 0 0 0 105.02753,24.30093 Z m 0.23254,11.969295 a 7.5614737,5 60 0 1 6.16603,4.506185 l 9.26094,16.040365 a 50,50 0 0 1 9.34051,4.183207 50,50 0 0 1 2.30374,1.414384 V 52.48629 a 5,7.5614737 0 0 1 4.99969,-7.560779 5,7.5614737 0 0 1 5.00021,7.560779 v 18.52135 a 50,50 0 0 1 7.28535,10.669631 l 4.96404,-8.597406 a 5,7.5614737 30 0 1 8.11009,-4.047815 5,7.5614737 30 0 1 0.54984,9.048031 l -9.26041,16.03933 a 50,50 0 0 1 0,5.1e-4 50,50 0 0 1 0.97461,12.882929 l 8.59741,-4.96352 a 5,7.5614737 60 0 1 9.04751,0.54932 5,7.5614737 60 0 1 -4.04781,8.11061 l -16.03882,9.2599 a 50,50 0 0 1 -4.18372,9.34207 50,50 0 0 1 -1.41387,2.30322 h 9.92653 a 7.5614737,5 0 0 1 1.95698,0.17053 7.5614737,5 0 0 1 1.82366,0.49919 7.5614737,5 0 0 1 2.21796,1.28623 7.5614737,5 0 0 1 0.54932,0.54415 7.5614737,5 0 0 1 0.75551,1.20561 7.5614737,5 0 0 1 0.25786,1.29398 7.5614737,5 0 0 1 -0.0646,0.65267 7.5614737,5 0 0 1 -0.51108,1.26039 7.5614737,5 0 0 1 0,5.2e-4 7.5614737,5 0 0 1 -2.38229,2.0531 7.5614737,5 0 0 1 -1.70945,0.65268 7.5614737,5 0 0 1 -2.89388,0.38085 h -18.5198 a 50,50 0 0 1 -10.67015,7.28587 l 8.59637,4.96352 a 7.5614737,5 30 0 1 4.04833,8.1101 7.5614737,5 30 0 1 -9.04802,0.54984 l -16.03882,-9.2599 a 50,50 0 0 1 -12.88397,0.97462 l 4.96353,8.59689 a 7.5614737,5 60 0 1 -0.54933,9.04803 7.5614737,5 60 0 1 -8.110606,-4.04834 l -9.26042,-16.03881 a 50,50 0 0 1 -9.34155,-4.18372 50,50 0 0 1 -2.30322,-1.41439 v 9.92705 a 5,7.5614737 0 0 1 -4.99969,7.56129 5,7.5614737 0 0 1 -5.00021,-7.56129 v -18.52033 a 50,50 0 0 1 -7.28586,-10.67015 l -4.96352,8.59689 a 5,7.5614737 30 0 1 -8.11062,4.04833 5,7.5614737 30 0 1 -0.54932,-9.04802 l 9.2599,-16.03882 a 50,50 0 0 1 0,-5.2e-4 50,50 0 0 1 -0.97462,-12.88345 l -8.59689,4.96352 a 5,7.5614737 60 0 1 -9.04802,-0.54932 5,7.5614737 60 0 1 4.04781,-8.110599 l 16.03985,-9.26094 a 50,50 0 0 1 4.18321,-9.34051 50,50 0 0 1 1.4149,-2.30374 h -9.92808 a 7.5614737,5 0 0 1 -7.56078,-4.999691 7.5614737,5 0 0 1 7.56078,-5.000212 h 18.52135 a 50,50 0 0 1 10.67015,-7.285343 l -8.59741,-4.964038 a 7.5614737,5 30 0 1 -4.04833,-8.110616 7.5614737,5 30 0 1 4.54494,-1.955953 7.5614737,5 30 0 1 4.50309,1.406632 l 16.03984,9.260417 A 50,50 0 0 1 107.7302,54.374546 l -4.96404,-8.597924 a 7.5614737,5 60 0 1 0.54932,-9.048027 7.5614737,5 60 0 1 1.94458,-0.45837 z" />
  </g>
</svg>
