<?xml version="1.0" encoding="UTF-8" standalone="no"?>
<!-- Created with Inkscape (http://www.inkscape.org/) -->

<svg
   width="210mm"
   height="297mm"
   viewBox="0 0 210 297"
   version="1.1"
   id="svg1"
   inkscape:version="1.4.3 (0d15f75, 2025-12-25)"
   sodipodi:docname="IMG7.svg"
   xmlns:inkscape="http://www.inkscape.org/namespaces/inkscape"
   xmlns:sodipodi="http://sodipodi.sourceforge.net/DTD/sodipodi-0.dtd"
   xmlns:xlink="http://www.w3.org/1999/xlink"
   xmlns="http://www.w3.org/2000/svg"
   xmlns:svg="http://www.w3.org/2000/svg">
  <sodipodi:namedview
     id="namedview1"
     pagecolor="#ffffff"
     bordercolor="#000000"
     borderopacity="0.25"
     inkscape:showpageshadow="2"
     inkscape:pageopacity="0.0"
     inkscape:pagecheckerboard="0"
     inkscape:deskcolor="#d1d1d1"
     inkscape:document-units="mm"
     inkscape:zoom="0.61594576"
     inkscape:cx="800.39516"
     inkscape:cy="471.63244"
     inkscape:window-width="1920"
     inkscape:window-height="991"
     inkscape:window-x="-9"
     inkscape:window-y="-9"
     inkscape:window-maximized="1"
     inkscape:current-layer="layer1" />
  <defs
     id="defs1">
    <linearGradient
       id="linearGradient12"
       inkscape:collect="always">
      <stop
         style="stop-color:#ff3d00;stop-opacity:1;"
         offset="0"
         id="stop12" />
      <stop
         style="stop-color:#cbba00;stop-opacity:0.75423729;"
         offset="1"
         id="stop13" />
    </linearGradient>
    <linearGradient
       inkscape:collect="always"
       xlink:href="#linearGradient12"
       id="linearGradient13-7-2"
       x1="12.429228"
       y1="9.8185291"
       x2="48.445656"
       y2="9.8185291"
       gradientUnits="userSpaceOnUse" />
  </defs>
  <g
     inkscape:label="Layer 1"
     inkscape:groupmode="layer"
     id="layer1">
    <path
       id="path1-8-4"
       style="fill:#ff0000;fill-opacity:1;stroke-width:1.45419"
       d="m 60.768376,81.13005 0.06114,-0.02179 a 50,50 0 0 1 0.0062,-0.01192 l -0.0602,0.02169 a 50,50 0 0 0 -0.0062,0.01192 z m 0.06703,-0.03395 16.724827,-6.087315 a 5,7.5614737 70 0 1 0.436066,-0.149144 l 0.156039,-0.05762 a 5,7.5614737 70 0 1 8.815691,2.112893 5,7.5614737 70 0 1 -5.395826,7.284133 l -25.372212,9.234843 a 50,50 0 0 0 0.841683,24.821546 l 7.310903,-15.67836 a 5,7.5614737 25 0 1 0.202752,-0.4135 l 0.07071,-0.15101 a 5,7.5614737 25 0 1 7.727337,-4.739565 5,7.5614737 25 0 1 1.33567,8.965765 L 62.430598,130.38355 A 50,50 0 0 0 81.220805,148.1692 L 75.133393,131.44426 A 7.5614737,5 70 0 1 74.98437,131.0085 l -0.05696,-0.15655 a 7.5614737,5 70 0 1 2.11264,-8.81529 7.5614737,5 70 0 1 7.284498,5.3954 l 9.259752,25.4409 a 50,50 0 0 0 12.147453,1.28708 50,50 0 0 0 0.73215,0.01 50,50 0 0 0 3.33708,-0.30198 50,50 0 0 0 9.04688,-1.71242 l -16.13088,-7.52199 a 7.5614737,5 25 0 1 -0.41348,-0.20273 l -0.1508,-0.0701 a 7.5614737,5 25 0 1 -4.739648,-7.72731 7.5614737,5 25 0 1 8.965858,-1.33572 l 24.53707,11.44208 a 50,50 0 0 0 17.44692,-18.34622 l -16.43853,5.98301 a 5,7.5614737 70 0 1 -0.43577,0.14903 l -0.15683,0.0563 a 5,7.5614737 70 0 1 -8.81517,-2.11264 5,7.5614737 70 0 1 5.39514,-7.28408 l 25.15265,-9.15539 a 50,50 0 0 0 0.19923,-0.81368 50,50 0 0 0 0.81043,-4.57893 50,50 0 0 0 0.0345,-0.31398 50,50 0 0 0 -0.82066,-16.486416 50,50 0 0 0 -0.87144,-3.347411 l -7.37572,15.818907 a 5,7.5614737 25 0 1 -0.20274,0.4135 l -0.0701,0.15092 a 5,7.5614737 25 0 1 -7.72736,4.73962 5,7.5614737 25 0 1 -1.33544,-8.96624 l 11.29591,-24.22377 a 50,50 0 0 0 -5.45648,-7.246642 50,50 0 0 0 -0.71183,-0.730583 50,50 0 0 0 -3.58869,-3.443322 50,50 0 0 0 -1.83628,-1.477773 50,50 0 0 0 -2.87294,-2.11346 50,50 0 0 0 -3.12501,-1.944662 50,50 0 0 0 -0.89097,-0.499323 l 6.06137,16.653448 a 7.5614737,5 70 0 1 0.14903,0.435737 l 0.0564,0.156553 a 7.5614737,5 70 0 1 -2.11226,8.815414 7.5614737,5 70 0 1 -7.28442,-5.395274 l -9.25454,-25.42656 a 50,50 0 0 0 -6.31094,-1.045265 50,50 0 0 0 -0.32849,-0.0188 50,50 0 0 0 -5.99034,-0.210423 50,50 0 0 0 -0.68278,0.04085 50,50 0 0 0 -5.671902,0.535084 50,50 0 0 0 -0.676713,0.119541 50,50 0 0 0 -5.63539,1.279693 50,50 0 0 0 -0.213664,0.06354 l 15.735939,7.33776 a 7.5614737,5 25 0 1 0.41349,0.202737 l 0.15086,0.07041 a 7.5614737,5 25 0 1 4.73961,7.727182 7.5614737,5 25 0 1 -8.96576,1.33567 L 78.5335,62.375393 a 50,50 0 0 0 -0.183775,0.11151 50,50 0 0 0 -5.035167,3.584871 50,50 0 0 0 -0.167451,0.134076 50,50 0 0 0 -4.696615,4.366512 50,50 0 0 0 -7.28e-4,6.65e-4 50,50 0 0 0 -4.74e-4,8.47e-4 50,50 0 0 0 -7.614135,10.52054 z m 58.01201,71.059587 0.12552,0.0586 a 50,50 0 0 0 0.0129,-0.004 l -0.1259,-0.0582 a 50,50 0 0 1 -0.0129,0.004 z m -37.626394,-3.98643 0.06872,0.1888 a 50,50 0 0 0 0.0119,0.006 l -0.06888,-0.18983 a 50,50 0 0 1 -0.01189,-0.006 z" />
    <path
       sodipodi:type="star"
       style="fill:url(#linearGradient13-7-2);fill-opacity:1;stroke:#fff209;stroke-width:1.665;stroke-opacity:1"
       id="path12-38-9"
       inkscape:flatsided="false"
       sodipodi:sides="8"
       sodipodi:cx="30.437441"
       sodipodi:cy="9.8185291"
       sodipodi:r1="16.25997"
       sodipodi:r2="8.1299849"
       sodipodi:arg1="0.50416596"
       sodipodi:arg2="0.89686504"
       inkscape:rounded="0"
       inkscape:randomized="0"
       d="m 44.674308,17.673352 -9.163248,-1.502261 -0.560833,9.268622 -5.417135,-7.541654 -6.950474,6.157337 1.502261,-9.163247 -9.268622,-0.560833 7.541654,-5.4171354 -6.157337,-6.9504744 9.163247,1.5022614 0.560834,-9.268622 5.417134,7.5416534 6.950475,-6.1573365 -1.502262,9.1632471 9.268622,0.5608332 -7.541653,5.4171352 z"
       transform="matrix(0.49566682,0,0,0.49566682,85.4566,195.01046)" />
    <path
       id="path1-8-4-5"
       style="fill:#0000ff;fill-opacity:1;stroke-width:1.45419"
       d="m 72.268712,66.940117 a 50,50 0 0 0 -3.818281,3.632282 50,50 0 0 0 -8.94e-4,6.86e-4 50,50 0 0 0 -4.23e-4,9.08e-4 50,50 0 0 0 -3.703964,4.405728 6.9159117,6.3395858 25 0 0 7.373247,-3.354425 6.9159117,6.3395858 25 0 0 0.150345,-4.685242 z" />
    <rect
       style="fill:#ff3838;fill-opacity:1;stroke-width:1.99254"
       id="rect4"
       width="20"
       height="10"
       x="90"
       y="210" />
    <rect
       style="fill:#ffe300;fill-opacity:1;stroke-width:1.93028"
       id="rect5"
       width="20"
       height="10"
       x="90"
       y="225" />
    <rect
       style="fill:#000caa;fill-opacity:1;stroke-width:1.93028"
       id="rect5-8"
       width="20"
       height="10"
       x="90"
       y="240" />
    <rect
       style="fill:#00aa05;fill-opacity:1;stroke-width:1.93028"
       id="rect5-8-5"
       width="20"
       height="10"
       x="90"
       y="255" />
    <text
       xml:space="preserve"
       style="font-size:6.35px;writing-mode:lr-tb;direction:ltr;fill:#00aa05;fill-opacity:1;stroke-width:1.665"
       x="150.22897"
       y="214.39328"
       id="text7"><tspan
         sodipodi:role="line"
         id="tspan7"
         style="stroke-width:1.665"
         x="150.22897"
         y="214.39328" /></text>
    <text
       xml:space="preserve"
       style="font-style:normal;font-variant:normal;font-weight:bold;font-stretch:normal;font-size:6.35px;font-family:sans-serif;-inkscape-font-specification:'sans-serif Bold';writing-mode:lr-tb;direction:ltr;fill:#000000;fill-opacity:1;stroke-width:1.665"
       x="114.84375"
       y="217.08278"
       id="text8"><tspan
         sodipodi:role="line"
         id="tspan8"
         style="stroke-width:1.665"
         x="114.84375"
         y="217.08278">PISTON/TURBINE</tspan></text>
    <text
       xml:space="preserve"
       style="font-style:normal;font-variant:normal;font-weight:bold;font-stretch:normal;font-size:6.35px;font-family:sans-serif;-inkscape-font-specification:'sans-serif Bold';writing-mode:lr-tb;direction:ltr;fill:#000000;fill-opacity:1;stroke-width:1.665"
       x="115.08313"
       y="202.2475"
       id="text8-3"><tspan
         sodipodi:role="line"
         id="tspan8-2"
         style="stroke-width:1.665"
         x="115.08313"
         y="202.2475">COMBUSTION EVENT</tspan></text>
    <text
       xml:space="preserve"
       style="font-style:normal;font-variant:normal;font-weight:bold;font-stretch:normal;font-size:6.35px;font-family:sans-serif;-inkscape-font-specification:'sans-serif Bold';writing-mode:lr-tb;direction:ltr;fill:#000000;fill-opacity:1;stroke-width:1.665"
       x="113.70312"
       y="232.45148"
       id="text9"><tspan
         sodipodi:role="line"
         id="tspan9"
         style="stroke-width:1.665"
         x="113.70312"
         y="232.45148">DRIVE SHAFT</tspan></text>
    <text
       xml:space="preserve"
       style="font-style:normal;font-variant:normal;font-weight:bold;font-stretch:normal;font-size:6.35px;font-family:sans-serif;-inkscape-font-specification:'sans-serif Bold';writing-mode:lr-tb;direction:ltr;fill:#000000;fill-opacity:1;stroke-width:1.665"
       x="116"
       y="248.20438"
       id="text10"><tspan
         sodipodi:role="line"
         id="tspan10"
         style="stroke-width:1.665"
         x="116"
         y="248.20438">OUTER CASING VENT</tspan></text>
    <text
       xml:space="preserve"
       style="font-style:normal;font-variant:normal;font-weight:bold;font-stretch:normal;font-size:6.35px;font-family:sans-serif;-inkscape-font-specification:'sans-serif Bold';writing-mode:lr-tb;direction:ltr;fill:#000000;fill-opacity:1;stroke-width:1.665"
       x="114.07812"
       y="262.42044"
       id="text11"><tspan
         sodipodi:role="line"
         id="tspan11"
         style="stroke-width:1.665"
         x="114.07812"
         y="262.42044">FIXED OUTER CASING</tspan></text>
    <path
       id="path11-50"
       style="fill:#0000ff;fill-opacity:1;stroke-width:1.665"
       d="m 108.3666,151.63526 a 6.9159117,6.3395858 25 0 0 -8.648462,2.2643 50,50 0 0 0 6.013672,0.26062 50,50 0 0 0 0.73221,0.01 50,50 0 0 0 3.33683,-0.30224 50,50 0 0 0 1.23784,-0.13325 6.9159117,6.3395858 25 0 0 -2.67209,-2.09902 z" />
    <path
       id="path11-50-3"
       style="fill:#0000ff;fill-opacity:1;stroke-width:1.665"
       d="m 140.76267,135.37872 a 6.3395858,6.9159117 70 0 0 -4.51431,7.71654 50,50 0 0 0 4.4366,-4.06803 50,50 0 0 0 0.52459,-0.51098 50,50 0 0 0 2.14576,-2.57324 50,50 0 0 0 0.78108,-0.96944 6.3395858,6.9159117 70 0 0 -3.37372,0.40515 z" />
    <path
       id="path11-9"
       style="fill:#0000ff;fill-opacity:1;stroke-width:1.665"
       d="m 72.338935,137.42395 a 6.9159117,6.3395858 25 0 0 -5.057291,-0.43221 50,50 0 0 0 9.000142,8.11971 6.9159117,6.3395858 25 0 0 -3.942847,-7.68754 z" />
    <path
       id="path11-9-7"
       style="fill:#0000ff;fill-opacity:1;stroke-width:1.665"
       d="m 55.202363,100.01255 a 50,50 0 0 0 0.27462,10.88919 6.9159117,6.3395858 25 0 0 2.49051,-2.66916 6.9159117,6.3395858 25 0 0 -2.76513,-8.22003 z" />
    <path
       id="path11-9-5"
       style="fill:#0000ff;fill-opacity:1;stroke-width:1.665"
       d="m 110.13599,55.192834 a 50,50 0 0 0 -0.31277,-0.03238 50,50 0 0 0 -0.32811,-0.01897 50,50 0 0 0 -5.99034,-0.210397 50,50 0 0 0 -0.68275,0.04085 50,50 0 0 0 -4.448552,0.364294 6.9159117,6.3395858 25 0 0 2.931272,2.445667 6.9159117,6.3395858 25 0 0 8.83124,-2.589028 z" />
    <path
       id="path11-50-9"
       style="fill:#0000ff;fill-opacity:1;stroke-width:1.665"
       d="m 152.25874,100.54171 a 6.3395858,6.9159117 25 0 0 2.26431,8.6485 50,50 0 0 0 0.26064,-6.01368 50,50 0 0 0 0.01,-0.73224 50,50 0 0 0 -0.3023,-3.336843 50,50 0 0 0 -0.13318,-1.237812 6.3395858,6.9159117 25 0 0 -2.09909,2.672085 z" />
    <path
       id="path11-50-8"
       style="fill:#0000ff;fill-opacity:1;stroke-width:1.665"
       d="m 136.49352,69.251716 a 6.9159117,6.3395858 70 0 0 7.71647,4.514288 50,50 0 0 0 -4.06804,-4.436584 50,50 0 0 0 -0.51093,-0.524556 50,50 0 0 0 -2.57323,-2.145738 50,50 0 0 0 -0.96948,-0.781116 6.9159117,6.3395858 70 0 0 0.40523,3.373677 z" />
    <rect
       style="fill:#ffff00;fill-opacity:1;stroke-width:2.58724"
       id="rect11"
       width="20"
       height="20"
       x="129.36192"
       y="40.939651"
       transform="rotate(25)" />
    <rect
       style="fill:#ffffff;fill-opacity:1;stroke:#000000;stroke-width:1.63286;stroke-opacity:1"
       id="rect12"
       width="18.367134"
       height="8.3671379"
       x="90.816429"
       y="270.81644" />
    <text
       xml:space="preserve"
       style="font-style:normal;font-variant:normal;font-weight:bold;font-stretch:normal;font-size:6.35px;font-family:sans-serif;-inkscape-font-specification:'sans-serif Bold';writing-mode:lr-tb;direction:ltr;fill:#000000;fill-opacity:1;stroke:none;stroke-width:1.665;stroke-opacity:1"
       x="113.13634"
       y="276.62109"
       id="text12"><tspan
         sodipodi:role="line"
         id="tspan12"
         style="fill:#000000;fill-opacity:1;stroke-width:1.665"
         x="113.13634"
         y="276.62109">COMBUSTION CHAMBERS</tspan></text>
    <text
       xml:space="preserve"
       style="font-style:normal;font-variant:normal;font-weight:bold;font-stretch:normal;font-size:6.35px;font-family:sans-serif;-inkscape-font-specification:'sans-serif Bold';writing-mode:lr-tb;direction:ltr;fill:#ff5d00;fill-opacity:1;stroke:#fff209;stroke-width:1.665;stroke-opacity:1"
       x="116.5443"
       y="198.52037"
       id="text13"><tspan
         sodipodi:role="line"
         id="tspan13"
         style="stroke-width:1.665"
         x="116.5443"
         y="198.52037" /></text>
  </g>
  <g
     inkscape:groupmode="layer"
     id="layer2"
     inkscape:label="FIXED CASING">
    <path
       id="path2-1-3"
       style="fill:#2b0000;fill-opacity:1;stroke-width:2.00392"
       d="M 105.02753,24.30093 A 80,80 0 0 0 35.745454,64.301072 80,80 0 0 0 65.027904,173.58329 80,80 0 0 0 174.3096,144.30136 80,80 0 0 0 145.02767,35.019139 80,80 0 0 0 105.02753,24.30093 Z m 0.23254,11.969295 a 7.5614737,5 60 0 1 6.16603,4.506185 l 9.26094,16.040365 a 50,50 0 0 1 9.34051,4.183207 50,50 0 0 1 2.30374,1.414384 V 52.48629 a 5,7.5614737 0 0 1 4.99969,-7.560779 5,7.5614737 0 0 1 5.00021,7.560779 v 18.52135 a 50,50 0 0 1 7.28535,10.669631 l 4.96404,-8.597406 a 5,7.5614737 30 0 1 8.11009,-4.047815 5,7.5614737 30 0 1 0.54984,9.048031 l -9.26041,16.03933 a 50,50 0 0 1 0,5.1e-4 50,50 0 0 1 0.97461,12.882929 l 8.59741,-4.96352 a 5,7.5614737 60 0 1 9.04751,0.54932 5,7.5614737 60 0 1 -4.04781,8.11061 l -16.03882,9.2599 a 50,50 0 0 1 -4.18372,9.34207 50,50 0 0 1 -1.41387,2.30322 h 9.92653 a 7.5614737,5 0 0 1 1.95698,0.17053 7.5614737,5 0 0 1 1.82366,0.49919 7.5614737,5 0 0 1 2.21796,1.28623 7.5614737,5 0 0 1 0.54932,0.54415 7.5614737,5 0 0 1 0.75551,1.20561 7.5614737,5 0 0 1 0.25786,1.29398 7.5614737,5 0 0 1 -0.0646,0.65267 7.5614737,5 0 0 1 -0.51108,1.26039 7.5614737,5 0 0 1 0,5.2e-4 7.5614737,5 0 0 1 -2.38229,2.0531 7.5614737,5 0 0 1 -1.70945,0.65268 7.5614737,5 0 0 1 -2.89388,0.38085 h -18.5198 a 50,50 0 0 1 -10.67015,7.28587 l 8.59637,4.96352 a 7.5614737,5 30 0 1 4.04833,8.1101 7.5614737,5 30 0 1 -9.04802,0.54984 l -16.03882,-9.2599 a 50,50 0 0 1 -12.88397,0.97462 l 4.96353,8.59689 a 7.5614737,5 60 0 1 -0.54933,9.04803 7.5614737,5 60 0 1 -8.110606,-4.04834 l -9.26042,-16.03881 a 50,50 0 0 1 -9.34155,-4.18372 50,50 0 0 1 -2.30322,-1.41439 v 9.92705 a 5,7.5614737 0 0 1 -4.99969,7.56129 5,7.5614737 0 0 1 -5.00021,-7.56129 v -18.52033 a 50,50 0 0 1 -7.28586,-10.67015 l -4.96352,8.59689 a 5,7.5614737 30 0 1 -8.11062,4.04833 5,7.5614737 30 0 1 -0.54932,-9.04802 l 9.2599,-16.03882 a 50,50 0 0 1 0,-5.2e-4 50,50 0 0 1 -0.97462,-12.88345 l -8.59689,4.96352 a 5,7.5614737 60 0 1 -9.04802,-0.54932 5,7.5614737 60 0 1 4.04781,-8.110599 l 16.03985,-9.26094 a 50,50 0 0 1 4.18321,-9.34051 50,50 0 0 1 1.4149,-2.30374 h -9.92808 a 7.5614737,5 0 0 1 -7.56078,-4.999691 7.5614737,5 0 0 1 7.56078,-5.000212 h 18.52135 a 50,50 0 0 1 10.67015,-7.285343 l -8.59741,-4.964038 a 7.5614737,5 30 0 1 -4.04833,-8.110616 7.5614737,5 30 0 1 4.54494,-1.955953 7.5614737,5 30 0 1 4.50309,1.406632 l 16.03984,9.260417 A 50,50 0 0 1 107.7302,54.374546 l -4.96404,-8.597924 a 7.5614737,5 60 0 1 0.54932,-9.048027 7.5614737,5 60 0 1 1.94458,-0.45837 z" />
  </g>
</svg>
