<?xml version="1.0" encoding="UTF-8" standalone="no"?>
<!-- Created with Inkscape (http://www.inkscape.org/) -->

<svg
   width="210mm"
   height="297mm"
   viewBox="0 0 210 297"
   version="1.1"
   id="svg1"
   inkscape:version="1.4.3 (0d15f75, 2025-12-25)"
   sodipodi:docname="IMG8.svg"
   xmlns:inkscape="http://www.inkscape.org/namespaces/inkscape"
   xmlns:sodipodi="http://sodipodi.sourceforge.net/DTD/sodipodi-0.dtd"
   xmlns:xlink="http://www.w3.org/1999/xlink"
   xmlns="http://www.w3.org/2000/svg"
   xmlns:svg="http://www.w3.org/2000/svg">
  <sodipodi:namedview
     id="namedview1"
     pagecolor="#ffffff"
     bordercolor="#000000"
     borderopacity="0.25"
     inkscape:showpageshadow="2"
     inkscape:pageopacity="0.0"
     inkscape:pagecheckerboard="0"
     inkscape:deskcolor="#d1d1d1"
     inkscape:document-units="mm"
     inkscape:zoom="0.61594576"
     inkscape:cx="800.39516"
     inkscape:cy="471.63244"
     inkscape:window-width="1920"
     inkscape:window-height="991"
     inkscape:window-x="-9"
     inkscape:window-y="-9"
     inkscape:window-maximized="1"
     inkscape:current-layer="layer1" />
  <defs
     id="defs1">
    <linearGradient
       id="linearGradient12"
       inkscape:collect="always">
      <stop
         style="stop-color:#ff3d00;stop-opacity:1;"
         offset="0"
         id="stop12" />
      <stop
         style="stop-color:#cbba00;stop-opacity:0.75423729;"
         offset="1"
         id="stop13" />
    </linearGradient>
    <linearGradient
       inkscape:collect="always"
       xlink:href="#linearGradient12"
       id="linearGradient13-7-2"
       x1="12.429228"
       y1="9.8185291"
       x2="48.445656"
       y2="9.8185291"
       gradientUnits="userSpaceOnUse" />
    <linearGradient
       inkscape:collect="always"
       xlink:href="#linearGradient12"
       id="linearGradient13-7-2-6"
       x1="12.429228"
       y1="9.8185291"
       x2="48.445656"
       y2="9.8185291"
       gradientUnits="userSpaceOnUse" />
    <linearGradient
       inkscape:collect="always"
       xlink:href="#linearGradient12"
       id="linearGradient13-7-2-2"
       x1="12.429228"
       y1="9.8185291"
       x2="48.445656"
       y2="9.8185291"
       gradientUnits="userSpaceOnUse" />
    <linearGradient
       inkscape:collect="always"
       xlink:href="#linearGradient12"
       id="linearGradient13-7-2-5"
       x1="12.429228"
       y1="9.8185291"
       x2="48.445656"
       y2="9.8185291"
       gradientUnits="userSpaceOnUse" />
    <linearGradient
       inkscape:collect="always"
       xlink:href="#linearGradient12"
       id="linearGradient13-7-2-65"
       x1="12.429228"
       y1="9.8185291"
       x2="48.445656"
       y2="9.8185291"
       gradientUnits="userSpaceOnUse" />
  </defs>
  <g
     inkscape:label="Layer 1"
     inkscape:groupmode="layer"
     id="layer1">
    <path
       id="path1-8-4"
       style="fill:#ff0000;fill-opacity:1;stroke-width:1.45419"
       d="m 62.976913,77.371945 0.06281,-0.01638 a 50,50 0 0 1 0.0072,-0.01133 l -0.06186,0.01636 a 50,50 0 0 0 -0.0072,0.01133 z m 0.06973,-0.02798 17.191728,-4.606486 a 5,7.5614737 75 0 1 0.447406,-0.110571 l 0.160467,-0.0438 a 5,7.5614737 75 0 1 8.597994,2.873191 5,7.5614737 75 0 1 -6.010148,6.786137 l -26.080532,6.988368 a 50,50 0 0 0 -1.32486,24.800446 l 8.649542,-14.981508 a 5,7.5614737 30 0 1 0.238019,-0.394256 l 0.0836,-0.144272 a 5,7.5614737 30 0 1 8.111013,-4.048048 5,7.5614737 30 0 1 0.549169,9.048054 l -13.319963,23.07167 a 50,50 0 0 0 17.168583,19.35565 l -4.606573,-17.19185 a 7.5614737,5 75 0 1 -0.110477,-0.44709 l -0.0431,-0.16092 a 7.5614737,5 75 0 1 2.872904,-8.59762 7.5614737,5 75 0 1 6.786539,6.00976 l 7.007195,26.15113 a 50,50 0 0 0 11.989054,2.3409 50,50 0 0 0 0.72849,0.0738 50,50 0 0 0 3.3507,-0.01 50,50 0 0 0 9.1617,-0.91742 l -15.413911,-8.89926 a 7.5614737,5 30 0 1 -0.394237,-0.238 l -0.144117,-0.083 a 7.5614737,5 30 0 1 -4.048132,-8.11099 7.5614737,5 30 0 1 9.048157,-0.54921 l 23.44645,13.53709 a 50,50 0 0 0 18.97951,-16.75581 l -16.89743,4.52753 a 5,7.5614737 75 0 1 -0.4471,0.11048 l -0.16114,0.0424 a 5,7.5614737 75 0 1 -8.5975,-2.87289 5,7.5614737 75 0 1 6.00946,-6.78615 L 151.88,120.1831 a 50,50 0 0 0 0.26938,-0.79322 50,50 0 0 0 1.20643,-4.49087 50,50 0 0 0 0.0617,-0.30978 50,50 0 0 0 0.61935,-16.495208 50,50 0 0 0 -0.57638,-3.410624 l -8.72636,15.115872 a 5,7.5614737 30 0 1 -0.238,0.39426 l -0.083,0.14424 a 5,7.5614737 30 0 1 -8.11104,4.0481 5,7.5614737 30 0 1 -0.5489,-9.04852 l 13.36417,-23.147083 a 50,50 0 0 0 -4.80413,-7.69463 50,50 0 0 0 -0.64545,-0.789843 50,50 0 0 0 -3.27493,-3.742994 50,50 0 0 0 -1.7005,-1.632192 50,50 0 0 0 -2.6778,-2.355811 50,50 0 0 0 -2.94363,-2.209625 50,50 0 0 0 -0.84406,-0.575076 l 4.58686,17.11836 a 7.5614737,5 75 0 1 0.11048,0.447068 l 0.0425,0.160873 a 7.5614737,5 75 0 1 -2.87253,8.597773 7.5614737,5 75 0 1 -6.78647,-6.009623 l -7.00326,-26.13639 a 50,50 0 0 0 -6.19582,-1.591322 50,50 0 0 0 -0.3256,-0.04736 50,50 0 0 0 -5.94921,-0.731714 50,50 0 0 0 -0.68374,-0.01881 50,50 0 0 0 -5.69695,0.03871 50,50 0 0 0 -0.68456,0.06011 50,50 0 0 0 -5.725478,0.783666 50,50 0 0 0 -0.218389,0.04468 l 15.036527,8.681315 a 7.5614737,5 30 0 1 0.39425,0.238003 l 0.14415,0.08329 a 7.5614737,5 30 0 1 4.04811,8.110862 7.5614737,5 30 0 1 -9.04806,0.549169 L 82.309011,60.236987 a 50,50 0 0 0 -0.192794,0.09507 50,50 0 0 0 -5.328449,3.132386 50,50 0 0 0 -0.178499,0.118971 50,50 0 0 0 -5.05931,3.940559 50,50 0 0 0 -7.83e-4,5.99e-4 50,50 0 0 0 -5.46e-4,8.03e-4 50,50 0 0 0 -8.502086,9.81689 z m 51.598003,75.845264 0.11994,0.0693 a 50,50 0 0 0 0.0132,-0.003 l -0.12035,-0.069 a 50,50 0 0 1 -0.0132,0.003 z m -37.135771,-7.25062 0.052,0.19407 a 50,50 0 0 0 0.01133,0.007 l -0.05207,-0.19511 a 50,50 0 0 1 -0.01132,-0.007 z" />
    <path
       sodipodi:type="star"
       style="fill:url(#linearGradient13-7-2);fill-opacity:1;stroke:#fff209;stroke-width:1.665;stroke-opacity:1"
       id="path12-38-9"
       inkscape:flatsided="false"
       sodipodi:sides="8"
       sodipodi:cx="30.437441"
       sodipodi:cy="9.8185291"
       sodipodi:r1="16.25997"
       sodipodi:r2="8.1299849"
       sodipodi:arg1="0.50416596"
       sodipodi:arg2="0.89686504"
       inkscape:rounded="0"
       inkscape:randomized="0"
       d="m 44.674308,17.673352 -9.163248,-1.502261 -0.560833,9.268622 -5.417135,-7.541654 -6.950474,6.157337 1.502261,-9.163247 -9.268622,-0.560833 7.541654,-5.4171354 -6.157337,-6.9504744 9.163247,1.5022614 0.560834,-9.268622 5.417134,7.5416534 6.950475,-6.1573365 -1.502262,9.1632471 9.268622,0.5608332 -7.541653,5.4171352 z"
       transform="matrix(0.49566682,0,0,0.49566682,85.4566,195.01046)" />
    <path
       sodipodi:type="star"
       style="fill:url(#linearGradient13-7-2-6);fill-opacity:1;stroke:#fff209;stroke-width:1.665;stroke-opacity:1"
       id="path12-38-9-8"
       inkscape:flatsided="false"
       sodipodi:sides="8"
       sodipodi:cx="30.437441"
       sodipodi:cy="9.8185291"
       sodipodi:r1="16.25997"
       sodipodi:r2="8.1299849"
       sodipodi:arg1="0.50416596"
       sodipodi:arg2="0.89686504"
       inkscape:rounded="0"
       inkscape:randomized="0"
       d="m 44.674308,17.673352 -9.163248,-1.502261 -0.560833,9.268622 -5.417135,-7.541654 -6.950474,6.157337 1.502261,-9.163247 -9.268622,-0.560833 7.541654,-5.4171354 -6.157337,-6.9504744 9.163247,1.5022614 0.560834,-9.268622 5.417134,7.5416534 6.950475,-6.1573365 -1.502262,9.1632471 9.268622,0.5608332 -7.541653,5.4171352 z"
       transform="matrix(0.49566682,0,0,0.49566682,93.584028,64.281606)" />
    <path
       sodipodi:type="star"
       style="fill:url(#linearGradient13-7-2-2);fill-opacity:1;stroke:#fff209;stroke-width:1.665;stroke-opacity:1"
       id="path12-38-9-0"
       inkscape:flatsided="false"
       sodipodi:sides="8"
       sodipodi:cx="30.437441"
       sodipodi:cy="9.8185291"
       sodipodi:r1="16.25997"
       sodipodi:r2="8.1299849"
       sodipodi:arg1="0.50416596"
       sodipodi:arg2="0.89686504"
       inkscape:rounded="0"
       inkscape:randomized="0"
       d="m 44.674308,17.673352 -9.163248,-1.502261 -0.560833,9.268622 -5.417135,-7.541654 -6.950474,6.157337 1.502261,-9.163247 -9.268622,-0.560833 7.541654,-5.4171354 -6.157337,-6.9504744 9.163247,1.5022614 0.560834,-9.268622 5.417134,7.5416534 6.950475,-6.1573365 -1.502262,9.1632471 9.268622,0.5608332 -7.541653,5.4171352 z"
       transform="matrix(0.49566682,0,0,0.49566682,55.393819,94.406724)" />
    <path
       sodipodi:type="star"
       style="fill:url(#linearGradient13-7-2-5);fill-opacity:1;stroke:#fff209;stroke-width:1.665;stroke-opacity:1"
       id="path12-38-9-4"
       inkscape:flatsided="false"
       sodipodi:sides="8"
       sodipodi:cx="30.437441"
       sodipodi:cy="9.8185291"
       sodipodi:r1="16.25997"
       sodipodi:r2="8.1299849"
       sodipodi:arg1="0.50416596"
       sodipodi:arg2="0.89686504"
       inkscape:rounded="0"
       inkscape:randomized="0"
       d="m 44.674308,17.673352 -9.163248,-1.502261 -0.560833,9.268622 -5.417135,-7.541654 -6.950474,6.157337 1.502261,-9.163247 -9.268622,-0.560833 7.541654,-5.4171354 -6.157337,-6.9504744 9.163247,1.5022614 0.560834,-9.268622 5.417134,7.5416534 6.950475,-6.1573365 -1.502262,9.1632471 9.268622,0.5608332 -7.541653,5.4171352 z"
       transform="matrix(0.49566682,0,0,0.49566682,124.19445,104.34876)" />
    <path
       sodipodi:type="star"
       style="fill:url(#linearGradient13-7-2-65);fill-opacity:1;stroke:#fff209;stroke-width:1.665;stroke-opacity:1"
       id="path12-38-9-7"
       inkscape:flatsided="false"
       sodipodi:sides="8"
       sodipodi:cx="30.437441"
       sodipodi:cy="9.8185291"
       sodipodi:r1="16.25997"
       sodipodi:r2="8.1299849"
       sodipodi:arg1="0.50416596"
       sodipodi:arg2="0.89686504"
       inkscape:rounded="0"
       inkscape:randomized="0"
       d="m 44.674308,17.673352 -9.163248,-1.502261 -0.560833,9.268622 -5.417135,-7.541654 -6.950474,6.157337 1.502261,-9.163247 -9.268622,-0.560833 7.541654,-5.4171354 -6.157337,-6.9504744 9.163247,1.5022614 0.560834,-9.268622 5.417134,7.5416534 6.950475,-6.1573365 -1.502262,9.1632471 9.268622,0.5608332 -7.541653,5.4171352 z"
       transform="matrix(0.49566682,0,0,0.49566682,85.777253,133.53372)" />
    <path
       id="path1-8-4-5"
       style="fill:#0000ff;fill-opacity:1;stroke-width:1.45419"
       d="m 75.670221,64.238329 a 50,50 0 0 0 -4.120326,3.285675 50,50 0 0 0 -9.5e-4,6.05e-4 50,50 0 0 0 -5.01e-4,8.68e-4 50,50 0 0 0 -4.073853,4.066141 6.9159117,6.3395858 30 0 0 7.637547,-2.699039 6.9159117,6.3395858 30 0 0 0.558118,-4.65431 z" />
    <rect
       style="fill:#ff3838;fill-opacity:1;stroke-width:1.99254"
       id="rect4"
       width="20"
       height="10"
       x="90"
       y="210" />
    <rect
       style="fill:#ffe300;fill-opacity:1;stroke-width:1.93028"
       id="rect5"
       width="20"
       height="10"
       x="90"
       y="225" />
    <rect
       style="fill:#000caa;fill-opacity:1;stroke-width:1.93028"
       id="rect5-8"
       width="20"
       height="10"
       x="90"
       y="240" />
    <rect
       style="fill:#00aa05;fill-opacity:1;stroke-width:1.93028"
       id="rect5-8-5"
       width="20"
       height="10"
       x="90"
       y="255" />
    <text
       xml:space="preserve"
       style="font-size:6.35px;writing-mode:lr-tb;direction:ltr;fill:#00aa05;fill-opacity:1;stroke-width:1.665"
       x="150.22897"
       y="214.39328"
       id="text7"><tspan
         sodipodi:role="line"
         id="tspan7"
         style="stroke-width:1.665"
         x="150.22897"
         y="214.39328" /></text>
    <text
       xml:space="preserve"
       style="font-style:normal;font-variant:normal;font-weight:bold;font-stretch:normal;font-size:6.35px;font-family:sans-serif;-inkscape-font-specification:'sans-serif Bold';writing-mode:lr-tb;direction:ltr;fill:#000000;fill-opacity:1;stroke-width:1.665"
       x="114.84375"
       y="217.08278"
       id="text8"><tspan
         sodipodi:role="line"
         id="tspan8"
         style="stroke-width:1.665"
         x="114.84375"
         y="217.08278">PISTON/TURBINE</tspan></text>
    <text
       xml:space="preserve"
       style="font-style:normal;font-variant:normal;font-weight:bold;font-stretch:normal;font-size:6.35px;font-family:sans-serif;-inkscape-font-specification:'sans-serif Bold';writing-mode:lr-tb;direction:ltr;fill:#000000;fill-opacity:1;stroke-width:1.665"
       x="115.08313"
       y="202.2475"
       id="text8-3"><tspan
         sodipodi:role="line"
         id="tspan8-2"
         style="stroke-width:1.665"
         x="115.08313"
         y="202.2475">COMBUSTION EVENT</tspan></text>
    <text
       xml:space="preserve"
       style="font-style:normal;font-variant:normal;font-weight:bold;font-stretch:normal;font-size:6.35px;font-family:sans-serif;-inkscape-font-specification:'sans-serif Bold';writing-mode:lr-tb;direction:ltr;fill:#000000;fill-opacity:1;stroke-width:1.665"
       x="113.70312"
       y="232.45148"
       id="text9"><tspan
         sodipodi:role="line"
         id="tspan9"
         style="stroke-width:1.665"
         x="113.70312"
         y="232.45148">DRIVE SHAFT</tspan></text>
    <text
       xml:space="preserve"
       style="font-style:normal;font-variant:normal;font-weight:bold;font-stretch:normal;font-size:6.35px;font-family:sans-serif;-inkscape-font-specification:'sans-serif Bold';writing-mode:lr-tb;direction:ltr;fill:#000000;fill-opacity:1;stroke-width:1.665"
       x="116"
       y="248.20438"
       id="text10"><tspan
         sodipodi:role="line"
         id="tspan10"
         style="stroke-width:1.665"
         x="116"
         y="248.20438">OUTER CASING VENT</tspan></text>
    <text
       xml:space="preserve"
       style="font-style:normal;font-variant:normal;font-weight:bold;font-stretch:normal;font-size:6.35px;font-family:sans-serif;-inkscape-font-specification:'sans-serif Bold';writing-mode:lr-tb;direction:ltr;fill:#000000;fill-opacity:1;stroke-width:1.665"
       x="114.07812"
       y="262.42044"
       id="text11"><tspan
         sodipodi:role="line"
         id="tspan11"
         style="stroke-width:1.665"
         x="114.07812"
         y="262.42044">FIXED OUTER CASING</tspan></text>
    <path
       id="path11-50"
       style="fill:#0000ff;fill-opacity:1;stroke-width:1.665"
       d="m 104.24908,151.75732 a 6.9159117,6.3395858 30 0 0 -8.812901,1.50192 50,50 0 0 0 5.968071,0.78375 50,50 0 0 0 0.72855,0.0738 50,50 0 0 0 3.35048,-0.0103 50,50 0 0 0 1.24474,-0.0249 6.9159117,6.3395858 30 0 0 -2.47898,-2.32392 z" />
    <path
       id="path11-50-3"
       style="fill:#0000ff;fill-opacity:1;stroke-width:1.665"
       d="m 137.93872,138.38614 a 6.3395858,6.9159117 75 0 0 -5.16967,7.29373 50,50 0 0 0 4.77427,-3.66587 50,50 0 0 0 0.56713,-0.46332 50,50 0 0 0 2.36186,-2.37643 50,50 0 0 0 0.8626,-0.89768 6.3395858,6.9159117 75 0 0 -3.39619,0.10957 z" />
    <path
       id="path11-9"
       style="fill:#0000ff;fill-opacity:1;stroke-width:1.665"
       d="m 69.597106,134.46007 a 6.9159117,6.3395858 30 0 0 -5.000377,-0.87134 50,50 0 0 0 8.258214,8.87323 6.9159117,6.3395858 30 0 0 -3.25783,-8.00193 z" />
    <path
       id="path11-9-7"
       style="fill:#0000ff;fill-opacity:1;stroke-width:1.665"
       d="m 55.786362,95.697481 a 50,50 0 0 0 -0.67548,10.871689 6.9159117,6.3395858 30 0 0 2.713665,-2.44194 6.9159117,6.3395858 30 0 0 -2.038185,-8.429749 z" />
    <path
       id="path11-9-5"
       style="fill:#0000ff;fill-opacity:1;stroke-width:1.665"
       d="m 114.41725,55.836099 a 50,50 0 0 0 -0.30876,-0.05952 50,50 0 0 0 -0.32521,-0.04749 50,50 0 0 0 -5.94921,-0.731689 50,50 0 0 0 -0.68371,-0.01881 50,50 0 0 0 -4.46337,-0.02481 6.9159117,6.3395858 30 0 0 2.70696,2.691837 6.9159117,6.3395858 30 0 0 9.02328,-1.809482 z" />
    <path
       id="path11-50-9"
       style="fill:#0000ff;fill-opacity:1;stroke-width:1.665"
       d="m 152.42729,104.68365 a 6.3395858,6.9159117 30 0 0 1.50193,8.81294 50,50 0 0 0 0.78377,-5.96808 50,50 0 0 0 0.0738,-0.72859 50,50 0 0 0 -0.0103,-3.35049 50,50 0 0 0 -0.0248,-1.24471 6.3395858,6.9159117 30 0 0 -2.32399,2.47897 z" />
    <path
       id="path11-50-8"
       style="fill:#0000ff;fill-opacity:1;stroke-width:1.665"
       d="m 139.44916,72.138692 a 6.9159117,6.3395858 75 0 0 7.29367,5.169645 50,50 0 0 0 -3.66589,-4.774255 50,50 0 0 0 -0.46327,-0.56709 50,50 0 0 0 -2.37642,-2.361845 50,50 0 0 0 -0.89772,-0.862639 6.9159117,6.3395858 75 0 0 0.10966,3.396157 z" />
    <rect
       style="fill:#ffff00;fill-opacity:1;stroke-width:2.58724"
       id="rect11"
       width="20"
       height="20"
       x="133.22562"
       y="28.610294"
       transform="rotate(30)" />
    <rect
       style="fill:#ffffff;fill-opacity:1;stroke:#000000;stroke-width:1.63286;stroke-opacity:1"
       id="rect12"
       width="18.367134"
       height="8.3671379"
       x="90.816429"
       y="270.81644" />
    <text
       xml:space="preserve"
       style="font-style:normal;font-variant:normal;font-weight:bold;font-stretch:normal;font-size:6.35px;font-family:sans-serif;-inkscape-font-specification:'sans-serif Bold';writing-mode:lr-tb;direction:ltr;fill:#000000;fill-opacity:1;stroke:none;stroke-width:1.665;stroke-opacity:1"
       x="113.13634"
       y="276.62109"
       id="text12"><tspan
         sodipodi:role="line"
         id="tspan12"
         style="fill:#000000;fill-opacity:1;stroke-width:1.665"
         x="113.13634"
         y="276.62109">COMBUSTION CHAMBERS</tspan></text>
    <text
       xml:space="preserve"
       style="font-style:normal;font-variant:normal;font-weight:bold;font-stretch:normal;font-size:6.35px;font-family:sans-serif;-inkscape-font-specification:'sans-serif Bold';writing-mode:lr-tb;direction:ltr;fill:#ff5d00;fill-opacity:1;stroke:#fff209;stroke-width:1.665;stroke-opacity:1"
       x="116.5443"
       y="198.52037"
       id="text13"><tspan
         sodipodi:role="line"
         id="tspan13"
         style="stroke-width:1.665"
         x="116.5443"
         y="198.52037" /></text>
  </g>
  <g
     inkscape:groupmode="layer"
     id="layer2"
     inkscape:label="FIXED CASING">
    <path
       id="path2-1-3"
       style="fill:#2b0000;fill-opacity:1;stroke-width:2.00392"
       d="M 105.02753,24.30093 A 80,80 0 0 0 35.745454,64.301072 80,80 0 0 0 65.027904,173.58329 80,80 0 0 0 174.3096,144.30136 80,80 0 0 0 145.02767,35.019139 80,80 0 0 0 105.02753,24.30093 Z m 0.23254,11.969295 a 7.5614737,5 60 0 1 6.16603,4.506185 l 9.26094,16.040365 a 50,50 0 0 1 9.34051,4.183207 50,50 0 0 1 2.30374,1.414384 V 52.48629 a 5,7.5614737 0 0 1 4.99969,-7.560779 5,7.5614737 0 0 1 5.00021,7.560779 v 18.52135 a 50,50 0 0 1 7.28535,10.669631 l 4.96404,-8.597406 a 5,7.5614737 30 0 1 8.11009,-4.047815 5,7.5614737 30 0 1 0.54984,9.048031 l -9.26041,16.03933 a 50,50 0 0 1 0,5.1e-4 50,50 0 0 1 0.97461,12.882929 l 8.59741,-4.96352 a 5,7.5614737 60 0 1 9.04751,0.54932 5,7.5614737 60 0 1 -4.04781,8.11061 l -16.03882,9.2599 a 50,50 0 0 1 -4.18372,9.34207 50,50 0 0 1 -1.41387,2.30322 h 9.92653 a 7.5614737,5 0 0 1 1.95698,0.17053 7.5614737,5 0 0 1 1.82366,0.49919 7.5614737,5 0 0 1 2.21796,1.28623 7.5614737,5 0 0 1 0.54932,0.54415 7.5614737,5 0 0 1 0.75551,1.20561 7.5614737,5 0 0 1 0.25786,1.29398 7.5614737,5 0 0 1 -0.0646,0.65267 7.5614737,5 0 0 1 -0.51108,1.26039 7.5614737,5 0 0 1 0,5.2e-4 7.5614737,5 0 0 1 -2.38229,2.0531 7.5614737,5 0 0 1 -1.70945,0.65268 7.5614737,5 0 0 1 -2.89388,0.38085 h -18.5198 a 50,50 0 0 1 -10.67015,7.28587 l 8.59637,4.96352 a 7.5614737,5 30 0 1 4.04833,8.1101 7.5614737,5 30 0 1 -9.04802,0.54984 l -16.03882,-9.2599 a 50,50 0 0 1 -12.88397,0.97462 l 4.96353,8.59689 a 7.5614737,5 60 0 1 -0.54933,9.04803 7.5614737,5 60 0 1 -8.110606,-4.04834 l -9.26042,-16.03881 a 50,50 0 0 1 -9.34155,-4.18372 50,50 0 0 1 -2.30322,-1.41439 v 9.92705 a 5,7.5614737 0 0 1 -4.99969,7.56129 5,7.5614737 0 0 1 -5.00021,-7.56129 v -18.52033 a 50,50 0 0 1 -7.28586,-10.67015 l -4.96352,8.59689 a 5,7.5614737 30 0 1 -8.11062,4.04833 5,7.5614737 30 0 1 -0.54932,-9.04802 l 9.2599,-16.03882 a 50,50 0 0 1 0,-5.2e-4 50,50 0 0 1 -0.97462,-12.88345 l -8.59689,4.96352 a 5,7.5614737 60 0 1 -9.04802,-0.54932 5,7.5614737 60 0 1 4.04781,-8.110599 l 16.03985,-9.26094 a 50,50 0 0 1 4.18321,-9.34051 50,50 0 0 1 1.4149,-2.30374 h -9.92808 a 7.5614737,5 0 0 1 -7.56078,-4.999691 7.5614737,5 0 0 1 7.56078,-5.000212 h 18.52135 a 50,50 0 0 1 10.67015,-7.285343 l -8.59741,-4.964038 a 7.5614737,5 30 0 1 -4.04833,-8.110616 7.5614737,5 30 0 1 4.54494,-1.955953 7.5614737,5 30 0 1 4.50309,1.406632 l 16.03984,9.260417 A 50,50 0 0 1 107.7302,54.374546 l -4.96404,-8.597924 a 7.5614737,5 60 0 1 0.54932,-9.048027 7.5614737,5 60 0 1 1.94458,-0.45837 z" />
  </g>
</svg>
