<?xml version="1.0" encoding="UTF-8" standalone="no"?>
<!-- Created with Inkscape (http://www.inkscape.org/) -->

<svg
   width="210mm"
   height="297mm"
   viewBox="0 0 210 297"
   version="1.1"
   id="svg1"
   inkscape:version="1.4.3 (0d15f75, 2025-12-25)"
   sodipodi:docname="IMG9.svg"
   xmlns:inkscape="http://www.inkscape.org/namespaces/inkscape"
   xmlns:sodipodi="http://sodipodi.sourceforge.net/DTD/sodipodi-0.dtd"
   xmlns:xlink="http://www.w3.org/1999/xlink"
   xmlns="http://www.w3.org/2000/svg"
   xmlns:svg="http://www.w3.org/2000/svg">
  <sodipodi:namedview
     id="namedview1"
     pagecolor="#ffffff"
     bordercolor="#000000"
     borderopacity="0.25"
     inkscape:showpageshadow="2"
     inkscape:pageopacity="0.0"
     inkscape:pagecheckerboard="0"
     inkscape:deskcolor="#d1d1d1"
     inkscape:document-units="mm"
     inkscape:zoom="0.61594576"
     inkscape:cx="800.39516"
     inkscape:cy="471.63244"
     inkscape:window-width="1920"
     inkscape:window-height="991"
     inkscape:window-x="-9"
     inkscape:window-y="-9"
     inkscape:window-maximized="1"
     inkscape:current-layer="layer1" />
  <defs
     id="defs1">
    <linearGradient
       id="linearGradient12"
       inkscape:collect="always">
      <stop
         style="stop-color:#ff3d00;stop-opacity:1;"
         offset="0"
         id="stop12" />
      <stop
         style="stop-color:#cbba00;stop-opacity:0.75423729;"
         offset="1"
         id="stop13" />
    </linearGradient>
    <linearGradient
       inkscape:collect="always"
       xlink:href="#linearGradient12"
       id="linearGradient13-7-2"
       x1="12.429228"
       y1="9.8185291"
       x2="48.445656"
       y2="9.8185291"
       gradientUnits="userSpaceOnUse" />
  </defs>
  <g
     inkscape:label="Layer 1"
     inkscape:groupmode="layer"
     id="layer1">
    <path
       id="path1-8-4"
       style="fill:#ff0000;fill-opacity:1;stroke-width:1.45419"
       d="m 65.503353,73.818593 0.064,-0.01084 a 50,50 0 0 1 0.0082,-0.01066 l -0.06305,0.01091 a 50,50 0 0 0 -0.0082,0.01066 z m 0.0719,-0.0218 17.52779,-3.090599 a 5,7.5614737 80 0 1 0.455341,-0.07116 l 0.163674,-0.02965 a 5,7.5614737 80 0 1 8.314861,3.611622 5,7.5614737 80 0 1 -6.578729,6.236495 l -26.590364,4.688707 a 50,50 0 0 0 -3.48132,24.590602 l 9.922353,-14.17064 a 5,7.5614737 35 0 1 0.271475,-0.372011 l 0.09586,-0.136437 a 5,7.5614737 35 0 1 8.432958,-3.325722 5,7.5614737 35 0 1 -0.24151,9.06149 l -15.280105,21.82296 a 50,50 0 0 0 15.416295,20.77834 l -3.090675,-17.52792 a 7.5614737,5 80 0 1 -0.07109,-0.45502 l -0.02891,-0.16406 a 7.5614737,5 80 0 1 3.611303,-8.31452 7.5614737,5 80 0 1 6.23693,6.57838 l 4.701309,26.66233 a 50,50 0 0 0 11.739409,3.37691 50,50 0 0 0 0.719286,0.13701 50,50 0 0 0 3.338818,0.28207 50,50 0 0 0 9.2068,-0.11543 L 95.787374,143.64174 a 7.5614737,5 35 0 1 -0.371994,-0.27145 l -0.136335,-0.0953 a 7.5614737,5 35 0 1 -3.325808,-8.43294 7.5614737,5 35 0 1 9.061593,0.24148 l 22.17739,15.52907 a 50,50 0 0 0 20.36766,-15.03788 l -17.22773,3.0376 a 5,7.5614737 80 0 1 -0.45503,0.0711 l -0.16422,0.0282 a 5,7.5614737 80 0 1 -8.3144,-3.61128 5,7.5614737 80 0 1 6.57804,-6.23656 l 26.36036,-4.64856 a 50,50 0 0 0 0.33749,-0.76672 50,50 0 0 0 1.59324,-4.36863 50,50 0 0 0 0.0885,-0.30323 50,50 0 0 0 2.05464,-16.37846 50,50 0 0 0 -0.27693,-3.447877 l -10.01059,14.297797 a 5,7.5614737 35 0 1 -0.27145,0.37202 l -0.0953,0.13646 a 5,7.5614737 35 0 1 -8.43299,3.32577 5,7.5614737 35 0 1 0.24182,-9.06193 l 15.33072,-21.894236 a 50,50 0 0 0 -4.11522,-8.084057 50,50 0 0 0 -0.57416,-0.843092 50,50 0 0 0 -2.93624,-4.01418 50,50 0 0 0 -1.55178,-1.774189 50,50 0 0 0 -2.46228,-2.580233 50,50 0 0 0 -2.73985,-2.457771 50,50 0 0 0 -0.79073,-0.646452 l 3.07745,17.452991 a 7.5614737,5 80 0 1 0.0711,0.454996 l 0.0283,0.163964 a 7.5614737,5 80 0 1 -3.61095,8.314699 7.5614737,5 80 0 1 -6.23687,-6.578235 l -4.69867,-26.647307 a 50,50 0 0 0 -6.03355,-2.125268 50,50 0 0 0 -0.32024,-0.07556 50,50 0 0 0 -5.8628,-1.247437 50,50 0 0 0 -0.67949,-0.07833 50,50 0 0 0 -5.67865,-0.457959 50,50 0 0 0 -0.68719,2.17e-4 50,50 0 0 0 -5.771995,0.281676 50,50 0 0 0 -0.221452,0.02548 l 14.222677,9.9588 a 7.5614737,5 35 0 1 0.37201,0.271458 l 0.13634,0.09554 a 7.5614737,5 35 0 1 3.3258,8.432814 7.5614737,5 35 0 1 -9.06149,-0.241511 L 86.255297,58.433742 a 50,50 0 0 0 -0.200347,0.07791 50,50 0 0 0 -5.581178,2.656062 50,50 0 0 0 -0.188188,0.102961 50,50 0 0 0 -5.383501,3.484616 50,50 0 0 0 -8.32e-4,5.28e-4 50,50 0 0 0 -6.14e-4,7.53e-4 50,50 0 0 0 -9.325331,9.038528 z m 44.791304,80.053713 0.11345,0.0795 a 50,50 0 0 0 0.0134,-0.002 l -0.11388,-0.0792 a 50,50 0 0 1 -0.0134,0.002 z m -36.362522,-10.45963 0.03489,0.19787 a 50,50 0 0 0 0.01068,0.008 l -0.03487,-0.19891 a 50,50 0 0 1 -0.01067,-0.008 z" />
    <path
       sodipodi:type="star"
       style="fill:url(#linearGradient13-7-2);fill-opacity:1;stroke:#fff209;stroke-width:1.665;stroke-opacity:1"
       id="path12-38-9"
       inkscape:flatsided="false"
       sodipodi:sides="8"
       sodipodi:cx="30.437441"
       sodipodi:cy="9.8185291"
       sodipodi:r1="16.25997"
       sodipodi:r2="8.1299849"
       sodipodi:arg1="0.50416596"
       sodipodi:arg2="0.89686504"
       inkscape:rounded="0"
       inkscape:randomized="0"
       d="m 44.674308,17.673352 -9.163248,-1.502261 -0.560833,9.268622 -5.417135,-7.541654 -6.950474,6.157337 1.502261,-9.163247 -9.268622,-0.560833 7.541654,-5.4171354 -6.157337,-6.9504744 9.163247,1.5022614 0.560834,-9.268622 5.417134,7.5416534 6.950475,-6.1573365 -1.502262,9.1632471 9.268622,0.5608332 -7.541653,5.4171352 z"
       transform="matrix(0.49566682,0,0,0.49566682,85.4566,195.01046)" />
    <path
       id="path1-8-4-5"
       style="fill:#0000ff;fill-opacity:1;stroke-width:1.45419"
       d="m 79.293029,61.841249 a 50,50 0 0 0 -4.391012,2.914062 50,50 0 0 0 -9.99e-4,5.2e-4 50,50 0 0 0 -5.75e-4,8.21e-4 50,50 0 0 0 -4.412738,3.695609 6.9159117,6.3395858 35 0 0 7.84372,-2.023113 6.9159117,6.3395858 35 0 0 0.961644,-4.587955 z" />
    <rect
       style="fill:#ff3838;fill-opacity:1;stroke-width:1.99254"
       id="rect4"
       width="20"
       height="10"
       x="90"
       y="210" />
    <rect
       style="fill:#ffe300;fill-opacity:1;stroke-width:1.93028"
       id="rect5"
       width="20"
       height="10"
       x="90"
       y="225" />
    <rect
       style="fill:#000caa;fill-opacity:1;stroke-width:1.93028"
       id="rect5-8"
       width="20"
       height="10"
       x="90"
       y="240" />
    <rect
       style="fill:#00aa05;fill-opacity:1;stroke-width:1.93028"
       id="rect5-8-5"
       width="20"
       height="10"
       x="90"
       y="255" />
    <text
       xml:space="preserve"
       style="font-size:6.35px;writing-mode:lr-tb;direction:ltr;fill:#00aa05;fill-opacity:1;stroke-width:1.665"
       x="150.22897"
       y="214.39328"
       id="text7"><tspan
         sodipodi:role="line"
         id="tspan7"
         style="stroke-width:1.665"
         x="150.22897"
         y="214.39328" /></text>
    <text
       xml:space="preserve"
       style="font-style:normal;font-variant:normal;font-weight:bold;font-stretch:normal;font-size:6.35px;font-family:sans-serif;-inkscape-font-specification:'sans-serif Bold';writing-mode:lr-tb;direction:ltr;fill:#000000;fill-opacity:1;stroke-width:1.665"
       x="114.84375"
       y="217.08278"
       id="text8"><tspan
         sodipodi:role="line"
         id="tspan8"
         style="stroke-width:1.665"
         x="114.84375"
         y="217.08278">PISTON/TURBINE</tspan></text>
    <text
       xml:space="preserve"
       style="font-style:normal;font-variant:normal;font-weight:bold;font-stretch:normal;font-size:6.35px;font-family:sans-serif;-inkscape-font-specification:'sans-serif Bold';writing-mode:lr-tb;direction:ltr;fill:#000000;fill-opacity:1;stroke-width:1.665"
       x="115.08313"
       y="202.2475"
       id="text8-3"><tspan
         sodipodi:role="line"
         id="tspan8-2"
         style="stroke-width:1.665"
         x="115.08313"
         y="202.2475">COMBUSTION EVENT</tspan></text>
    <text
       xml:space="preserve"
       style="font-style:normal;font-variant:normal;font-weight:bold;font-stretch:normal;font-size:6.35px;font-family:sans-serif;-inkscape-font-specification:'sans-serif Bold';writing-mode:lr-tb;direction:ltr;fill:#000000;fill-opacity:1;stroke-width:1.665"
       x="113.70312"
       y="232.45148"
       id="text9"><tspan
         sodipodi:role="line"
         id="tspan9"
         style="stroke-width:1.665"
         x="113.70312"
         y="232.45148">DRIVE SHAFT</tspan></text>
    <text
       xml:space="preserve"
       style="font-style:normal;font-variant:normal;font-weight:bold;font-stretch:normal;font-size:6.35px;font-family:sans-serif;-inkscape-font-specification:'sans-serif Bold';writing-mode:lr-tb;direction:ltr;fill:#000000;fill-opacity:1;stroke-width:1.665"
       x="116"
       y="248.20438"
       id="text10"><tspan
         sodipodi:role="line"
         id="tspan10"
         style="stroke-width:1.665"
         x="116"
         y="248.20438">OUTER CASING VENT</tspan></text>
    <text
       xml:space="preserve"
       style="font-style:normal;font-variant:normal;font-weight:bold;font-stretch:normal;font-size:6.35px;font-family:sans-serif;-inkscape-font-specification:'sans-serif Bold';writing-mode:lr-tb;direction:ltr;fill:#000000;fill-opacity:1;stroke-width:1.665"
       x="114.07812"
       y="262.42044"
       id="text11"><tspan
         sodipodi:role="line"
         id="tspan11"
         style="stroke-width:1.665"
         x="114.07812"
         y="262.42044">FIXED OUTER CASING</tspan></text>
    <path
       id="path11-50"
       style="fill:#0000ff;fill-opacity:1;stroke-width:1.665"
       d="m 100.13535,151.51802 a 6.9159117,6.3395858 35 0 0 -8.910262,0.72811 50,50 0 0 0 5.877053,1.30091 50,50 0 0 0 0.719345,0.13702 50,50 0 0 0 3.338624,0.28175 50,50 0 0 0 1.24218,0.0837 6.9159117,6.3395858 35 0 0 -2.26701,-2.53114 z" />
    <path
       id="path11-50-3"
       style="fill:#0000ff;fill-opacity:1;stroke-width:1.665"
       d="m 134.86217,141.13396 a 6.3395858,6.9159117 80 0 0 -5.78569,6.81541 50,50 0 0 0 5.07561,-3.23581 50,50 0 0 0 0.60535,-0.41213 50,50 0 0 0 2.55999,-2.16154 50,50 0 0 0 0.93756,-0.81908 6.3395858,6.9159117 80 0 0 -3.39282,-0.18685 z" />
    <path
       id="path11-9"
       style="fill:#0000ff;fill-opacity:1;stroke-width:1.665"
       d="m 67.122796,131.26647 a 6.9159117,6.3395858 35 0 0 -4.905406,-1.30384 50,50 0 0 0 7.453436,9.55922 6.9159117,6.3395858 35 0 0 -2.548019,-8.25542 z" />
    <path
       id="path11-9-7"
       style="fill:#0000ff;fill-opacity:1;stroke-width:1.665"
       d="m 56.742989,91.447697 a 50,50 0 0 0 -1.62044,10.771443 6.9159117,6.3395858 35 0 0 2.916168,-2.19613 6.9159117,6.3395858 35 0 0 -1.295728,-8.575313 z" />
    <path
       id="path11-9-5"
       style="fill:#0000ff;fill-opacity:1;stroke-width:1.665"
       d="m 118.62492,56.848018 a 50,50 0 0 0 -0.3024,-0.0862 50,50 0 0 0 -0.31983,-0.07565 50,50 0 0 0 -5.8628,-1.247412 50,50 0 0 0 -0.67947,-0.07833 50,50 0 0 0 -4.44423,-0.413724 6.9159117,6.3395858 35 0 0 2.46205,2.917521 6.9159117,6.3395858 35 0 0 9.14665,-1.016165 z" />
    <path
       id="path11-50-9"
       style="fill:#0000ff;fill-opacity:1;stroke-width:1.665"
       d="m 152.23297,108.82248 a 6.3395858,6.9159117 35 0 0 0.72812,8.91031 50,50 0 0 0 1.30094,-5.87706 50,50 0 0 0 0.13702,-0.71939 50,50 0 0 0 0.28175,-3.33863 50,50 0 0 0 0.0838,-1.24214 6.3395858,6.9159117 35 0 0 -2.5312,2.26699 z" />
    <path
       id="path11-50-8"
       style="fill:#0000ff;fill-opacity:1;stroke-width:1.665"
       d="m 142.14071,75.27025 a 6.9159117,6.3395858 80 0 0 6.81535,5.785658 50,50 0 0 0 -3.23584,-5.075591 50,50 0 0 0 -0.41208,-0.605309 50,50 0 0 0 -2.16153,-2.559976 50,50 0 0 0 -0.81912,-0.937598 6.9159117,6.3395858 80 0 0 -0.18675,3.392792 z" />
    <rect
       style="fill:#ffff00;fill-opacity:1;stroke-width:2.58724"
       id="rect11"
       width="20"
       height="20"
       x="135.99785"
       y="15.990152"
       transform="rotate(35)" />
    <rect
       style="fill:#ffffff;fill-opacity:1;stroke:#000000;stroke-width:1.63286;stroke-opacity:1"
       id="rect12"
       width="18.367134"
       height="8.3671379"
       x="90.816429"
       y="270.81644" />
    <text
       xml:space="preserve"
       style="font-style:normal;font-variant:normal;font-weight:bold;font-stretch:normal;font-size:6.35px;font-family:sans-serif;-inkscape-font-specification:'sans-serif Bold';writing-mode:lr-tb;direction:ltr;fill:#000000;fill-opacity:1;stroke:none;stroke-width:1.665;stroke-opacity:1"
       x="113.13634"
       y="276.62109"
       id="text12"><tspan
         sodipodi:role="line"
         id="tspan12"
         style="fill:#000000;fill-opacity:1;stroke-width:1.665"
         x="113.13634"
         y="276.62109">COMBUSTION CHAMBERS</tspan></text>
    <text
       xml:space="preserve"
       style="font-style:normal;font-variant:normal;font-weight:bold;font-stretch:normal;font-size:6.35px;font-family:sans-serif;-inkscape-font-specification:'sans-serif Bold';writing-mode:lr-tb;direction:ltr;fill:#ff5d00;fill-opacity:1;stroke:#fff209;stroke-width:1.665;stroke-opacity:1"
       x="116.5443"
       y="198.52037"
       id="text13"><tspan
         sodipodi:role="line"
         id="tspan13"
         style="stroke-width:1.665"
         x="116.5443"
         y="198.52037" /></text>
  </g>
  <g
     inkscape:groupmode="layer"
     id="layer2"
     inkscape:label="FIXED CASING">
    <path
       id="path2-1-3"
       style="fill:#2b0000;fill-opacity:1;stroke-width:2.00392"
       d="M 105.02753,24.30093 A 80,80 0 0 0 35.745454,64.301072 80,80 0 0 0 65.027904,173.58329 80,80 0 0 0 174.3096,144.30136 80,80 0 0 0 145.02767,35.019139 80,80 0 0 0 105.02753,24.30093 Z m 0.23254,11.969295 a 7.5614737,5 60 0 1 6.16603,4.506185 l 9.26094,16.040365 a 50,50 0 0 1 9.34051,4.183207 50,50 0 0 1 2.30374,1.414384 V 52.48629 a 5,7.5614737 0 0 1 4.99969,-7.560779 5,7.5614737 0 0 1 5.00021,7.560779 v 18.52135 a 50,50 0 0 1 7.28535,10.669631 l 4.96404,-8.597406 a 5,7.5614737 30 0 1 8.11009,-4.047815 5,7.5614737 30 0 1 0.54984,9.048031 l -9.26041,16.03933 a 50,50 0 0 1 0,5.1e-4 50,50 0 0 1 0.97461,12.882929 l 8.59741,-4.96352 a 5,7.5614737 60 0 1 9.04751,0.54932 5,7.5614737 60 0 1 -4.04781,8.11061 l -16.03882,9.2599 a 50,50 0 0 1 -4.18372,9.34207 50,50 0 0 1 -1.41387,2.30322 h 9.92653 a 7.5614737,5 0 0 1 1.95698,0.17053 7.5614737,5 0 0 1 1.82366,0.49919 7.5614737,5 0 0 1 2.21796,1.28623 7.5614737,5 0 0 1 0.54932,0.54415 7.5614737,5 0 0 1 0.75551,1.20561 7.5614737,5 0 0 1 0.25786,1.29398 7.5614737,5 0 0 1 -0.0646,0.65267 7.5614737,5 0 0 1 -0.51108,1.26039 7.5614737,5 0 0 1 0,5.2e-4 7.5614737,5 0 0 1 -2.38229,2.0531 7.5614737,5 0 0 1 -1.70945,0.65268 7.5614737,5 0 0 1 -2.89388,0.38085 h -18.5198 a 50,50 0 0 1 -10.67015,7.28587 l 8.59637,4.96352 a 7.5614737,5 30 0 1 4.04833,8.1101 7.5614737,5 30 0 1 -9.04802,0.54984 l -16.03882,-9.2599 a 50,50 0 0 1 -12.88397,0.97462 l 4.96353,8.59689 a 7.5614737,5 60 0 1 -0.54933,9.04803 7.5614737,5 60 0 1 -8.110606,-4.04834 l -9.26042,-16.03881 a 50,50 0 0 1 -9.34155,-4.18372 50,50 0 0 1 -2.30322,-1.41439 v 9.92705 a 5,7.5614737 0 0 1 -4.99969,7.56129 5,7.5614737 0 0 1 -5.00021,-7.56129 v -18.52033 a 50,50 0 0 1 -7.28586,-10.67015 l -4.96352,8.59689 a 5,7.5614737 30 0 1 -8.11062,4.04833 5,7.5614737 30 0 1 -0.54932,-9.04802 l 9.2599,-16.03882 a 50,50 0 0 1 0,-5.2e-4 50,50 0 0 1 -0.97462,-12.88345 l -8.59689,4.96352 a 5,7.5614737 60 0 1 -9.04802,-0.54932 5,7.5614737 60 0 1 4.04781,-8.110599 l 16.03985,-9.26094 a 50,50 0 0 1 4.18321,-9.34051 50,50 0 0 1 1.4149,-2.30374 h -9.92808 a 7.5614737,5 0 0 1 -7.56078,-4.999691 7.5614737,5 0 0 1 7.56078,-5.000212 h 18.52135 a 50,50 0 0 1 10.67015,-7.285343 l -8.59741,-4.964038 a 7.5614737,5 30 0 1 -4.04833,-8.110616 7.5614737,5 30 0 1 4.54494,-1.955953 7.5614737,5 30 0 1 4.50309,1.406632 l 16.03984,9.260417 A 50,50 0 0 1 107.7302,54.374546 l -4.96404,-8.597924 a 7.5614737,5 60 0 1 0.54932,-9.048027 7.5614737,5 60 0 1 1.94458,-0.45837 z" />
  </g>
</svg>
